<svg xmlns="http://www.w3.org/2000/svg" width="500" zoomAndPan="magnify" viewBox="0 0 375 374.999991" height="500"
     preserveAspectRatio="xMidYMid meet" version="1.0"><defs><g/></defs><g fill="#ffffff" fill-opacity="1"><g transform="translate(80.183591, 172.775629)"><g><path d="M 9.5 -12.15625 C 9.363281 -11.851562 9.226562 -11.554688 9.09375 -11.265625 C 8.96875 -10.984375 8.820312 -10.710938 8.65625 -10.453125 C 8.550781 -10.253906 8.582031 -10.101562 8.75 -10 C 8.914062 -9.863281 9.234375 -9.5625 9.703125 -9.09375 C 10.171875 -8.632812 10.675781 -8.113281 11.21875 -7.53125 C 11.769531 -6.945312 12.257812 -6.40625 12.6875 -5.90625 C 13.125 -5.40625 13.363281 -5.070312 13.40625 -4.90625 C 13.5 -4.738281 13.613281 -4.601562 13.75 -4.5 C 14.019531 -4.394531 14.171875 -4.195312 14.203125 -3.90625 C 14.203125 -3.863281 14.25 -3.796875 14.34375 -3.703125 C 14.507812 -3.671875 14.625 -3.5625 14.6875 -3.375 C 14.757812 -3.1875 14.894531 -3.0625 15.09375 -3 C 15.226562 -2.769531 15.394531 -2.550781 15.59375 -2.34375 C 15.800781 -2.144531 15.988281 -1.945312 16.15625 -1.75 C 16.28125 -1.613281 16.398438 -1.476562 16.515625 -1.34375 C 16.640625 -1.21875 16.71875 -1.035156 16.75 -0.796875 C 16.75 -0.734375 16.765625 -0.703125 16.796875 -0.703125 C 17.097656 -0.566406 17.332031 -0.335938 17.5 -0.015625 C 17.664062 0.296875 17.898438 0.535156 18.203125 0.703125 C 18.398438 0.929688 18.597656 1.15625 18.796875 1.375 C 18.992188 1.59375 19.160156 1.832031 19.296875 2.09375 C 19.460938 2.300781 19.617188 2.488281 19.765625 2.65625 C 19.921875 2.820312 20.097656 2.953125 20.296875 3.046875 C 20.398438 3.148438 20.5 3.25 20.59375 3.34375 C 20.695312 3.445312 20.78125 3.550781 20.84375 3.65625 C 20.945312 3.75 21.046875 3.867188 21.140625 4.015625 C 21.242188 4.171875 21.332031 4.316406 21.40625 4.453125 C 21.5 4.585938 21.617188 4.675781 21.765625 4.71875 C 21.921875 4.769531 22.015625 4.878906 22.046875 5.046875 C 22.046875 5.148438 22.082031 5.203125 22.15625 5.203125 C 22.519531 5.429688 22.816406 5.703125 23.046875 6.015625 C 23.285156 6.335938 23.535156 6.632812 23.796875 6.90625 C 23.929688 7.070312 24.066406 7.210938 24.203125 7.328125 C 24.335938 7.441406 24.46875 7.550781 24.59375 7.65625 C 24.757812 7.78125 24.925781 7.914062 25.09375 8.0625 C 25.257812 8.21875 25.378906 8.414062 25.453125 8.65625 C 25.453125 8.75 25.414062 8.832031 25.34375 8.90625 C 25.3125 9 25.226562 9.015625 25.09375 8.953125 C 25.03125 8.878906 24.941406 8.816406 24.828125 8.765625 C 24.710938 8.722656 24.617188 8.648438 24.546875 8.546875 C 24.484375 8.484375 24.410156 8.390625 24.328125 8.265625 C 24.242188 8.148438 24.132812 8.09375 24 8.09375 C 23.894531 8.09375 23.828125 8.113281 23.796875 8.15625 C 23.796875 8.15625 23.785156 8.144531 23.765625 8.125 C 23.753906 8.101562 23.734375 8.09375 23.703125 8.09375 C 23.460938 7.800781 23.191406 7.550781 22.890625 7.34375 C 22.597656 7.144531 22.332031 6.894531 22.09375 6.59375 C 21.894531 6.363281 21.695312 6.140625 21.5 5.921875 C 21.300781 5.703125 21.066406 5.53125 20.796875 5.40625 C 20.566406 5.269531 20.351562 5.035156 20.15625 4.703125 C 20.019531 4.460938 19.875 4.257812 19.71875 4.09375 C 19.570312 3.925781 19.398438 3.757812 19.203125 3.59375 C 19.035156 3.394531 18.867188 3.175781 18.703125 2.9375 C 18.535156 2.707031 18.332031 2.53125 18.09375 2.40625 C 17.832031 1.9375 17.507812 1.535156 17.125 1.203125 C 16.738281 0.867188 16.394531 0.484375 16.09375 0.046875 C 15.800781 -0.421875 15.445312 -0.84375 15.03125 -1.21875 C 14.613281 -1.601562 14.269531 -2.046875 14 -2.546875 L 13.953125 -2.59375 C 13.484375 -3.09375 13.03125 -3.617188 12.59375 -4.171875 C 12.164062 -4.722656 11.703125 -5.25 11.203125 -5.75 L 11.046875 -5.90625 C 10.847656 -6.164062 10.628906 -6.40625 10.390625 -6.625 C 10.160156 -6.84375 9.929688 -7.066406 9.703125 -7.296875 C 9.460938 -7.535156 9.234375 -7.757812 9.015625 -7.96875 C 8.804688 -8.1875 8.601562 -8.414062 8.40625 -8.65625 C 8.332031 -8.71875 8.226562 -8.78125 8.09375 -8.84375 C 7.96875 -8.613281 7.851562 -8.378906 7.75 -8.140625 C 7.644531 -7.910156 7.546875 -7.679688 7.453125 -7.453125 C 7.347656 -7.210938 7.265625 -6.992188 7.203125 -6.796875 C 7.171875 -6.660156 7.132812 -6.523438 7.09375 -6.390625 C 7.0625 -6.265625 7.015625 -6.148438 6.953125 -6.046875 C 6.753906 -5.648438 6.578125 -5.242188 6.421875 -4.828125 C 6.273438 -4.410156 6.117188 -4 5.953125 -3.59375 C 5.921875 -3.5 5.894531 -3.410156 5.875 -3.328125 C 5.851562 -3.242188 5.828125 -3.132812 5.796875 -3 C 5.734375 -2.769531 5.664062 -2.503906 5.59375 -2.203125 C 5.53125 -1.898438 5.445312 -1.613281 5.34375 -1.34375 C 5.21875 -0.976562 5.09375 -0.59375 4.96875 -0.1875 C 4.851562 0.207031 4.765625 0.601562 4.703125 1 C 4.597656 1.4375 4.460938 1.867188 4.296875 2.296875 C 4.128906 2.734375 3.960938 3.1875 3.796875 3.65625 C 3.765625 3.75 3.695312 3.796875 3.59375 3.796875 C 3.5625 3.796875 3.515625 3.765625 3.453125 3.703125 C 3.347656 3.566406 3.269531 3.441406 3.21875 3.328125 C 3.175781 3.210938 3.070312 3.101562 2.90625 3 C 2.769531 3 2.734375 2.898438 2.796875 2.703125 C 2.992188 2.429688 2.976562 2.179688 2.75 1.953125 C 2.613281 1.785156 2.519531 1.609375 2.46875 1.421875 C 2.425781 1.242188 2.382812 1.050781 2.34375 0.84375 C 2.3125 0.613281 2.28125 0.378906 2.25 0.140625 C 2.21875 -0.0859375 2.234375 -0.316406 2.296875 -0.546875 C 2.367188 -0.648438 2.394531 -0.765625 2.375 -0.890625 C 2.351562 -1.023438 2.34375 -1.144531 2.34375 -1.25 L 2.34375 -5.25 C 2.34375 -5.414062 2.351562 -5.585938 2.375 -5.765625 C 2.394531 -5.953125 2.4375 -6.113281 2.5 -6.25 C 2.53125 -6.3125 2.546875 -6.394531 2.546875 -6.5 C 2.546875 -6.601562 2.546875 -6.6875 2.546875 -6.75 L 2.546875 -8.59375 C 2.578125 -8.800781 2.59375 -9.003906 2.59375 -9.203125 C 2.59375 -9.398438 2.628906 -9.597656 2.703125 -9.796875 C 2.765625 -9.960938 2.785156 -10.132812 2.765625 -10.3125 C 2.753906 -10.5 2.75 -10.660156 2.75 -10.796875 C 2.75 -10.960938 2.664062 -11.046875 2.5 -11.046875 L 0.703125 -11.046875 C 0.460938 -11.046875 0.316406 -11.078125 0.265625 -11.140625 C 0.222656 -11.210938 0.203125 -11.363281 0.203125 -11.59375 C 0.171875 -11.800781 0.15625 -11.988281 0.15625 -12.15625 C 0.15625 -12.320312 0.101562 -12.503906 0 -12.703125 C -0.03125 -12.796875 -0.00390625 -12.910156 0.078125 -13.046875 C 0.160156 -13.179688 0.269531 -13.265625 0.40625 -13.296875 L 2.546875 -13.296875 C 2.710938 -13.296875 2.851562 -13.378906 2.96875 -13.546875 C 3.09375 -13.710938 3.117188 -13.894531 3.046875 -14.09375 C 3.015625 -14.195312 2.984375 -14.289062 2.953125 -14.375 C 2.921875 -14.457031 2.921875 -14.53125 2.953125 -14.59375 C 3.085938 -14.832031 3.144531 -15.050781 3.125 -15.25 C 3.101562 -15.445312 3.09375 -15.664062 3.09375 -15.90625 C 3.132812 -16.070312 3.15625 -16.238281 3.15625 -16.40625 C 3.15625 -16.570312 3.1875 -16.738281 3.25 -16.90625 C 3.28125 -16.96875 3.296875 -17.082031 3.296875 -17.25 C 3.328125 -17.476562 3.351562 -17.6875 3.375 -17.875 C 3.394531 -18.0625 3.421875 -18.269531 3.453125 -18.5 C 3.515625 -18.664062 3.535156 -18.847656 3.515625 -19.046875 C 3.503906 -19.242188 3.550781 -19.410156 3.65625 -19.546875 C 3.65625 -19.578125 3.660156 -19.617188 3.671875 -19.671875 C 3.691406 -19.722656 3.703125 -19.765625 3.703125 -19.796875 C 3.671875 -20.160156 3.703125 -20.507812 3.796875 -20.84375 C 3.898438 -21.175781 3.9375 -21.53125 3.90625 -21.90625 C 4.070312 -22.601562 4.203125 -23.316406 4.296875 -24.046875 C 4.398438 -24.785156 4.566406 -25.488281 4.796875 -26.15625 C 5.066406 -26.820312 5.367188 -27.488281 5.703125 -28.15625 C 6.035156 -28.820312 6.414062 -29.46875 6.84375 -30.09375 C 7.21875 -30.695312 7.726562 -31.265625 8.375 -31.796875 C 9.019531 -32.328125 9.71875 -32.789062 10.46875 -33.1875 C 11.21875 -33.59375 11.910156 -33.863281 12.546875 -34 C 13.285156 -34.101562 13.945312 -34.171875 14.53125 -34.203125 C 15.113281 -34.234375 15.769531 -34.25 16.5 -34.25 C 16.664062 -34.25 16.847656 -34.238281 17.046875 -34.21875 C 17.242188 -34.207031 17.425781 -34.164062 17.59375 -34.09375 C 17.726562 -34.0625 17.914062 -34.046875 18.15625 -34.046875 C 18.21875 -34.046875 18.296875 -34.046875 18.390625 -34.046875 C 18.492188 -34.046875 18.582031 -34.046875 18.65625 -34.046875 C 19.019531 -34.046875 19.351562 -33.976562 19.65625 -33.84375 C 20.15625 -33.644531 20.671875 -33.5 21.203125 -33.40625 C 21.398438 -33.363281 21.585938 -33.273438 21.765625 -33.140625 C 21.953125 -33.015625 22.128906 -32.898438 22.296875 -32.796875 C 23.128906 -32.203125 23.753906 -31.660156 24.171875 -31.171875 C 24.585938 -30.691406 24.976562 -29.984375 25.34375 -29.046875 C 25.675781 -28.242188 25.742188 -27.363281 25.546875 -26.40625 C 25.515625 -26.164062 25.460938 -25.9375 25.390625 -25.71875 C 25.328125 -25.507812 25.28125 -25.269531 25.25 -25 C 25.25 -24.5625 25.082031 -24.175781 24.75 -23.84375 C 24.445312 -23.550781 24.25 -23.203125 24.15625 -22.796875 C 24.019531 -22.296875 23.789062 -21.878906 23.46875 -21.546875 C 23.15625 -21.210938 22.78125 -20.929688 22.34375 -20.703125 C 22.25 -20.597656 22.1875 -20.546875 22.15625 -20.546875 C 22.082031 -20.515625 21.976562 -20.5 21.84375 -20.5 C 21.71875 -20.5 21.617188 -20.484375 21.546875 -20.453125 C 21.515625 -20.453125 21.484375 -20.414062 21.453125 -20.34375 C 21.421875 -20.28125 21.421875 -20.21875 21.453125 -20.15625 C 21.617188 -19.988281 21.703125 -19.878906 21.703125 -19.828125 C 21.703125 -19.773438 21.648438 -19.679688 21.546875 -19.546875 C 21.453125 -19.453125 21.335938 -19.378906 21.203125 -19.328125 C 21.066406 -19.273438 20.96875 -19.164062 20.90625 -19 C 20.863281 -18.894531 20.742188 -18.84375 20.546875 -18.84375 C 20.347656 -18.78125 20.25 -18.695312 20.25 -18.59375 C 20.21875 -18.195312 20 -17.945312 19.59375 -17.84375 C 19.53125 -17.84375 19.296875 -17.71875 18.890625 -17.46875 C 18.492188 -17.21875 18.296875 -17.078125 18.296875 -17.046875 C 18.265625 -16.953125 18.191406 -16.878906 18.078125 -16.828125 C 17.960938 -16.773438 17.867188 -16.71875 17.796875 -16.65625 C 17.703125 -16.519531 17.59375 -16.441406 17.46875 -16.421875 C 17.351562 -16.410156 17.226562 -16.367188 17.09375 -16.296875 C 16.96875 -16.203125 16.828125 -16.113281 16.671875 -16.03125 C 16.523438 -15.945312 16.367188 -15.835938 16.203125 -15.703125 C 16.003906 -15.566406 15.8125 -15.441406 15.625 -15.328125 C 15.4375 -15.210938 15.210938 -15.070312 14.953125 -14.90625 C 14.847656 -14.800781 14.726562 -14.75 14.59375 -14.75 C 14.425781 -14.75 14.273438 -14.734375 14.140625 -14.703125 C 14.015625 -14.671875 13.898438 -14.570312 13.796875 -14.40625 C 13.566406 -14.269531 13.316406 -14.140625 13.046875 -14.015625 C 12.785156 -13.898438 12.519531 -13.8125 12.25 -13.75 C 11.976562 -13.6875 11.8125 -13.601562 11.75 -13.5 C 11.582031 -13.269531 11.375 -13.117188 11.125 -13.046875 C 10.875 -12.984375 10.613281 -12.898438 10.34375 -12.796875 C 10.3125 -12.796875 10.269531 -12.8125 10.21875 -12.84375 C 10.175781 -12.882812 10.132812 -12.90625 10.09375 -12.90625 C 10 -12.800781 9.890625 -12.691406 9.765625 -12.578125 C 9.648438 -12.460938 9.5625 -12.320312 9.5 -12.15625 Z M 16.703125 -18.25 C 16.671875 -18.25 16.617188 -18.238281 16.546875 -18.21875 C 16.484375 -18.207031 16.414062 -18.203125 16.34375 -18.203125 C 16.28125 -18.128906 16.148438 -18.0625 15.953125 -18 C 15.984375 -18.195312 16.113281 -18.347656 16.34375 -18.453125 C 16.675781 -18.648438 17.023438 -18.820312 17.390625 -18.96875 C 17.765625 -19.125 18.117188 -19.285156 18.453125 -19.453125 C 18.484375 -19.421875 18.5 -19.363281 18.5 -19.28125 C 18.5 -19.195312 18.515625 -19.15625 18.546875 -19.15625 C 18.546875 -19.15625 18.550781 -19.160156 18.5625 -19.171875 C 18.582031 -19.191406 18.613281 -19.203125 18.65625 -19.203125 C 19.25 -19.367188 19.796875 -19.601562 20.296875 -19.90625 C 20.828125 -20.132812 21.210938 -20.53125 21.453125 -21.09375 C 21.515625 -21.332031 21.585938 -21.535156 21.671875 -21.703125 C 21.753906 -21.867188 21.894531 -21.984375 22.09375 -22.046875 C 22.195312 -22.046875 22.320312 -22.253906 22.46875 -22.671875 C 22.625 -23.085938 22.703125 -23.378906 22.703125 -23.546875 C 22.597656 -23.515625 22.476562 -23.46875 22.34375 -23.40625 C 22.3125 -23.570312 22.328125 -23.703125 22.390625 -23.796875 C 22.460938 -23.898438 22.53125 -24 22.59375 -24.09375 C 22.863281 -24.46875 23.066406 -24.84375 23.203125 -25.21875 C 23.335938 -25.601562 23.453125 -26.015625 23.546875 -26.453125 C 23.710938 -26.953125 23.820312 -27.46875 23.875 -28 C 23.925781 -28.53125 23.867188 -29.0625 23.703125 -29.59375 C 23.597656 -29.894531 23.488281 -30.171875 23.375 -30.421875 C 23.257812 -30.671875 23.082031 -30.894531 22.84375 -31.09375 C 21.78125 -31.757812 20.835938 -32.207031 20.015625 -32.4375 C 19.203125 -32.675781 18.164062 -32.796875 16.90625 -32.796875 C 16.800781 -32.796875 16.679688 -32.800781 16.546875 -32.8125 C 16.410156 -32.832031 16.296875 -32.878906 16.203125 -32.953125 C 16.128906 -33.015625 16.03125 -33.015625 15.90625 -32.953125 C 15.664062 -32.816406 15.414062 -32.75 15.15625 -32.75 C 13.988281 -32.75 12.84375 -32.503906 11.71875 -32.015625 C 10.601562 -31.535156 9.613281 -30.914062 8.75 -30.15625 C 8.75 -30.25 8.734375 -30.332031 8.703125 -30.40625 C 8.703125 -30.46875 8.679688 -30.5 8.640625 -30.5 C 8.609375 -30.5 8.578125 -30.46875 8.546875 -30.40625 C 8.515625 -30.363281 8.488281 -30.328125 8.46875 -30.296875 C 8.457031 -30.265625 8.414062 -30.21875 8.34375 -30.15625 C 8.21875 -30.113281 8.101562 -29.992188 8 -29.796875 C 7.96875 -29.703125 7.925781 -29.59375 7.875 -29.46875 C 7.820312 -29.351562 7.765625 -29.25 7.703125 -29.15625 C 7.566406 -28.988281 7.441406 -28.8125 7.328125 -28.625 C 7.210938 -28.4375 7.171875 -28.210938 7.203125 -27.953125 C 7.203125 -27.679688 7.066406 -27.414062 6.796875 -27.15625 C 6.492188 -26.914062 6.296875 -26.597656 6.203125 -26.203125 C 6.066406 -25.765625 5.929688 -25.34375 5.796875 -24.9375 C 5.660156 -24.539062 5.507812 -24.144531 5.34375 -23.75 C 5.25 -23.519531 5.140625 -23.285156 5.015625 -23.046875 C 4.898438 -22.816406 4.84375 -22.566406 4.84375 -22.296875 C 4.84375 -22.160156 4.828125 -22.023438 4.796875 -21.890625 C 4.765625 -21.765625 4.71875 -21.632812 4.65625 -21.5 C 4.613281 -21.300781 4.550781 -21.109375 4.46875 -20.921875 C 4.382812 -20.742188 4.328125 -20.550781 4.296875 -20.34375 C 4.265625 -20.007812 4.207031 -19.664062 4.125 -19.3125 C 4.039062 -18.96875 4.015625 -18.613281 4.046875 -18.25 C 4.078125 -18.1875 4.082031 -18.128906 4.0625 -18.078125 C 4.050781 -18.023438 4.046875 -17.984375 4.046875 -17.953125 C 3.953125 -17.816406 3.90625 -17.65625 3.90625 -17.46875 C 3.90625 -17.289062 3.90625 -17.117188 3.90625 -16.953125 C 3.90625 -16.847656 3.90625 -16.738281 3.90625 -16.625 C 3.90625 -16.507812 3.882812 -16.398438 3.84375 -16.296875 C 3.71875 -15.898438 3.671875 -15.492188 3.703125 -15.078125 C 3.734375 -14.660156 3.734375 -14.234375 3.703125 -13.796875 C 3.703125 -13.628906 3.785156 -13.546875 3.953125 -13.546875 C 4.421875 -13.546875 4.988281 -13.585938 5.65625 -13.671875 C 6.320312 -13.753906 6.953125 -13.921875 7.546875 -14.171875 C 8.148438 -14.421875 8.550781 -14.78125 8.75 -15.25 C 8.75 -15.382812 8.765625 -15.46875 8.796875 -15.5 C 8.960938 -15.695312 9.078125 -15.90625 9.140625 -16.125 C 9.210938 -16.34375 9.316406 -16.566406 9.453125 -16.796875 C 9.546875 -16.960938 9.644531 -17.15625 9.75 -17.375 C 9.851562 -17.59375 9.953125 -17.800781 10.046875 -18 C 10.148438 -18.164062 10.234375 -18.335938 10.296875 -18.515625 C 10.367188 -18.703125 10.453125 -18.878906 10.546875 -19.046875 C 10.816406 -19.378906 11.050781 -19.757812 11.25 -20.1875 C 11.445312 -20.625 11.679688 -21.007812 11.953125 -21.34375 C 12.015625 -21.414062 12.046875 -21.484375 12.046875 -21.546875 C 12.046875 -21.617188 12.0625 -21.671875 12.09375 -21.703125 C 12.226562 -22.066406 12.363281 -22.363281 12.5 -22.59375 C 12.53125 -22.664062 12.5625 -22.679688 12.59375 -22.640625 C 12.632812 -22.609375 12.671875 -22.59375 12.703125 -22.59375 C 12.765625 -22.59375 12.796875 -22.628906 12.796875 -22.703125 C 12.867188 -22.867188 12.851562 -23 12.75 -23.09375 C 12.71875 -23.164062 12.707031 -23.234375 12.71875 -23.296875 C 12.738281 -23.367188 12.765625 -23.421875 12.796875 -23.453125 C 12.898438 -23.710938 13 -23.953125 13.09375 -24.171875 C 13.195312 -24.390625 13.300781 -24.613281 13.40625 -24.84375 C 13.570312 -25.34375 13.738281 -25.859375 13.90625 -26.390625 C 14.070312 -26.929688 14.253906 -27.4375 14.453125 -27.90625 C 14.648438 -28.5 14.800781 -29.113281 14.90625 -29.75 C 15.070312 -30.476562 15.40625 -31.007812 15.90625 -31.34375 C 15.96875 -31.3125 16.015625 -31.296875 16.046875 -31.296875 C 16.078125 -31.296875 16.113281 -31.28125 16.15625 -31.25 C 16.445312 -31.144531 16.644531 -30.910156 16.75 -30.546875 C 16.8125 -30.316406 16.851562 -30.09375 16.875 -29.875 C 16.894531 -29.65625 16.882812 -29.414062 16.84375 -29.15625 C 16.71875 -27.988281 16.394531 -26.726562 15.875 -25.375 C 15.351562 -24.019531 14.773438 -22.691406 14.140625 -21.390625 C 13.515625 -20.097656 12.914062 -18.9375 12.34375 -17.90625 C 12.21875 -17.664062 12.09375 -17.40625 11.96875 -17.125 C 11.851562 -16.84375 11.710938 -16.566406 11.546875 -16.296875 C 11.515625 -16.234375 11.5 -16.132812 11.5 -16 C 11.800781 -16.0625 12.082031 -16.160156 12.34375 -16.296875 C 12.613281 -16.429688 12.882812 -16.566406 13.15625 -16.703125 C 13.519531 -16.867188 13.867188 -17.050781 14.203125 -17.25 C 14.535156 -17.445312 14.882812 -17.613281 15.25 -17.75 C 15.519531 -17.945312 15.753906 -18.046875 15.953125 -18.046875 L 15.953125 -17.84375 C 16.117188 -17.84375 16.265625 -17.859375 16.390625 -17.890625 C 16.523438 -17.929688 16.628906 -18.050781 16.703125 -18.25 Z M 3.34375 -9.796875 C 3.3125 -9.734375 3.300781 -9.648438 3.3125 -9.546875 C 3.332031 -9.453125 3.34375 -9.367188 3.34375 -9.296875 L 3.34375 -1.75 C 3.445312 -1.8125 3.5 -1.84375 3.5 -1.84375 C 3.5625 -1.945312 3.628906 -2.097656 3.703125 -2.296875 C 4.097656 -3.628906 4.507812 -4.953125 4.9375 -6.265625 C 5.375 -7.585938 5.84375 -8.898438 6.34375 -10.203125 C 5.507812 -10.960938 4.578125 -11.34375 3.546875 -11.34375 C 3.515625 -11.082031 3.5 -10.816406 3.5 -10.546875 C 3.5 -10.285156 3.445312 -10.035156 3.34375 -9.796875 Z M 15.953125 -17 C 15.847656 -17 15.78125 -16.929688 15.75 -16.796875 C 15.71875 -16.796875 15.679688 -16.800781 15.640625 -16.8125 C 15.609375 -16.832031 15.578125 -16.84375 15.546875 -16.84375 C 15.410156 -16.84375 15.289062 -16.800781 15.1875 -16.71875 C 15.09375 -16.632812 14.960938 -16.5625 14.796875 -16.5 C 14.460938 -16.300781 14.128906 -16.125 13.796875 -15.96875 C 13.460938 -15.820312 13.128906 -15.648438 12.796875 -15.453125 C 12.460938 -15.316406 12.132812 -15.148438 11.8125 -14.953125 C 11.5 -14.753906 11.160156 -14.601562 10.796875 -14.5 C 10.703125 -14.5 10.617188 -14.429688 10.546875 -14.296875 C 10.484375 -14.234375 10.484375 -14.132812 10.546875 -14 C 10.578125 -14 10.617188 -13.988281 10.671875 -13.96875 C 10.722656 -13.957031 10.765625 -13.953125 10.796875 -13.953125 C 10.992188 -14.117188 11.203125 -14.25 11.421875 -14.34375 C 11.640625 -14.445312 11.847656 -14.550781 12.046875 -14.65625 C 12.148438 -14.71875 12.257812 -14.753906 12.375 -14.765625 C 12.488281 -14.785156 12.582031 -14.832031 12.65625 -14.90625 C 13.414062 -15.46875 14.25 -15.898438 15.15625 -16.203125 C 15.445312 -16.296875 15.644531 -16.492188 15.75 -16.796875 C 15.882812 -16.867188 15.953125 -16.9375 15.953125 -17 Z M 10.296875 -17.90625 C 10.203125 -17.695312 10.101562 -17.476562 10 -17.25 C 9.894531 -17.019531 9.796875 -16.769531 9.703125 -16.5 C 9.671875 -16.46875 9.644531 -16.410156 9.625 -16.328125 C 9.601562 -16.242188 9.5625 -16.164062 9.5 -16.09375 C 9.363281 -15.96875 9.257812 -15.800781 9.1875 -15.59375 C 9.125 -15.394531 9.046875 -15.210938 8.953125 -15.046875 C 8.953125 -15.046875 8.957031 -15.019531 8.96875 -14.96875 C 8.988281 -14.925781 9 -14.882812 9 -14.84375 C 9.03125 -14.84375 9.0625 -14.851562 9.09375 -14.875 C 9.132812 -14.894531 9.171875 -14.90625 9.203125 -14.90625 C 9.265625 -15 9.328125 -15.078125 9.390625 -15.140625 C 9.460938 -15.210938 9.5 -15.300781 9.5 -15.40625 C 9.5 -15.570312 9.566406 -15.71875 9.703125 -15.84375 C 9.835938 -15.976562 9.9375 -16.113281 10 -16.25 C 10.0625 -16.382812 10.09375 -16.539062 10.09375 -16.71875 C 10.09375 -16.90625 10.144531 -17.066406 10.25 -17.203125 C 10.351562 -17.367188 10.535156 -17.535156 10.796875 -17.703125 C 10.929688 -17.765625 11 -17.894531 11 -18.09375 C 11.03125 -18.164062 11.03125 -18.234375 11 -18.296875 C 10.96875 -18.367188 10.9375 -18.421875 10.90625 -18.453125 C 10.96875 -18.484375 11.03125 -18.5 11.09375 -18.5 C 11.164062 -18.5 11.21875 -18.53125 11.25 -18.59375 C 11.3125 -18.863281 11.425781 -19.113281 11.59375 -19.34375 C 11.632812 -19.414062 11.65625 -19.519531 11.65625 -19.65625 C 11.65625 -19.6875 11.644531 -19.71875 11.625 -19.75 C 11.601562 -19.78125 11.59375 -19.8125 11.59375 -19.84375 L 11.5 -19.796875 C 11.195312 -19.429688 11 -18.984375 10.90625 -18.453125 C 10.769531 -18.421875 10.648438 -18.34375 10.546875 -18.21875 C 10.453125 -18.101562 10.367188 -18 10.296875 -17.90625 Z M 6.546875 -13.15625 C 6.847656 -13.15625 6.96875 -13.238281 6.90625 -13.40625 C 6.90625 -13.46875 6.867188 -13.5 6.796875 -13.5 C 6.765625 -13.5 6.734375 -13.484375 6.703125 -13.453125 C 6.671875 -13.421875 6.617188 -13.382812 6.546875 -13.34375 C 6.242188 -13.3125 5.953125 -13.257812 5.671875 -13.1875 C 5.390625 -13.125 5.097656 -13.09375 4.796875 -13.09375 C 4.535156 -13.09375 4.335938 -13.046875 4.203125 -12.953125 L 4.203125 -12.796875 C 4.265625 -12.765625 4.34375 -12.75 4.4375 -12.75 C 4.539062 -12.75 4.628906 -12.75 4.703125 -12.75 C 4.734375 -12.75 4.753906 -12.75 4.765625 -12.75 C 4.785156 -12.75 4.8125 -12.75 4.84375 -12.75 C 5.144531 -12.75 5.425781 -12.796875 5.6875 -12.890625 C 5.957031 -12.992188 6.242188 -13.082031 6.546875 -13.15625 Z M 13.953125 -16.59375 C 13.484375 -16.363281 13.023438 -16.140625 12.578125 -15.921875 C 12.128906 -15.703125 11.671875 -15.492188 11.203125 -15.296875 C 11.203125 -15.296875 11.191406 -15.28125 11.171875 -15.25 C 11.160156 -15.21875 11.15625 -15.1875 11.15625 -15.15625 C 11.1875 -15.050781 11.25 -15.050781 11.34375 -15.15625 C 11.550781 -15.21875 11.753906 -15.296875 11.953125 -15.390625 C 12.148438 -15.492188 12.347656 -15.582031 12.546875 -15.65625 C 12.785156 -15.75 12.992188 -15.851562 13.171875 -15.96875 C 13.359375 -16.09375 13.550781 -16.203125 13.75 -16.296875 C 13.8125 -16.328125 13.878906 -16.425781 13.953125 -16.59375 Z M 19.75 -20.65625 C 19.851562 -20.550781 19.851562 -20.445312 19.75 -20.34375 C 19.644531 -20.21875 19.519531 -20.113281 19.375 -20.03125 C 19.226562 -19.945312 19.117188 -19.820312 19.046875 -19.65625 C 18.984375 -19.550781 18.882812 -19.5 18.75 -19.5 C 18.71875 -19.5 18.679688 -19.5 18.640625 -19.5 C 18.609375 -19.5 18.5625 -19.5 18.5 -19.5 C 18.863281 -20 19.28125 -20.382812 19.75 -20.65625 Z M 6.953125 -12.90625 C 6.878906 -12.832031 6.894531 -12.78125 7 -12.75 C 7.03125 -12.75 7.050781 -12.75 7.0625 -12.75 C 7.082031 -12.75 7.113281 -12.75 7.15625 -12.75 C 7.28125 -12.75 7.394531 -12.800781 7.5 -12.90625 L 7.5 -13.046875 C 7.46875 -13.078125 7.398438 -13.09375 7.296875 -13.09375 C 7.097656 -13.09375 6.984375 -13.03125 6.953125 -12.90625 Z M 7.296875 -13.703125 C 7.296875 -13.628906 7.332031 -13.578125 7.40625 -13.546875 C 7.570312 -13.546875 7.71875 -13.597656 7.84375 -13.703125 L 7.84375 -13.84375 L 7.796875 -13.90625 C 7.734375 -13.863281 7.648438 -13.828125 7.546875 -13.796875 C 7.453125 -13.765625 7.367188 -13.734375 7.296875 -13.703125 Z M 21.34375 -22.40625 C 21.382812 -22.4375 21.4375 -22.453125 21.5 -22.453125 C 21.5 -22.421875 21.503906 -22.382812 21.515625 -22.34375 C 21.535156 -22.3125 21.546875 -22.296875 21.546875 -22.296875 C 21.515625 -22.234375 21.460938 -22.160156 21.390625 -22.078125 C 21.328125 -21.992188 21.265625 -21.953125 21.203125 -21.953125 C 21.203125 -22.179688 21.25 -22.332031 21.34375 -22.40625 Z M 8.34375 -30.15625 L 8.75 -30.15625 C 8.644531 -30.019531 8.578125 -29.953125 8.546875 -29.953125 C 8.515625 -29.953125 8.445312 -30.019531 8.34375 -30.15625 Z M 14 -16.65625 C 14.03125 -16.65625 14.050781 -16.65625 14.0625 -16.65625 C 14.082031 -16.65625 14.113281 -16.65625 14.15625 -16.65625 C 14.25 -16.65625 14.3125 -16.703125 14.34375 -16.796875 C 14.3125 -16.796875 14.285156 -16.796875 14.265625 -16.796875 C 14.253906 -16.796875 14.234375 -16.796875 14.203125 -16.796875 C 14.097656 -16.796875 14.03125 -16.75 14 -16.65625 Z M 17.046875 -18.34375 C 17.015625 -18.382812 16.984375 -18.410156 16.953125 -18.421875 C 16.921875 -18.441406 16.90625 -18.453125 16.90625 -18.453125 C 16.863281 -18.421875 16.832031 -18.394531 16.8125 -18.375 C 16.800781 -18.351562 16.78125 -18.328125 16.75 -18.296875 L 16.953125 -18.296875 C 16.984375 -18.296875 17 -18.300781 17 -18.3125 C 17 -18.332031 17.015625 -18.34375 17.046875 -18.34375 Z M 20.40625 -21.09375 C 20.40625 -21.03125 20.351562 -20.96875 20.25 -20.90625 C 20.25 -21.03125 20.300781 -21.09375 20.40625 -21.09375 Z M 21.203125 -21.90625 C 21.171875 -21.800781 21.101562 -21.75 21 -21.75 C 21 -21.851562 21.066406 -21.90625 21.203125 -21.90625 Z M 16.953125 -17.5 C 16.984375 -17.5 17 -17.503906 17 -17.515625 C 17 -17.535156 17.015625 -17.546875 17.046875 -17.546875 C 17.015625 -17.546875 16.984375 -17.550781 16.953125 -17.5625 C 16.921875 -17.582031 16.90625 -17.59375 16.90625 -17.59375 C 16.832031 -17.53125 16.765625 -17.484375 16.703125 -17.453125 C 16.765625 -17.453125 16.8125 -17.457031 16.84375 -17.46875 C 16.882812 -17.488281 16.921875 -17.5 16.953125 -17.5 Z M 6.546875 -12.703125 L 6.5 -12.59375 L 6.546875 -12.546875 Z M 11.59375 -17.796875 L 11.546875 -17.703125 L 11.59375 -17.703125 Z M 7.296875 -8.796875 L 7.296875 -8.75 L 7.34375 -8.65625 Z M 15.25 -17.25 L 15.296875 -17.296875 L 15.25 -17.296875 Z M 22.34375 -23.40625 C 22.34375 -23.363281 22.328125 -23.34375 22.296875 -23.34375 C 22.296875 -23.34375 22.300781 -23.351562 22.3125 -23.375 C 22.332031 -23.394531 22.34375 -23.40625 22.34375 -23.40625 Z M 14.796875 -17.09375 L 14.84375 -17.09375 L 14.84375 -17.15625 Z M 10.59375 -16.15625 L 10.546875 -16.09375 L 10.59375 -16.09375 Z M 8.65625 -11.546875 L 8.65625 -11.59375 L 8.59375 -11.59375 Z M 24 -23.296875 L 24.046875 -23.25 L 24.046875 -23.296875 Z M 23.40625 -22.5 L 23.34375 -22.453125 L 23.40625 -22.453125 Z M 5.703125 -12.40625 L 5.75 -12.34375 L 5.75 -12.40625 Z M 20.25 -20.90625 L 20.203125 -20.90625 C 20.203125 -20.90625 20.21875 -20.90625 20.25 -20.90625 Z M 20.546875 -19.40625 L 20.453125 -19.40625 Z M 22.65625 6.703125 L 22.65625 6.59375 Z M 6.15625 -5.65625 L 6.046875 -5.65625 Z M 6.15625 -5.65625 "/></g></g></g><g fill="#ffe047" fill-opacity="1"><g transform="translate(102.238277, 212.184228)"><g><path d="M 61.625 0 L 5.890625 0 L 5.890625 -1.921875 C 5.890625 -1.835938 7.007812 -1.796875 9.25 -1.796875 C 13.175781 -1.796875 15.335938 -2.757812 15.734375 -4.6875 C 16.453125 -9.007812 16.8125 -24.460938 16.8125 -51.046875 C 16.8125 -62.742188 16.65625 -69.148438 16.34375 -70.265625 C 16.175781 -71.148438 14.648438 -71.910156 11.765625 -72.546875 L 7.453125 -73.390625 L 7.453125 -75.546875 C 15.941406 -75.304688 25.410156 -75.1875 35.859375 -75.1875 C 46.304688 -75.1875 54.8125 -75.304688 61.375 -75.546875 L 61.734375 -58.140625 L 59.453125 -58.140625 C 59.054688 -60.140625 58.457031 -62.078125 57.65625 -63.953125 C 56.851562 -65.835938 55.488281 -67.722656 53.5625 -69.609375 C 51.644531 -71.492188 49.445312 -72.4375 46.96875 -72.4375 L 28.109375 -72.4375 L 28.109375 -39.765625 L 45.890625 -39.765625 C 49.566406 -39.765625 51.566406 -42.925781 51.890625 -49.25 L 54.78125 -49.25 L 54.78125 -27.625 L 52.375 -27.625 C 51.96875 -33.875 49.6875 -37 45.53125 -37 L 28.109375 -37 L 28.109375 -8.28125 C 28.109375 -4.4375 29.507812 -2.476562 32.3125 -2.40625 L 50.453125 -2.40625 C 52.535156 -2.476562 54.554688 -4.253906 56.515625 -7.734375 C 58.472656 -11.222656 59.65625 -14.734375 60.0625 -18.265625 L 62.703125 -18.265625 Z M 61.625 0 "/></g></g></g><g fill="#ffffff" fill-opacity="1"><g transform="translate(172.261721, 172.775629)"><g><path d="M 10.796875 -16.296875 C 10.765625 -16.265625 10.734375 -16.25 10.703125 -16.25 C 10.671875 -16.25 10.671875 -16.21875 10.703125 -16.15625 C 10.734375 -16.1875 10.75 -16.207031 10.75 -16.21875 C 10.75 -16.238281 10.765625 -16.265625 10.796875 -16.296875 C 10.960938 -16.367188 11.09375 -16.460938 11.1875 -16.578125 C 11.289062 -16.691406 11.378906 -16.816406 11.453125 -16.953125 C 11.515625 -17.085938 11.601562 -17.171875 11.71875 -17.203125 C 11.84375 -17.234375 11.96875 -17.300781 12.09375 -17.40625 C 12.09375 -17.164062 12.050781 -16.96875 11.96875 -16.8125 C 11.882812 -16.664062 11.8125 -16.507812 11.75 -16.34375 C 11.71875 -16.25 11.648438 -16.148438 11.546875 -16.046875 C 11.453125 -15.953125 11.40625 -15.820312 11.40625 -15.65625 C 11.40625 -15.550781 11.300781 -15.429688 11.09375 -15.296875 C 10.894531 -15.234375 10.796875 -15.148438 10.796875 -15.046875 C 10.828125 -14.785156 10.757812 -14.546875 10.59375 -14.328125 C 10.425781 -14.109375 10.328125 -13.882812 10.296875 -13.65625 C 10.035156 -13.28125 9.820312 -12.863281 9.65625 -12.40625 C 9.519531 -11.96875 9.34375 -11.546875 9.125 -11.140625 C 8.90625 -10.742188 8.664062 -10.363281 8.40625 -10 C 8.269531 -9.769531 8.132812 -9.53125 8 -9.28125 C 7.863281 -9.03125 7.765625 -8.753906 7.703125 -8.453125 C 7.628906 -8.210938 7.546875 -8.03125 7.453125 -7.90625 C 7.421875 -7.800781 7.335938 -7.75 7.203125 -7.75 C 7.171875 -7.75 7.132812 -7.753906 7.09375 -7.765625 C 7.0625 -7.785156 7.03125 -7.796875 7 -7.796875 C 7 -7.429688 6.929688 -7.082031 6.796875 -6.75 C 6.660156 -6.414062 6.476562 -6.097656 6.25 -5.796875 C 6.113281 -5.660156 6.007812 -5.484375 5.9375 -5.265625 C 5.875 -5.054688 5.757812 -4.867188 5.59375 -4.703125 C 5.53125 -4.597656 5.484375 -4.453125 5.453125 -4.265625 C 5.421875 -4.085938 5.285156 -4.015625 5.046875 -4.046875 C 5.046875 -4.046875 5.035156 -4.03125 5.015625 -4 C 5.003906 -3.96875 5.015625 -3.9375 5.046875 -3.90625 C 5.117188 -3.695312 5.117188 -3.523438 5.046875 -3.390625 C 4.984375 -3.265625 4.914062 -3.117188 4.84375 -2.953125 C 4.8125 -2.816406 4.757812 -2.691406 4.6875 -2.578125 C 4.625 -2.460938 4.546875 -2.367188 4.453125 -2.296875 C 4.316406 -2.160156 4.210938 -2 4.140625 -1.8125 C 4.078125 -1.632812 4.015625 -1.460938 3.953125 -1.296875 C 3.710938 -1.035156 3.578125 -0.738281 3.546875 -0.40625 C 3.515625 -0.164062 3.375 0.179688 3.125 0.640625 C 2.875 1.109375 2.609375 1.566406 2.328125 2.015625 C 2.046875 2.472656 1.820312 2.800781 1.65625 3 C 1.613281 3.03125 1.59375 3.078125 1.59375 3.140625 C 1.59375 3.210938 1.5625 3.265625 1.5 3.296875 C 1.4375 3.328125 1.363281 3.375 1.28125 3.4375 C 1.195312 3.507812 1.117188 3.546875 1.046875 3.546875 C 1.015625 3.546875 0.984375 3.535156 0.953125 3.515625 C 0.921875 3.503906 0.882812 3.5 0.84375 3.5 C 0.71875 3.4375 0.601562 3.382812 0.5 3.34375 C 0.394531 3.3125 0.328125 3.195312 0.296875 3 C 0.296875 2.894531 0.25 2.84375 0.15625 2.84375 C 0.113281 2.84375 0.0625 2.859375 0 2.890625 C -0.0625 2.929688 -0.128906 2.9375 -0.203125 2.90625 C -0.335938 2.632812 -0.335938 2.316406 -0.203125 1.953125 C -0.0976562 1.546875 0.0078125 1.144531 0.125 0.75 C 0.238281 0.351562 0.332031 -0.0625 0.40625 -0.5 C 0.570312 -1.332031 0.785156 -2.125 1.046875 -2.875 C 1.316406 -3.625 1.550781 -4.398438 1.75 -5.203125 C 2.019531 -6.097656 2.3125 -6.976562 2.625 -7.84375 C 2.9375 -8.71875 3.257812 -9.570312 3.59375 -10.40625 C 3.726562 -10.769531 3.84375 -11.140625 3.9375 -11.515625 C 4.039062 -11.898438 4.160156 -12.28125 4.296875 -12.65625 C 4.535156 -13.1875 4.742188 -13.707031 4.921875 -14.21875 C 5.109375 -14.738281 5.300781 -15.265625 5.5 -15.796875 C 5.695312 -16.328125 5.894531 -16.867188 6.09375 -17.421875 C 6.300781 -17.972656 6.519531 -18.53125 6.75 -19.09375 C 6.882812 -19.46875 7.015625 -19.820312 7.140625 -20.15625 C 7.273438 -20.488281 7.410156 -20.835938 7.546875 -21.203125 C 7.742188 -21.765625 7.9375 -22.335938 8.125 -22.921875 C 8.3125 -23.503906 8.519531 -24.0625 8.75 -24.59375 C 8.945312 -25.132812 9.117188 -25.671875 9.265625 -26.203125 C 9.421875 -26.734375 9.597656 -27.25 9.796875 -27.75 C 9.796875 -28.019531 9.851562 -28.269531 9.96875 -28.5 C 10.09375 -28.726562 10.171875 -28.960938 10.203125 -29.203125 C 10.265625 -29.460938 10.328125 -29.71875 10.390625 -29.96875 C 10.460938 -30.21875 10.515625 -30.460938 10.546875 -30.703125 C 10.617188 -30.929688 10.703125 -31.082031 10.796875 -31.15625 C 10.960938 -31.21875 11.09375 -31.253906 11.1875 -31.265625 C 11.289062 -31.285156 11.425781 -31.296875 11.59375 -31.296875 C 11.894531 -31.234375 12.15625 -31.097656 12.375 -30.890625 C 12.59375 -30.691406 12.769531 -30.460938 12.90625 -30.203125 C 13.070312 -29.867188 13.070312 -29.535156 12.90625 -29.203125 C 12.738281 -28.765625 12.59375 -28.320312 12.46875 -27.875 C 12.351562 -27.425781 12.210938 -26.96875 12.046875 -26.5 C 11.910156 -26.101562 11.773438 -25.695312 11.640625 -25.28125 C 11.515625 -24.863281 11.332031 -24.4375 11.09375 -24 C 11.0625 -23.695312 10.96875 -23.40625 10.8125 -23.125 C 10.664062 -22.84375 10.53125 -22.550781 10.40625 -22.25 C 10.269531 -22.050781 10.21875 -21.851562 10.25 -21.65625 C 10.25 -21.414062 10.179688 -21.226562 10.046875 -21.09375 C 9.878906 -20.894531 9.769531 -20.671875 9.71875 -20.421875 C 9.675781 -20.171875 9.601562 -19.945312 9.5 -19.75 C 9.46875 -19.644531 9.441406 -19.535156 9.421875 -19.421875 C 9.410156 -19.304688 9.367188 -19.21875 9.296875 -19.15625 C 9.128906 -18.820312 8.960938 -18.492188 8.796875 -18.171875 C 8.628906 -17.859375 8.53125 -17.5 8.5 -17.09375 C 8.332031 -16.832031 8.210938 -16.535156 8.140625 -16.203125 C 8.078125 -15.867188 7.945312 -15.566406 7.75 -15.296875 C 7.6875 -15.234375 7.632812 -15.140625 7.59375 -15.015625 C 7.5625 -14.898438 7.53125 -14.796875 7.5 -14.703125 C 7.46875 -14.597656 7.429688 -14.476562 7.390625 -14.34375 C 7.359375 -14.21875 7.3125 -14.117188 7.25 -14.046875 C 7.050781 -13.847656 6.953125 -13.550781 6.953125 -13.15625 C 6.984375 -12.914062 6.914062 -12.679688 6.75 -12.453125 C 6.582031 -12.210938 6.429688 -11.96875 6.296875 -11.71875 C 6.160156 -11.46875 6.09375 -11.195312 6.09375 -10.90625 C 6.132812 -10.570312 6.003906 -10.269531 5.703125 -10 C 5.503906 -9.894531 5.382812 -9.710938 5.34375 -9.453125 C 5.28125 -8.785156 5.113281 -8.164062 4.84375 -7.59375 C 4.78125 -7.46875 4.707031 -7.328125 4.625 -7.171875 C 4.539062 -7.023438 4.46875 -6.867188 4.40625 -6.703125 C 4.269531 -6.367188 4.21875 -6 4.25 -5.59375 C 4.050781 -5.46875 3.941406 -5.367188 3.921875 -5.296875 C 3.910156 -5.234375 3.921875 -5.101562 3.953125 -4.90625 C 4.015625 -5 4.078125 -5.101562 4.140625 -5.21875 C 4.210938 -5.34375 4.234375 -5.46875 4.203125 -5.59375 C 4.335938 -5.632812 4.425781 -5.695312 4.46875 -5.78125 C 4.519531 -5.863281 4.5625 -5.953125 4.59375 -6.046875 C 4.96875 -6.648438 5.3125 -7.285156 5.625 -7.953125 C 5.9375 -8.617188 6.257812 -9.269531 6.59375 -9.90625 C 6.832031 -10.363281 7.078125 -10.828125 7.328125 -11.296875 C 7.578125 -11.765625 7.816406 -12.21875 8.046875 -12.65625 C 8.046875 -12.71875 8.082031 -12.816406 8.15625 -12.953125 C 8.445312 -13.515625 8.742188 -14.101562 9.046875 -14.71875 C 9.347656 -15.34375 9.648438 -15.953125 9.953125 -16.546875 C 10.148438 -16.878906 10.347656 -17.21875 10.546875 -17.5625 C 10.742188 -17.914062 10.960938 -18.257812 11.203125 -18.59375 C 11.234375 -18.632812 11.273438 -18.671875 11.328125 -18.703125 C 11.378906 -18.734375 11.421875 -18.765625 11.453125 -18.796875 L 11.40625 -18.796875 C 11.4375 -18.660156 11.453125 -18.507812 11.453125 -18.34375 C 11.421875 -18.3125 11.382812 -18.285156 11.34375 -18.265625 C 11.3125 -18.253906 11.28125 -18.234375 11.25 -18.203125 C 11.25 -18.128906 11.300781 -18.09375 11.40625 -18.09375 C 11.40625 -18.164062 11.40625 -18.222656 11.40625 -18.265625 C 11.40625 -18.316406 11.40625 -18.363281 11.40625 -18.40625 C 11.601562 -18.46875 11.734375 -18.515625 11.796875 -18.546875 C 11.796875 -18.078125 11.613281 -17.742188 11.25 -17.546875 C 11.1875 -17.648438 11.117188 -17.648438 11.046875 -17.546875 C 10.742188 -17.453125 10.59375 -17.238281 10.59375 -16.90625 C 10.5 -16.863281 10.453125 -16.8125 10.453125 -16.75 C 10.453125 -16.6875 10.453125 -16.617188 10.453125 -16.546875 C 10.421875 -16.515625 10.382812 -16.5 10.34375 -16.5 C 10.3125 -16.5 10.3125 -16.445312 10.34375 -16.34375 C 10.34375 -16.382812 10.351562 -16.421875 10.375 -16.453125 C 10.394531 -16.484375 10.40625 -16.515625 10.40625 -16.546875 C 10.53125 -16.578125 10.59375 -16.710938 10.59375 -16.953125 C 10.632812 -16.953125 10.671875 -16.941406 10.703125 -16.921875 C 10.734375 -16.910156 10.765625 -16.90625 10.796875 -16.90625 C 10.796875 -16.832031 10.796875 -16.742188 10.796875 -16.640625 C 10.796875 -16.546875 10.796875 -16.429688 10.796875 -16.296875 Z M 8.5 -12.796875 C 8.394531 -12.796875 8.363281 -12.75 8.40625 -12.65625 C 8.46875 -12.78125 8.5 -12.84375 8.5 -12.84375 C 8.632812 -12.84375 8.648438 -12.878906 8.546875 -12.953125 C 8.546875 -12.878906 8.53125 -12.828125 8.5 -12.796875 Z M 4.203125 -3.546875 C 4.335938 -3.546875 4.40625 -3.613281 4.40625 -3.75 C 4.40625 -3.8125 4.351562 -3.84375 4.25 -3.84375 C 4.25 -3.8125 4.25 -3.757812 4.25 -3.6875 C 4.25 -3.625 4.25 -3.578125 4.25 -3.546875 C 4.21875 -3.515625 4.179688 -3.5 4.140625 -3.5 C 4.109375 -3.5 4.113281 -3.46875 4.15625 -3.40625 C 4.15625 -3.4375 4.160156 -3.457031 4.171875 -3.46875 C 4.191406 -3.488281 4.203125 -3.515625 4.203125 -3.546875 Z M 9.046875 -13.84375 C 9.179688 -13.882812 9.25 -14.035156 9.25 -14.296875 C 9.351562 -14.398438 9.40625 -14.453125 9.40625 -14.453125 C 9.46875 -14.453125 9.445312 -14.5 9.34375 -14.59375 C 9.34375 -14.5625 9.328125 -14.492188 9.296875 -14.390625 C 9.265625 -14.296875 9.25 -14.234375 9.25 -14.203125 C 9.144531 -14.171875 9.09375 -14.117188 9.09375 -14.046875 C 9.09375 -13.984375 9.09375 -13.914062 9.09375 -13.84375 C 9.0625 -13.8125 9.03125 -13.796875 9 -13.796875 C 8.96875 -13.796875 8.96875 -13.765625 9 -13.703125 C 9 -13.734375 9.003906 -13.753906 9.015625 -13.765625 C 9.035156 -13.785156 9.046875 -13.8125 9.046875 -13.84375 Z M 0.5 1.5 C 0.664062 1.300781 0.789062 1.066406 0.875 0.796875 C 0.957031 0.535156 1.03125 0.269531 1.09375 0 C 1.164062 -0.269531 1.21875 -0.546875 1.25 -0.828125 C 1.28125 -1.109375 1.394531 -1.363281 1.59375 -1.59375 C 1.632812 -1.632812 1.65625 -1.71875 1.65625 -1.84375 C 1.65625 -2.113281 1.695312 -2.335938 1.78125 -2.515625 C 1.863281 -2.703125 1.9375 -2.914062 2 -3.15625 C 2.03125 -3.28125 2.101562 -3.507812 2.21875 -3.84375 C 2.34375 -4.175781 2.460938 -4.507812 2.578125 -4.84375 C 2.691406 -5.175781 2.78125 -5.394531 2.84375 -5.5 C 2.945312 -5.726562 3.023438 -5.941406 3.078125 -6.140625 C 3.128906 -6.347656 3.171875 -6.566406 3.203125 -6.796875 C 3.335938 -7.203125 3.46875 -7.59375 3.59375 -7.96875 C 3.726562 -8.351562 3.832031 -8.765625 3.90625 -9.203125 C 3.96875 -9.460938 4.050781 -9.710938 4.15625 -9.953125 C 4.320312 -10.210938 4.53125 -10.664062 4.78125 -11.3125 C 5.03125 -11.96875 5.269531 -12.632812 5.5 -13.3125 C 5.726562 -14 5.894531 -14.492188 6 -14.796875 C 6.132812 -15.160156 6.285156 -15.523438 6.453125 -15.890625 C 6.617188 -16.265625 6.769531 -16.632812 6.90625 -17 C 7.070312 -17.4375 7.238281 -17.867188 7.40625 -18.296875 C 7.570312 -18.734375 7.6875 -19.203125 7.75 -19.703125 C 7.8125 -19.765625 7.84375 -19.8125 7.84375 -19.84375 C 8.007812 -20.25 8.160156 -20.648438 8.296875 -21.046875 C 8.429688 -21.453125 8.566406 -21.835938 8.703125 -22.203125 C 8.867188 -22.796875 9.039062 -23.375 9.21875 -23.9375 C 9.40625 -24.507812 9.597656 -25.097656 9.796875 -25.703125 C 9.867188 -25.835938 9.851562 -25.96875 9.75 -26.09375 C 9.613281 -25.894531 9.53125 -25.726562 9.5 -25.59375 C 9.300781 -24.757812 9.023438 -23.953125 8.671875 -23.171875 C 8.328125 -22.390625 8.019531 -21.582031 7.75 -20.75 C 7.71875 -20.550781 7.648438 -20.34375 7.546875 -20.125 C 7.453125 -19.90625 7.367188 -19.664062 7.296875 -19.40625 C 6.960938 -18.53125 6.613281 -17.644531 6.25 -16.75 C 5.882812 -15.851562 5.535156 -14.953125 5.203125 -14.046875 C 5.128906 -13.816406 5.035156 -13.59375 4.921875 -13.375 C 4.804688 -13.15625 4.71875 -12.914062 4.65625 -12.65625 C 4.519531 -12.082031 4.34375 -11.535156 4.125 -11.015625 C 3.90625 -10.503906 3.710938 -9.96875 3.546875 -9.40625 C 3.453125 -9 3.335938 -8.601562 3.203125 -8.21875 C 3.066406 -7.84375 2.929688 -7.46875 2.796875 -7.09375 C 2.460938 -6.195312 2.144531 -5.28125 1.84375 -4.34375 C 1.550781 -3.414062 1.300781 -2.46875 1.09375 -1.5 C 1 -1.132812 0.910156 -0.75 0.828125 -0.34375 C 0.742188 0.0507812 0.632812 0.445312 0.5 0.84375 C 0.46875 0.914062 0.441406 0.984375 0.421875 1.046875 C 0.410156 1.117188 0.382812 1.1875 0.34375 1.25 C 0.34375 1.351562 0.394531 1.4375 0.5 1.5 Z M 9.65625 -22.046875 C 9.65625 -22.285156 9.601562 -22.4375 9.5 -22.5 C 9.46875 -22.601562 9.414062 -22.65625 9.34375 -22.65625 C 9.25 -22.613281 9.164062 -22.492188 9.09375 -22.296875 C 9.09375 -22.203125 9.128906 -22.15625 9.203125 -22.15625 C 9.265625 -22.082031 9.363281 -22.015625 9.5 -21.953125 C 9.53125 -21.953125 9.550781 -21.96875 9.5625 -22 C 9.582031 -22.03125 9.613281 -22.046875 9.65625 -22.046875 Z M 7.65625 -17.5 C 7.613281 -17.332031 7.566406 -17.195312 7.515625 -17.09375 C 7.472656 -17 7.4375 -16.882812 7.40625 -16.75 C 7.363281 -16.644531 7.394531 -16.59375 7.5 -16.59375 C 7.632812 -16.5625 7.703125 -16.613281 7.703125 -16.75 C 7.765625 -16.976562 7.75 -17.226562 7.65625 -17.5 Z M 8 -10.25 C 7.9375 -10.21875 7.867188 -10.179688 7.796875 -10.140625 C 7.734375 -10.109375 7.664062 -10.078125 7.59375 -10.046875 C 7.59375 -9.953125 7.613281 -9.867188 7.65625 -9.796875 C 7.75 -9.765625 7.851562 -9.796875 7.96875 -9.890625 C 8.09375 -9.992188 8.132812 -10.097656 8.09375 -10.203125 C 8.0625 -10.203125 8.046875 -10.207031 8.046875 -10.21875 C 8.046875 -10.238281 8.03125 -10.25 8 -10.25 Z M 9.953125 -24 C 9.921875 -24.0625 9.882812 -24.09375 9.84375 -24.09375 C 9.8125 -24.09375 9.785156 -24.09375 9.765625 -24.09375 C 9.753906 -24.09375 9.75 -24.09375 9.75 -24.09375 C 9.75 -24.03125 9.71875 -23.929688 9.65625 -23.796875 C 9.65625 -23.765625 9.660156 -23.738281 9.671875 -23.71875 C 9.691406 -23.707031 9.703125 -23.664062 9.703125 -23.59375 C 9.734375 -23.632812 9.753906 -23.65625 9.765625 -23.65625 C 9.785156 -23.65625 9.8125 -23.671875 9.84375 -23.703125 C 9.882812 -23.765625 9.90625 -23.820312 9.90625 -23.875 C 9.90625 -23.925781 9.921875 -23.96875 9.953125 -24 Z M 9.046875 -20.15625 C 9.046875 -20.15625 9.015625 -20.21875 8.953125 -20.34375 C 8.953125 -20.34375 8.941406 -20.328125 8.921875 -20.296875 C 8.910156 -20.265625 8.90625 -20.25 8.90625 -20.25 C 8.863281 -20.21875 8.832031 -20.164062 8.8125 -20.09375 C 8.800781 -20.03125 8.78125 -19.96875 8.75 -19.90625 C 8.75 -19.90625 8.765625 -19.894531 8.796875 -19.875 C 8.828125 -19.851562 8.863281 -19.84375 8.90625 -19.84375 C 9 -19.882812 9.046875 -19.988281 9.046875 -20.15625 Z M 6.25 -13.796875 C 6.25 -13.703125 6.316406 -13.65625 6.453125 -13.65625 C 6.515625 -13.65625 6.550781 -13.660156 6.5625 -13.671875 C 6.582031 -13.691406 6.613281 -13.703125 6.65625 -13.703125 C 6.6875 -13.734375 6.703125 -13.753906 6.703125 -13.765625 C 6.703125 -13.785156 6.71875 -13.8125 6.75 -13.84375 C 6.75 -13.882812 6.738281 -13.910156 6.71875 -13.921875 C 6.707031 -13.941406 6.703125 -13.953125 6.703125 -13.953125 C 6.628906 -13.921875 6.550781 -13.894531 6.46875 -13.875 C 6.382812 -13.851562 6.3125 -13.828125 6.25 -13.796875 Z M 4.34375 -8.65625 C 4.28125 -8.519531 4.25 -8.46875 4.25 -8.5 C 4.25 -8.363281 4.316406 -8.3125 4.453125 -8.34375 C 4.453125 -8.34375 4.457031 -8.359375 4.46875 -8.390625 C 4.488281 -8.429688 4.5 -8.453125 4.5 -8.453125 C 4.4375 -8.515625 4.382812 -8.582031 4.34375 -8.65625 Z M 10 -14.65625 C 10 -14.6875 9.988281 -14.707031 9.96875 -14.71875 C 9.957031 -14.738281 9.953125 -14.765625 9.953125 -14.796875 C 9.953125 -14.765625 9.941406 -14.75 9.921875 -14.75 C 9.910156 -14.75 9.90625 -14.734375 9.90625 -14.703125 C 9.90625 -14.671875 9.90625 -14.644531 9.90625 -14.625 C 9.90625 -14.601562 9.90625 -14.578125 9.90625 -14.546875 C 9.96875 -14.617188 10 -14.65625 10 -14.65625 Z M 8.296875 -18.15625 C 8.234375 -18.21875 8.203125 -18.265625 8.203125 -18.296875 C 8.203125 -18.265625 8.191406 -18.25 8.171875 -18.25 C 8.160156 -18.25 8.15625 -18.234375 8.15625 -18.203125 C 8.15625 -18.128906 8.171875 -18.078125 8.203125 -18.046875 C 8.203125 -18.117188 8.234375 -18.15625 8.296875 -18.15625 Z M 2 -2 L 2 -1.953125 L 2.046875 -2 Z M 9.75 -15.15625 L 9.75 -15.25 Z M 9.90625 -15.59375 L 9.953125 -15.546875 L 9.953125 -15.59375 Z M 7.84375 -11.5 L 7.796875 -11.5 L 7.84375 -11.453125 Z M 5.65625 -11.453125 L 5.703125 -11.5 L 5.65625 -11.5 Z M 8 -11.90625 L 8 -11.84375 L 8.046875 -11.90625 Z M 8.953125 -12.75 L 8.953125 -12.65625 L 9 -12.75 Z M 10.09375 -16 L 10.15625 -16 L 10.09375 -16.046875 Z M 8 -11 L 8 -11.09375 Z M 7.59375 -11 L 7.703125 -11.046875 L 7.59375 -11.09375 Z M 5.65625 -6.34375 L 5.65625 -6.296875 L 5.703125 -6.34375 Z M 5.5 -6.953125 L 5.5 -7 L 5.453125 -6.953125 Z M 6.25 -7.59375 L 6.203125 -7.59375 L 6.25 -7.546875 Z M 6.5 -8 L 6.40625 -7.953125 L 6.5 -7.953125 Z M 6.90625 -8.59375 L 6.84375 -8.65625 L 6.84375 -8.59375 Z M 24.59375 -2.15625 C 24.695312 -1.6875 24.515625 -1.332031 24.046875 -1.09375 C 23.816406 -1 23.59375 -0.847656 23.375 -0.640625 C 23.15625 -0.441406 22.914062 -0.257812 22.65625 -0.09375 C 22.582031 -0.0625 22.53125 -0.015625 22.5 0.046875 C 22.46875 0.117188 22.414062 0.1875 22.34375 0.25 C 22.445312 0.351562 22.53125 0.421875 22.59375 0.453125 C 22.5 0.585938 22.390625 0.71875 22.265625 0.84375 C 22.148438 0.976562 22.007812 1.097656 21.84375 1.203125 C 21.71875 1.265625 21.585938 1.351562 21.453125 1.46875 C 21.316406 1.59375 21.164062 1.71875 21 1.84375 C 20.863281 1.945312 20.710938 2.03125 20.546875 2.09375 C 20.378906 2.164062 20.195312 2.203125 20 2.203125 C 19.96875 2.203125 19.914062 2.191406 19.84375 2.171875 C 19.78125 2.160156 19.734375 2.171875 19.703125 2.203125 C 19.535156 2.335938 19.367188 2.40625 19.203125 2.40625 C 18.898438 2.40625 18.429688 2.238281 17.796875 1.90625 C 17.160156 1.570312 16.742188 1.300781 16.546875 1.09375 C 16.378906 0.863281 16.210938 0.648438 16.046875 0.453125 C 15.878906 0.253906 15.726562 0.0195312 15.59375 -0.25 C 15.425781 -0.519531 15.296875 -0.785156 15.203125 -1.046875 C 15.171875 -1.148438 15.117188 -1.265625 15.046875 -1.390625 C 14.984375 -1.523438 14.96875 -1.660156 15 -1.796875 C 14.800781 -1.898438 14.691406 -2.054688 14.671875 -2.265625 C 14.660156 -2.484375 14.617188 -2.675781 14.546875 -2.84375 C 14.410156 -3.113281 14.332031 -3.515625 14.3125 -4.046875 C 14.300781 -4.578125 14.296875 -4.992188 14.296875 -5.296875 C 14.296875 -5.703125 14.296875 -6.101562 14.296875 -6.5 C 14.296875 -6.894531 14.296875 -7.3125 14.296875 -7.75 C 14.296875 -7.914062 14.296875 -8.097656 14.296875 -8.296875 C 14.296875 -8.492188 14.347656 -8.660156 14.453125 -8.796875 C 14.484375 -8.867188 14.5 -8.988281 14.5 -9.15625 C 14.5 -9.6875 14.570312 -10.191406 14.71875 -10.671875 C 14.875 -11.160156 15 -11.671875 15.09375 -12.203125 C 15.09375 -12.265625 15.160156 -12.332031 15.296875 -12.40625 L 15.25 -12.40625 C 15.28125 -12.238281 15.285156 -12.050781 15.265625 -11.84375 C 15.253906 -11.644531 15.21875 -11.460938 15.15625 -11.296875 C 15.082031 -11.097656 15.035156 -10.878906 15.015625 -10.640625 C 15.003906 -10.410156 14.96875 -10.195312 14.90625 -10 C 14.800781 -9.632812 14.738281 -9.242188 14.71875 -8.828125 C 14.707031 -8.410156 14.632812 -8.019531 14.5 -7.65625 C 14.5 -7.582031 14.5 -7.488281 14.5 -7.375 C 14.5 -7.257812 14.5 -7.164062 14.5 -7.09375 C 14.5 -6.695312 14.5 -6.289062 14.5 -5.875 C 14.5 -5.457031 14.5 -5.050781 14.5 -4.65625 C 14.5 -4.613281 14.503906 -4.539062 14.515625 -4.4375 C 14.535156 -4.34375 14.582031 -4.265625 14.65625 -4.203125 C 14.65625 -4.535156 14.695312 -4.84375 14.78125 -5.125 C 14.863281 -5.40625 14.882812 -5.679688 14.84375 -5.953125 C 14.8125 -6.421875 14.835938 -6.894531 14.921875 -7.375 C 15.003906 -7.851562 15.0625 -8.328125 15.09375 -8.796875 C 15.195312 -9.035156 15.253906 -9.28125 15.265625 -9.53125 C 15.285156 -9.78125 15.332031 -10.019531 15.40625 -10.25 C 15.46875 -10.519531 15.539062 -10.78125 15.625 -11.03125 C 15.707031 -11.28125 15.75 -11.519531 15.75 -11.75 C 15.71875 -11.914062 15.734375 -12.082031 15.796875 -12.25 C 15.867188 -12.414062 15.921875 -12.582031 15.953125 -12.75 C 16.046875 -13.050781 16.148438 -13.347656 16.265625 -13.640625 C 16.390625 -13.941406 16.46875 -14.257812 16.5 -14.59375 C 16.5 -14.757812 16.550781 -14.863281 16.65625 -14.90625 C 16.851562 -15.03125 17.015625 -15.367188 17.140625 -15.921875 C 17.273438 -16.472656 17.363281 -16.863281 17.40625 -17.09375 C 17.4375 -17.164062 17.523438 -17.375 17.671875 -17.71875 C 17.828125 -18.070312 17.9375 -18.265625 18 -18.296875 C 18.132812 -18.296875 18.164062 -18.363281 18.09375 -18.5 C 18.09375 -18.5625 18.082031 -18.617188 18.0625 -18.671875 C 18.050781 -18.722656 18.0625 -18.78125 18.09375 -18.84375 C 18.164062 -18.945312 18.179688 -19.046875 18.140625 -19.140625 C 18.109375 -19.242188 18.09375 -19.347656 18.09375 -19.453125 C 18.09375 -19.585938 18.144531 -19.695312 18.25 -19.78125 C 18.351562 -19.863281 18.4375 -19.953125 18.5 -20.046875 C 18.5 -20.046875 18.5 -20.0625 18.5 -20.09375 C 18.5 -20.132812 18.5 -20.171875 18.5 -20.203125 C 18.53125 -20.367188 18.550781 -20.523438 18.5625 -20.671875 C 18.582031 -20.828125 18.628906 -20.96875 18.703125 -21.09375 C 18.671875 -21.257812 18.6875 -21.410156 18.75 -21.546875 C 18.8125 -21.679688 18.863281 -21.816406 18.90625 -21.953125 C 19.132812 -22.453125 19.28125 -23.019531 19.34375 -23.65625 C 19.34375 -23.851562 19.378906 -24 19.453125 -24.09375 C 19.617188 -24.226562 19.707031 -24.378906 19.71875 -24.546875 C 19.738281 -24.710938 19.765625 -24.894531 19.796875 -25.09375 C 19.898438 -25.46875 20.007812 -25.851562 20.125 -26.25 C 20.238281 -26.644531 20.347656 -27.046875 20.453125 -27.453125 C 20.515625 -27.585938 20.546875 -27.71875 20.546875 -27.84375 C 20.546875 -27.976562 20.546875 -28.113281 20.546875 -28.25 C 20.679688 -28.25 20.695312 -28.28125 20.59375 -28.34375 C 20.59375 -28.28125 20.578125 -28.25 20.546875 -28.25 C 20.515625 -28.21875 20.484375 -28.191406 20.453125 -28.171875 C 20.421875 -28.160156 20.40625 -28.15625 20.40625 -28.15625 C 20.238281 -27.6875 20.085938 -27.203125 19.953125 -26.703125 C 19.816406 -26.203125 19.632812 -25.71875 19.40625 -25.25 C 19.269531 -24.582031 19.066406 -23.929688 18.796875 -23.296875 C 18.535156 -22.660156 18.320312 -22.007812 18.15625 -21.34375 C 18.15625 -21.21875 18.070312 -21.15625 17.90625 -21.15625 C 17.863281 -21.15625 17.84375 -21.1875 17.84375 -21.25 C 17.945312 -21.582031 18.046875 -21.914062 18.140625 -22.25 C 18.242188 -22.582031 18.347656 -22.914062 18.453125 -23.25 C 18.617188 -23.6875 18.765625 -24.113281 18.890625 -24.53125 C 19.023438 -24.945312 19.160156 -25.351562 19.296875 -25.75 C 19.492188 -26.3125 19.664062 -26.894531 19.8125 -27.5 C 19.96875 -28.101562 20.128906 -28.671875 20.296875 -29.203125 C 20.296875 -29.335938 20.28125 -29.421875 20.25 -29.453125 C 20.113281 -29.453125 20.03125 -29.4375 20 -29.40625 C 19.9375 -29.164062 19.820312 -29.003906 19.65625 -28.921875 C 19.488281 -28.835938 19.335938 -28.710938 19.203125 -28.546875 C 19.171875 -28.515625 19.132812 -28.5 19.09375 -28.5 C 19.0625 -28.5 19.03125 -28.503906 19 -28.515625 C 18.96875 -28.535156 18.914062 -28.546875 18.84375 -28.546875 C 18.84375 -28.546875 18.832031 -28.546875 18.8125 -28.546875 C 18.800781 -28.546875 18.78125 -28.53125 18.75 -28.5 C 18.613281 -28.363281 18.476562 -28.242188 18.34375 -28.140625 C 18.21875 -28.046875 18.117188 -27.898438 18.046875 -27.703125 C 18.015625 -27.597656 17.957031 -27.503906 17.875 -27.421875 C 17.789062 -27.335938 17.71875 -27.25 17.65625 -27.15625 C 17.351562 -26.78125 17.082031 -26.425781 16.84375 -26.09375 C 16.613281 -25.757812 16.398438 -25.378906 16.203125 -24.953125 C 16.066406 -24.648438 15.898438 -24.5 15.703125 -24.5 C 15.628906 -24.5 15.59375 -24.429688 15.59375 -24.296875 C 15.664062 -24.160156 15.6875 -24.0625 15.65625 -24 C 15.519531 -23.695312 15.367188 -23.394531 15.203125 -23.09375 C 15.035156 -22.800781 14.898438 -22.488281 14.796875 -22.15625 C 14.765625 -22.082031 14.695312 -22.019531 14.59375 -21.96875 C 14.5 -21.925781 14.46875 -21.835938 14.5 -21.703125 C 14.5 -21.503906 14.414062 -21.335938 14.25 -21.203125 C 14.21875 -21.171875 14.164062 -21.15625 14.09375 -21.15625 C 14.03125 -21.15625 13.960938 -21.160156 13.890625 -21.171875 C 13.828125 -21.191406 13.765625 -21.21875 13.703125 -21.25 C 13.703125 -21.28125 13.691406 -21.300781 13.671875 -21.3125 C 13.660156 -21.332031 13.65625 -21.363281 13.65625 -21.40625 C 13.582031 -21.332031 13.546875 -21.28125 13.546875 -21.25 C 13.515625 -21.25 13.484375 -21.25 13.453125 -21.25 C 13.421875 -21.25 13.382812 -21.25 13.34375 -21.25 C 13.34375 -21.3125 13.34375 -21.375 13.34375 -21.4375 C 13.34375 -21.507812 13.34375 -21.582031 13.34375 -21.65625 C 13.382812 -21.6875 13.425781 -21.703125 13.46875 -21.703125 C 13.519531 -21.703125 13.515625 -21.75 13.453125 -21.84375 C 13.378906 -21.71875 13.34375 -21.65625 13.34375 -21.65625 C 13.082031 -21.550781 12.953125 -21.332031 12.953125 -21 C 12.847656 -21 12.832031 -20.96875 12.90625 -20.90625 C 12.90625 -20.9375 12.910156 -20.953125 12.921875 -20.953125 C 12.941406 -20.953125 12.953125 -20.96875 12.953125 -21 C 13.085938 -21.132812 13.21875 -21.21875 13.34375 -21.25 C 13.382812 -21.21875 13.40625 -21.191406 13.40625 -21.171875 C 13.40625 -21.160156 13.421875 -21.132812 13.453125 -21.09375 C 13.453125 -21.132812 13.484375 -21.1875 13.546875 -21.25 C 13.578125 -21.25 13.609375 -21.25 13.640625 -21.25 C 13.679688 -21.25 13.71875 -21.25 13.75 -21.25 C 13.75 -21.1875 13.738281 -21.09375 13.71875 -20.96875 C 13.707031 -20.851562 13.75 -20.765625 13.84375 -20.703125 C 14.007812 -20.597656 14.046875 -20.476562 13.953125 -20.34375 C 13.921875 -20.21875 13.878906 -20.113281 13.828125 -20.03125 C 13.773438 -19.945312 13.679688 -19.867188 13.546875 -19.796875 C 13.484375 -19.929688 13.414062 -19.929688 13.34375 -19.796875 C 13.28125 -19.765625 13.210938 -19.738281 13.140625 -19.71875 C 13.078125 -19.707031 13.015625 -19.6875 12.953125 -19.65625 L 12.953125 -19.59375 C 12.953125 -19.664062 12.953125 -19.707031 12.953125 -19.71875 C 12.953125 -19.738281 12.953125 -19.765625 12.953125 -19.796875 C 12.953125 -19.828125 12.9375 -19.863281 12.90625 -19.90625 C 12.90625 -20 12.851562 -20 12.75 -19.90625 C 12.6875 -19.664062 12.578125 -19.476562 12.421875 -19.34375 C 12.273438 -19.21875 12.203125 -19.035156 12.203125 -18.796875 C 12.066406 -18.796875 12 -18.710938 12 -18.546875 C 11.96875 -18.546875 11.929688 -18.546875 11.890625 -18.546875 C 11.859375 -18.546875 11.828125 -18.546875 11.796875 -18.546875 C 11.796875 -18.617188 11.796875 -18.695312 11.796875 -18.78125 C 11.796875 -18.863281 11.796875 -18.9375 11.796875 -19 C 11.828125 -19.03125 11.867188 -19.046875 11.921875 -19.046875 C 11.972656 -19.046875 11.96875 -19.082031 11.90625 -19.15625 C 11.863281 -19.113281 11.84375 -19.082031 11.84375 -19.0625 C 11.84375 -19.050781 11.828125 -19.03125 11.796875 -19 C 11.734375 -18.9375 11.601562 -18.867188 11.40625 -18.796875 L 11.453125 -18.796875 C 11.421875 -18.898438 11.425781 -18.992188 11.46875 -19.078125 C 11.519531 -19.160156 11.5625 -19.25 11.59375 -19.34375 C 11.96875 -20.050781 12.46875 -20.960938 13.09375 -22.078125 C 13.726562 -23.191406 14.425781 -24.347656 15.1875 -25.546875 C 15.957031 -26.742188 16.734375 -27.84375 17.515625 -28.84375 C 18.304688 -29.84375 19.035156 -30.578125 19.703125 -31.046875 C 19.734375 -31.046875 19.78125 -31.082031 19.84375 -31.15625 C 20.113281 -31.519531 20.40625 -31.742188 20.71875 -31.828125 C 21.039062 -31.910156 21.414062 -31.953125 21.84375 -31.953125 C 22.144531 -31.878906 22.363281 -31.742188 22.5 -31.546875 C 22.769531 -31.210938 22.90625 -30.878906 22.90625 -30.546875 C 22.832031 -29.679688 22.6875 -28.820312 22.46875 -27.96875 C 22.257812 -27.125 21.988281 -26.285156 21.65625 -25.453125 C 21.613281 -25.347656 21.582031 -25.242188 21.5625 -25.140625 C 21.550781 -25.046875 21.53125 -24.96875 21.5 -24.90625 C 21.46875 -24.664062 21.425781 -24.445312 21.375 -24.25 C 21.320312 -24.050781 21.226562 -23.882812 21.09375 -23.75 C 21.03125 -23.6875 20.988281 -23.613281 20.96875 -23.53125 C 20.957031 -23.445312 20.9375 -23.351562 20.90625 -23.25 C 20.90625 -23.113281 20.882812 -23.015625 20.84375 -22.953125 C 20.71875 -22.679688 20.617188 -22.382812 20.546875 -22.0625 C 20.484375 -21.75 20.414062 -21.445312 20.34375 -21.15625 C 20.25 -20.820312 20.140625 -20.488281 20.015625 -20.15625 C 19.898438 -19.820312 19.796875 -19.46875 19.703125 -19.09375 C 19.566406 -19.0625 19.5 -18.992188 19.5 -18.890625 C 19.5 -18.796875 19.46875 -18.679688 19.40625 -18.546875 C 19.363281 -18.453125 19.328125 -18.351562 19.296875 -18.25 C 19.265625 -18.144531 19.21875 -18.03125 19.15625 -17.90625 C 19.113281 -17.800781 19.066406 -17.707031 19.015625 -17.625 C 18.972656 -17.539062 18.953125 -17.445312 18.953125 -17.34375 C 18.984375 -17.21875 18.972656 -17.113281 18.921875 -17.03125 C 18.867188 -16.945312 18.828125 -16.851562 18.796875 -16.75 C 18.734375 -16.613281 18.648438 -16.503906 18.546875 -16.421875 C 18.453125 -16.335938 18.367188 -16.3125 18.296875 -16.34375 C 18.160156 -16.507812 18.160156 -16.695312 18.296875 -16.90625 C 18.296875 -17 18.28125 -17.046875 18.25 -17.046875 C 18.144531 -17.148438 18.09375 -17.148438 18.09375 -17.046875 C 17.96875 -16.984375 17.90625 -16.914062 17.90625 -16.84375 C 17.832031 -16.644531 17.796875 -16.460938 17.796875 -16.296875 C 17.796875 -16.128906 17.8125 -15.929688 17.84375 -15.703125 C 17.945312 -15.796875 18.03125 -15.867188 18.09375 -15.921875 C 18.164062 -15.972656 18.234375 -16.015625 18.296875 -16.046875 C 18.398438 -15.953125 18.414062 -15.785156 18.34375 -15.546875 C 18.3125 -15.378906 18.269531 -15.195312 18.21875 -15 C 18.175781 -14.800781 18.085938 -14.617188 17.953125 -14.453125 C 17.847656 -14.421875 17.796875 -14.285156 17.796875 -14.046875 C 17.796875 -13.816406 17.785156 -13.578125 17.765625 -13.328125 C 17.753906 -13.078125 17.679688 -12.832031 17.546875 -12.59375 C 17.484375 -12.53125 17.453125 -12.398438 17.453125 -12.203125 C 17.453125 -11.898438 17.367188 -11.613281 17.203125 -11.34375 C 17.097656 -11.113281 17.03125 -10.859375 17 -10.578125 C 16.96875 -10.296875 16.867188 -10.035156 16.703125 -9.796875 C 16.671875 -9.765625 16.65625 -9.707031 16.65625 -9.625 C 16.65625 -9.539062 16.65625 -9.46875 16.65625 -9.40625 C 16.71875 -9.132812 16.707031 -8.863281 16.625 -8.59375 C 16.539062 -8.332031 16.53125 -8.066406 16.59375 -7.796875 C 16.59375 -7.765625 16.582031 -7.738281 16.5625 -7.71875 C 16.550781 -7.707031 16.546875 -7.6875 16.546875 -7.65625 C 16.410156 -7.414062 16.332031 -7.160156 16.3125 -6.890625 C 16.300781 -6.628906 16.296875 -6.382812 16.296875 -6.15625 C 16.296875 -5.988281 16.285156 -5.8125 16.265625 -5.625 C 16.253906 -5.4375 16.21875 -5.257812 16.15625 -5.09375 C 15.988281 -4.695312 15.988281 -4.316406 16.15625 -3.953125 C 16.21875 -3.785156 16.289062 -3.410156 16.375 -2.828125 C 16.457031 -2.242188 16.5 -1.867188 16.5 -1.703125 C 16.46875 -1.566406 16.519531 -1.414062 16.65625 -1.25 C 16.71875 -1.1875 16.773438 -1.113281 16.828125 -1.03125 C 16.878906 -0.945312 16.882812 -0.851562 16.84375 -0.75 C 16.8125 -0.582031 16.835938 -0.441406 16.921875 -0.328125 C 17.003906 -0.210938 17.046875 -0.0859375 17.046875 0.046875 C 17.046875 0.179688 17.082031 0.25 17.15625 0.25 C 17.351562 0.382812 17.523438 0.550781 17.671875 0.75 C 17.828125 0.945312 18.003906 1.113281 18.203125 1.25 C 18.296875 1.28125 18.410156 1.320312 18.546875 1.375 C 18.679688 1.425781 18.816406 1.453125 18.953125 1.453125 C 19.285156 1.453125 19.675781 1.34375 20.125 1.125 C 20.570312 0.90625 21.007812 0.65625 21.4375 0.375 C 21.875 0.09375 22.210938 -0.128906 22.453125 -0.296875 C 22.710938 -0.566406 22.984375 -0.828125 23.265625 -1.078125 C 23.554688 -1.328125 23.832031 -1.582031 24.09375 -1.84375 C 24.164062 -1.914062 24.234375 -1.992188 24.296875 -2.078125 C 24.367188 -2.160156 24.46875 -2.1875 24.59375 -2.15625 Z M 13.953125 -22.703125 C 13.921875 -22.671875 13.882812 -22.65625 13.84375 -22.65625 C 13.8125 -22.65625 13.8125 -22.601562 13.84375 -22.5 C 13.84375 -22.5625 13.851562 -22.601562 13.875 -22.625 C 13.894531 -22.644531 13.90625 -22.671875 13.90625 -22.703125 C 13.9375 -22.734375 13.972656 -22.75 14.015625 -22.75 C 14.066406 -22.75 14.0625 -22.78125 14 -22.84375 C 14 -22.8125 13.988281 -22.785156 13.96875 -22.765625 C 13.957031 -22.753906 13.953125 -22.734375 13.953125 -22.703125 Z M 16.09375 -26.15625 C 16.0625 -26.113281 16.03125 -26.09375 16 -26.09375 C 15.96875 -26.09375 15.96875 -26.0625 16 -26 C 16.03125 -26.03125 16.046875 -26.050781 16.046875 -26.0625 C 16.046875 -26.082031 16.0625 -26.113281 16.09375 -26.15625 C 16.09375 -26.1875 16.117188 -26.203125 16.171875 -26.203125 C 16.222656 -26.203125 16.21875 -26.234375 16.15625 -26.296875 C 16.15625 -26.265625 16.144531 -26.238281 16.125 -26.21875 C 16.101562 -26.207031 16.09375 -26.1875 16.09375 -26.15625 Z M 14.90625 -24.34375 C 14.863281 -24.3125 14.828125 -24.296875 14.796875 -24.296875 C 14.765625 -24.296875 14.765625 -24.265625 14.796875 -24.203125 C 14.828125 -24.234375 14.84375 -24.28125 14.84375 -24.34375 C 14.976562 -24.34375 15.046875 -24.410156 15.046875 -24.546875 C 15.117188 -24.578125 15.1875 -24.628906 15.25 -24.703125 C 15.25 -24.703125 15.238281 -24.722656 15.21875 -24.765625 C 15.207031 -24.816406 15.1875 -24.863281 15.15625 -24.90625 C 15.15625 -24.863281 15.144531 -24.84375 15.125 -24.84375 C 15.101562 -24.84375 15.09375 -24.8125 15.09375 -24.75 C 15.09375 -24.71875 15.09375 -24.679688 15.09375 -24.640625 C 15.09375 -24.609375 15.09375 -24.5625 15.09375 -24.5 C 14.96875 -24.5 14.90625 -24.445312 14.90625 -24.34375 Z M 16.84375 -13.203125 C 16.675781 -13.128906 16.628906 -13.007812 16.703125 -12.84375 C 16.703125 -12.8125 16.707031 -12.769531 16.71875 -12.71875 C 16.738281 -12.675781 16.75 -12.65625 16.75 -12.65625 C 16.882812 -12.65625 16.984375 -12.6875 17.046875 -12.75 C 17.078125 -12.8125 17.109375 -12.867188 17.140625 -12.921875 C 17.179688 -12.972656 17.203125 -13.015625 17.203125 -13.046875 C 17.265625 -13.210938 17.328125 -13.394531 17.390625 -13.59375 C 17.460938 -13.800781 17.515625 -13.988281 17.546875 -14.15625 C 17.410156 -14.21875 17.328125 -14.25 17.296875 -14.25 C 17.128906 -14.25 17.007812 -14.109375 16.9375 -13.828125 C 16.875 -13.546875 16.84375 -13.335938 16.84375 -13.203125 Z M 16.546875 -11.09375 C 16.648438 -11.257812 16.617188 -11.394531 16.453125 -11.5 C 16.378906 -11.53125 16.316406 -11.519531 16.265625 -11.46875 C 16.222656 -11.425781 16.1875 -11.382812 16.15625 -11.34375 C 16.082031 -11.28125 16.015625 -11.179688 15.953125 -11.046875 C 15.953125 -11.015625 15.953125 -10.988281 15.953125 -10.96875 C 15.953125 -10.957031 15.953125 -10.9375 15.953125 -10.90625 C 16.046875 -10.738281 16.210938 -10.6875 16.453125 -10.75 C 16.546875 -10.8125 16.582031 -10.867188 16.5625 -10.921875 C 16.550781 -10.972656 16.546875 -11.03125 16.546875 -11.09375 Z M 15.34375 -7.296875 C 15.445312 -7.628906 15.597656 -7.894531 15.796875 -8.09375 C 15.867188 -8.164062 15.851562 -8.25 15.75 -8.34375 C 15.71875 -8.382812 15.648438 -8.40625 15.546875 -8.40625 C 15.484375 -8.40625 15.4375 -8.367188 15.40625 -8.296875 C 15.332031 -8.234375 15.296875 -8.164062 15.296875 -8.09375 C 15.296875 -7.96875 15.285156 -7.84375 15.265625 -7.71875 C 15.253906 -7.601562 15.28125 -7.460938 15.34375 -7.296875 Z M 15.953125 -10.296875 C 15.921875 -10.160156 15.90625 -10.023438 15.90625 -9.890625 C 15.90625 -9.765625 15.90625 -9.617188 15.90625 -9.453125 C 15.9375 -9.453125 15.984375 -9.414062 16.046875 -9.34375 C 16.179688 -9.34375 16.25 -9.394531 16.25 -9.5 C 16.28125 -9.664062 16.257812 -9.804688 16.1875 -9.921875 C 16.125 -10.035156 16.046875 -10.160156 15.953125 -10.296875 Z M 15.203125 -5.75 C 15.128906 -5.6875 15.09375 -5.632812 15.09375 -5.59375 C 15.09375 -5.5 15.160156 -5.453125 15.296875 -5.453125 C 15.296875 -5.453125 15.300781 -5.46875 15.3125 -5.5 C 15.332031 -5.53125 15.34375 -5.546875 15.34375 -5.546875 C 15.3125 -5.578125 15.285156 -5.609375 15.265625 -5.640625 C 15.253906 -5.679688 15.234375 -5.71875 15.203125 -5.75 Z M 19.09375 -19.453125 C 19.09375 -19.453125 19.09375 -19.46875 19.09375 -19.5 C 19.09375 -19.53125 19.09375 -19.546875 19.09375 -19.546875 C 19 -19.453125 18.953125 -19.40625 18.953125 -19.40625 C 18.847656 -19.300781 18.847656 -19.234375 18.953125 -19.203125 C 18.953125 -19.203125 18.96875 -19.207031 19 -19.21875 C 19.03125 -19.238281 19.0625 -19.25 19.09375 -19.25 C 19.09375 -19.28125 19.09375 -19.3125 19.09375 -19.34375 C 19.09375 -19.382812 19.09375 -19.421875 19.09375 -19.453125 Z M 14.84375 -3.546875 C 14.84375 -3.710938 14.828125 -3.8125 14.796875 -3.84375 C 14.796875 -3.84375 14.78125 -3.832031 14.75 -3.8125 C 14.71875 -3.800781 14.703125 -3.796875 14.703125 -3.796875 C 14.703125 -3.765625 14.707031 -3.710938 14.71875 -3.640625 C 14.738281 -3.578125 14.75 -3.515625 14.75 -3.453125 C 14.78125 -3.484375 14.796875 -3.5 14.796875 -3.5 C 14.796875 -3.5 14.8125 -3.515625 14.84375 -3.546875 Z M 17.546875 -14.796875 C 17.453125 -14.765625 17.382812 -14.695312 17.34375 -14.59375 C 17.3125 -14.59375 17.300781 -14.578125 17.3125 -14.546875 C 17.332031 -14.515625 17.363281 -14.5 17.40625 -14.5 C 17.40625 -14.5 17.410156 -14.5 17.421875 -14.5 C 17.441406 -14.5 17.46875 -14.5 17.5 -14.5 C 17.5625 -14.5625 17.59375 -14.628906 17.59375 -14.703125 C 17.59375 -14.734375 17.582031 -14.75 17.5625 -14.75 C 17.550781 -14.75 17.546875 -14.765625 17.546875 -14.796875 Z M 15.34375 -3.84375 C 15.382812 -3.84375 15.410156 -3.832031 15.421875 -3.8125 C 15.441406 -3.800781 15.46875 -3.796875 15.5 -3.796875 C 15.5 -3.796875 15.515625 -3.800781 15.546875 -3.8125 C 15.578125 -3.832031 15.59375 -3.84375 15.59375 -3.84375 C 15.59375 -3.914062 15.546875 -3.953125 15.453125 -3.953125 C 15.453125 -3.953125 15.414062 -3.914062 15.34375 -3.84375 Z M 18.5 -17.65625 C 18.5 -17.6875 18.503906 -17.707031 18.515625 -17.71875 C 18.535156 -17.738281 18.546875 -17.765625 18.546875 -17.796875 C 18.453125 -17.796875 18.40625 -17.78125 18.40625 -17.75 C 18.40625 -17.6875 18.4375 -17.65625 18.5 -17.65625 Z M 18.59375 -18.296875 C 18.59375 -18.296875 18.601562 -18.285156 18.625 -18.265625 C 18.644531 -18.253906 18.65625 -18.25 18.65625 -18.25 C 18.71875 -18.25 18.75 -18.273438 18.75 -18.328125 C 18.75 -18.378906 18.734375 -18.421875 18.703125 -18.453125 C 18.628906 -18.378906 18.59375 -18.328125 18.59375 -18.296875 Z M 13.59375 -22.203125 L 13.65625 -22.15625 L 13.65625 -22.203125 Z M 20 -22.40625 L 20 -22.296875 Z M 15.796875 -25.65625 L 15.84375 -25.703125 L 15.796875 -25.703125 Z M 16.34375 -26.65625 L 16.40625 -26.703125 L 16.34375 -26.703125 Z M 14.203125 -23.15625 L 14.25 -23.15625 L 14.203125 -23.203125 Z M 14.59375 -23.796875 L 14.59375 -23.84375 L 14.546875 -23.796875 Z M 16.59375 -12.09375 L 16.546875 -12.15625 L 16.546875 -12.09375 Z M 15.40625 -4.5 L 15.34375 -4.546875 L 15.34375 -4.5 Z M 16.34375 -10.40625 L 16.40625 -10.40625 L 16.34375 -10.5 Z M 15.34375 -7 L 15.34375 -6.90625 L 15.40625 -7 Z M 17.453125 -19.59375 L 17.40625 -19.59375 C 17.4375 -19.257812 17.382812 -18.925781 17.25 -18.59375 C 17.019531 -17.96875 16.800781 -17.320312 16.59375 -16.65625 C 16.46875 -16.71875 16.4375 -16.863281 16.5 -17.09375 C 16.601562 -17.394531 16.695312 -17.703125 16.78125 -18.015625 C 16.863281 -18.335938 16.96875 -18.632812 17.09375 -18.90625 C 17.164062 -19.03125 17.207031 -19.160156 17.21875 -19.296875 C 17.238281 -19.429688 17.316406 -19.53125 17.453125 -19.59375 Z M 12.953125 -19.59375 L 12.953125 -19.65625 C 12.984375 -19.519531 13.03125 -19.429688 13.09375 -19.390625 C 13.164062 -19.359375 13.21875 -19.3125 13.25 -19.25 C 13.21875 -19.1875 13.175781 -19.113281 13.125 -19.03125 C 13.070312 -18.945312 13.015625 -18.867188 12.953125 -18.796875 C 12.921875 -18.660156 12.835938 -18.535156 12.703125 -18.421875 C 12.566406 -18.304688 12.429688 -18.25 12.296875 -18.25 C 12.265625 -18.25 12.164062 -18.347656 12 -18.546875 C 12.132812 -18.617188 12.203125 -18.703125 12.203125 -18.796875 C 12.566406 -18.796875 12.75 -18.960938 12.75 -19.296875 C 12.78125 -19.367188 12.800781 -19.4375 12.8125 -19.5 C 12.832031 -19.5625 12.878906 -19.59375 12.953125 -19.59375 Z M 15.25 -12.40625 L 15.296875 -12.40625 C 15.203125 -13.03125 15.367188 -13.695312 15.796875 -14.40625 C 15.828125 -14.363281 15.851562 -14.332031 15.875 -14.3125 C 15.894531 -14.300781 15.90625 -14.296875 15.90625 -14.296875 C 15.863281 -13.992188 15.800781 -13.691406 15.71875 -13.390625 C 15.632812 -13.097656 15.53125 -12.800781 15.40625 -12.5 C 15.40625 -12.46875 15.382812 -12.453125 15.34375 -12.453125 C 15.3125 -12.453125 15.28125 -12.4375 15.25 -12.40625 Z M 26.203125 -3.796875 L 26.15625 -3.796875 C 26.15625 -3.765625 26.160156 -3.710938 26.171875 -3.640625 C 26.191406 -3.578125 26.1875 -3.515625 26.15625 -3.453125 C 26.019531 -3.316406 25.882812 -3.164062 25.75 -3 C 25.613281 -2.832031 25.460938 -2.679688 25.296875 -2.546875 C 25.265625 -2.515625 25.222656 -2.503906 25.171875 -2.515625 C 25.117188 -2.535156 25.0625 -2.546875 25 -2.546875 C 25.164062 -2.816406 25.347656 -3.039062 25.546875 -3.21875 C 25.742188 -3.40625 25.960938 -3.597656 26.203125 -3.796875 Z M 17.40625 -19.59375 L 17.453125 -19.59375 C 17.421875 -19.757812 17.425781 -19.914062 17.46875 -20.0625 C 17.519531 -20.21875 17.597656 -20.378906 17.703125 -20.546875 C 17.765625 -20.515625 17.796875 -20.484375 17.796875 -20.453125 C 17.796875 -20.046875 17.664062 -19.757812 17.40625 -19.59375 Z M 16.453125 -16.15625 C 16.421875 -16.050781 16.378906 -15.957031 16.328125 -15.875 C 16.273438 -15.789062 16.195312 -15.71875 16.09375 -15.65625 C 16.0625 -15.851562 16.128906 -16.035156 16.296875 -16.203125 C 16.328125 -16.203125 16.378906 -16.1875 16.453125 -16.15625 Z M 11.25 -17.546875 C 11.25 -17.484375 11.238281 -17.398438 11.21875 -17.296875 C 11.207031 -17.203125 11.148438 -17.132812 11.046875 -17.09375 C 11.046875 -17.195312 11.046875 -17.28125 11.046875 -17.34375 C 11.046875 -17.414062 11.046875 -17.484375 11.046875 -17.546875 C 11.078125 -17.546875 11.109375 -17.546875 11.140625 -17.546875 C 11.179688 -17.546875 11.21875 -17.546875 11.25 -17.546875 Z M 16 -15.203125 C 16 -15.171875 16.003906 -15.15625 16.015625 -15.15625 C 16.035156 -15.15625 16.046875 -15.132812 16.046875 -15.09375 C 16.046875 -15.0625 16.035156 -15.03125 16.015625 -15 C 16.003906 -14.96875 16 -14.953125 16 -14.953125 C 15.96875 -14.953125 15.941406 -14.96875 15.921875 -15 C 15.910156 -15.03125 15.90625 -15.046875 15.90625 -15.046875 C 15.9375 -15.078125 15.953125 -15.101562 15.953125 -15.125 C 15.953125 -15.144531 15.96875 -15.171875 16 -15.203125 Z M 13.546875 -19.796875 C 13.484375 -19.734375 13.453125 -19.6875 13.453125 -19.65625 C 13.421875 -19.6875 13.40625 -19.707031 13.40625 -19.71875 C 13.40625 -19.738281 13.382812 -19.765625 13.34375 -19.796875 C 13.382812 -19.796875 13.421875 -19.796875 13.453125 -19.796875 C 13.484375 -19.796875 13.515625 -19.796875 13.546875 -19.796875 Z M 11.046875 -17.09375 C 10.953125 -17 10.867188 -16.953125 10.796875 -16.953125 L 10.796875 -16.90625 C 10.796875 -17.03125 10.878906 -17.09375 11.046875 -17.09375 Z M 12.296875 -17.59375 L 12.25 -17.65625 L 12.296875 -17.65625 Z M 24.59375 -2.15625 C 24.59375 -2.28125 24.675781 -2.34375 24.84375 -2.34375 L 24.796875 -2.34375 C 24.796875 -2.21875 24.726562 -2.15625 24.59375 -2.15625 Z M 25 -2.546875 C 25 -2.410156 24.929688 -2.34375 24.796875 -2.34375 L 24.84375 -2.34375 C 24.84375 -2.445312 24.894531 -2.515625 25 -2.546875 Z M 26.15625 -3.796875 L 26.203125 -3.796875 C 26.265625 -3.828125 26.285156 -3.832031 26.265625 -3.8125 C 26.253906 -3.800781 26.21875 -3.796875 26.15625 -3.796875 Z M 16.84375 -13.203125 C 16.882812 -13.203125 16.910156 -13.191406 16.921875 -13.171875 C 16.941406 -13.160156 16.96875 -13.15625 17 -13.15625 C 16.9375 -13.113281 16.90625 -13.109375 16.90625 -13.140625 C 16.90625 -13.179688 16.882812 -13.203125 16.84375 -13.203125 Z M 16.84375 -13.203125 "/></g></g></g><g fill="#ffffff" fill-opacity="1"><g transform="translate(197.657785, 172.775629)"><g><path d="M 27.453125 -34.703125 C 27.515625 -34.703125 27.570312 -34.679688 27.625 -34.640625 C 27.675781 -34.609375 27.71875 -34.59375 27.75 -34.59375 C 27.8125 -34.59375 27.863281 -34.644531 27.90625 -34.75 C 27.90625 -34.78125 27.953125 -34.75 28.046875 -34.65625 C 28.117188 -34.550781 28.1875 -34.5 28.25 -34.5 C 28.3125 -34.5 28.34375 -34.515625 28.34375 -34.546875 C 28.476562 -34.742188 28.582031 -34.84375 28.65625 -34.84375 C 28.65625 -34.84375 28.660156 -34.832031 28.671875 -34.8125 C 28.691406 -34.800781 28.71875 -34.796875 28.75 -34.796875 C 28.882812 -34.734375 29.101562 -34.703125 29.40625 -34.703125 C 29.570312 -34.703125 29.710938 -34.691406 29.828125 -34.671875 C 29.941406 -34.660156 30.066406 -34.617188 30.203125 -34.546875 C 30.265625 -34.515625 30.351562 -34.523438 30.46875 -34.578125 C 30.59375 -34.628906 30.703125 -34.671875 30.796875 -34.703125 C 30.992188 -34.703125 31.160156 -34.648438 31.296875 -34.546875 C 31.398438 -34.515625 31.492188 -34.472656 31.578125 -34.421875 C 31.660156 -34.367188 31.75 -34.34375 31.84375 -34.34375 C 31.945312 -34.34375 32.015625 -34.363281 32.046875 -34.40625 C 32.078125 -34.4375 32.128906 -34.453125 32.203125 -34.453125 C 32.265625 -34.453125 32.34375 -34.429688 32.4375 -34.390625 C 32.539062 -34.359375 32.628906 -34.34375 32.703125 -34.34375 C 32.796875 -34.34375 32.863281 -34.363281 32.90625 -34.40625 C 33.03125 -34.46875 33.128906 -34.5 33.203125 -34.5 C 33.296875 -34.5 33.410156 -34.46875 33.546875 -34.40625 C 33.617188 -34.40625 33.675781 -34.40625 33.71875 -34.40625 C 33.769531 -34.40625 33.8125 -34.40625 33.84375 -34.40625 C 33.976562 -34.40625 34.082031 -34.320312 34.15625 -34.15625 C 34.28125 -34.21875 34.378906 -34.25 34.453125 -34.25 C 34.546875 -34.25 34.632812 -34.234375 34.71875 -34.203125 C 34.800781 -34.171875 34.878906 -34.132812 34.953125 -34.09375 C 35.015625 -34.03125 35.09375 -34.003906 35.1875 -34.015625 C 35.289062 -34.035156 35.394531 -34 35.5 -33.90625 C 35.300781 -33.863281 35.097656 -33.832031 34.890625 -33.8125 C 34.691406 -33.800781 34.507812 -33.796875 34.34375 -33.796875 C 34.007812 -33.796875 33.703125 -33.820312 33.421875 -33.875 C 33.140625 -33.925781 32.847656 -33.984375 32.546875 -34.046875 L 25.5 -34.046875 C 25.226562 -34.046875 25.046875 -34 24.953125 -33.90625 C 24.816406 -33.863281 24.695312 -33.828125 24.59375 -33.796875 C 24.5 -33.765625 24.382812 -33.75 24.25 -33.75 C 24.113281 -33.75 24.015625 -33.765625 23.953125 -33.796875 C 23.847656 -33.867188 23.753906 -33.863281 23.671875 -33.78125 C 23.585938 -33.695312 23.5 -33.65625 23.40625 -33.65625 C 23.164062 -33.65625 22.925781 -33.632812 22.6875 -33.59375 C 22.457031 -33.5625 22.226562 -33.53125 22 -33.5 C 21.832031 -33.5 21.671875 -33.484375 21.515625 -33.453125 C 21.367188 -33.421875 21.210938 -33.40625 21.046875 -33.40625 C 20.984375 -33.40625 20.925781 -33.410156 20.875 -33.421875 C 20.820312 -33.441406 20.765625 -33.453125 20.703125 -33.453125 C 20.671875 -33.453125 20.628906 -33.453125 20.578125 -33.453125 C 20.523438 -33.453125 20.46875 -33.453125 20.40625 -33.453125 C 20.269531 -33.453125 20.140625 -33.441406 20.015625 -33.421875 C 19.898438 -33.410156 19.78125 -33.351562 19.65625 -33.25 C 19.613281 -33.21875 19.546875 -33.203125 19.453125 -33.203125 C 19.421875 -33.203125 19.382812 -33.203125 19.34375 -33.203125 C 19.3125 -33.203125 19.265625 -33.203125 19.203125 -33.203125 C 18.960938 -33.203125 18.703125 -33.164062 18.421875 -33.09375 C 18.140625 -33.03125 17.863281 -33 17.59375 -33 C 17.425781 -33 17.148438 -32.957031 16.765625 -32.875 C 16.390625 -32.789062 16.015625 -32.691406 15.640625 -32.578125 C 15.273438 -32.460938 15.007812 -32.351562 14.84375 -32.25 C 14.78125 -32.1875 14.710938 -32.117188 14.640625 -32.046875 C 14.578125 -31.984375 14.53125 -31.898438 14.5 -31.796875 C 14.46875 -31.628906 14.429688 -31.46875 14.390625 -31.3125 C 14.359375 -31.164062 14.34375 -31.007812 14.34375 -30.84375 C 14.382812 -30.644531 14.367188 -30.4375 14.296875 -30.21875 C 14.234375 -30.007812 14.1875 -29.785156 14.15625 -29.546875 C 14.019531 -28.816406 13.882812 -28.066406 13.75 -27.296875 C 13.613281 -26.535156 13.460938 -25.769531 13.296875 -25 C 13.160156 -24.394531 13.023438 -23.785156 12.890625 -23.171875 C 12.765625 -22.554688 12.664062 -21.929688 12.59375 -21.296875 C 12.59375 -21.097656 12.566406 -20.898438 12.515625 -20.703125 C 12.472656 -20.503906 12.414062 -20.320312 12.34375 -20.15625 C 12.3125 -19.914062 12.253906 -19.6875 12.171875 -19.46875 C 12.085938 -19.257812 12.03125 -19.035156 12 -18.796875 C 12 -18.566406 11.960938 -18.34375 11.890625 -18.125 C 11.828125 -17.90625 11.8125 -17.664062 11.84375 -17.40625 C 11.84375 -17.40625 11.84375 -17.394531 11.84375 -17.375 C 11.84375 -17.351562 11.828125 -17.328125 11.796875 -17.296875 C 11.597656 -16.796875 11.484375 -16.285156 11.453125 -15.765625 C 11.421875 -15.253906 11.320312 -14.75 11.15625 -14.25 C 10.988281 -13.71875 10.863281 -13.179688 10.78125 -12.640625 C 10.695312 -12.109375 10.601562 -11.578125 10.5 -11.046875 C 10.5 -10.878906 10.46875 -10.726562 10.40625 -10.59375 C 10.300781 -10.300781 10.234375 -10.003906 10.203125 -9.703125 C 10.171875 -9.398438 10.132812 -9.097656 10.09375 -8.796875 C 10.0625 -8.566406 10.019531 -8.332031 9.96875 -8.09375 C 9.925781 -7.863281 9.867188 -7.632812 9.796875 -7.40625 C 9.765625 -7.238281 9.722656 -7.070312 9.671875 -6.90625 C 9.617188 -6.738281 9.5625 -6.570312 9.5 -6.40625 C 9.46875 -6.269531 9.429688 -6.125 9.390625 -5.96875 C 9.359375 -5.820312 9.34375 -5.664062 9.34375 -5.5 L 9.34375 -5.203125 C 9.21875 -4.929688 9.128906 -4.65625 9.078125 -4.375 C 9.023438 -4.09375 8.984375 -3.800781 8.953125 -3.5 C 8.953125 -3.46875 8.890625 -3.222656 8.765625 -2.765625 C 8.648438 -2.316406 8.539062 -1.875 8.4375 -1.4375 C 8.34375 -1.007812 8.28125 -0.765625 8.25 -0.703125 C 8.21875 -0.503906 8.175781 -0.3125 8.125 -0.125 C 8.070312 0.0625 8.03125 0.269531 8 0.5 C 7.9375 0.9375 7.84375 1.363281 7.71875 1.78125 C 7.601562 2.195312 7.5 2.601562 7.40625 3 C 7.300781 3.300781 7.113281 3.453125 6.84375 3.453125 C 6.8125 3.453125 6.78125 3.441406 6.75 3.421875 C 6.71875 3.410156 6.6875 3.40625 6.65625 3.40625 C 6.519531 3.332031 6.367188 3.226562 6.203125 3.09375 C 5.898438 2.925781 5.734375 2.75 5.703125 2.5625 C 5.671875 2.382812 5.671875 2.164062 5.703125 1.90625 C 5.867188 1.195312 6.039062 0.488281 6.21875 -0.21875 C 6.40625 -0.9375 6.566406 -1.664062 6.703125 -2.40625 C 6.796875 -3 6.925781 -3.695312 7.09375 -4.5 C 7.257812 -5.300781 7.441406 -6.109375 7.640625 -6.921875 C 7.847656 -7.742188 8.035156 -8.4375 8.203125 -9 C 8.203125 -9.363281 8.25 -9.710938 8.34375 -10.046875 C 8.445312 -10.378906 8.515625 -10.710938 8.546875 -11.046875 C 8.617188 -11.515625 8.695312 -11.988281 8.78125 -12.46875 C 8.863281 -12.957031 8.9375 -13.414062 9 -13.84375 C 9.101562 -14.507812 9.21875 -15.175781 9.34375 -15.84375 C 9.476562 -16.507812 9.613281 -17.160156 9.75 -17.796875 C 9.882812 -17.992188 9.929688 -18.203125 9.890625 -18.421875 C 9.859375 -18.640625 9.910156 -18.847656 10.046875 -19.046875 C 10.078125 -19.515625 10.148438 -19.972656 10.265625 -20.421875 C 10.390625 -20.867188 10.46875 -21.3125 10.5 -21.75 C 10.5625 -22.1875 10.632812 -22.601562 10.71875 -23 C 10.800781 -23.394531 10.878906 -23.796875 10.953125 -24.203125 L 11.25 -26 C 11.3125 -26.269531 11.359375 -26.519531 11.390625 -26.75 C 11.429688 -26.976562 11.46875 -27.210938 11.5 -27.453125 C 11.5625 -27.816406 11.625 -28.164062 11.6875 -28.5 C 11.757812 -28.832031 11.8125 -29.164062 11.84375 -29.5 C 11.882812 -29.726562 11.925781 -29.957031 11.96875 -30.1875 C 12.019531 -30.425781 12.046875 -30.664062 12.046875 -30.90625 C 12.015625 -31 12 -31.113281 12 -31.25 C 10.695312 -30.914062 9.445312 -30.515625 8.25 -30.046875 C 8.082031 -30.015625 7.722656 -29.898438 7.171875 -29.703125 C 6.617188 -29.503906 6.019531 -29.28125 5.375 -29.03125 C 4.726562 -28.78125 4.160156 -28.546875 3.671875 -28.328125 C 3.191406 -28.109375 2.914062 -27.945312 2.84375 -27.84375 C 2.71875 -27.675781 2.535156 -27.582031 2.296875 -27.5625 C 2.066406 -27.550781 1.867188 -27.5 1.703125 -27.40625 L 1.59375 -27.40625 C 1.5625 -27.363281 1.515625 -27.34375 1.453125 -27.34375 C 1.378906 -27.34375 1.289062 -27.382812 1.1875 -27.46875 C 1.09375 -27.550781 1 -27.5625 0.90625 -27.5 C 0.800781 -27.4375 0.691406 -27.394531 0.578125 -27.375 C 0.460938 -27.351562 0.351562 -27.34375 0.25 -27.34375 C -0.0195312 -27.414062 -0.132812 -27.582031 -0.09375 -27.84375 C 0 -28.3125 0.15625 -28.628906 0.375 -28.796875 C 0.59375 -28.960938 0.882812 -29.113281 1.25 -29.25 C 1.644531 -29.414062 2.035156 -29.570312 2.421875 -29.71875 C 2.804688 -29.875 3.179688 -30.035156 3.546875 -30.203125 C 3.878906 -30.367188 4.210938 -30.492188 4.546875 -30.578125 C 4.878906 -30.660156 5.210938 -30.75 5.546875 -30.84375 C 5.617188 -30.914062 5.710938 -30.953125 5.828125 -30.953125 C 5.941406 -30.953125 6.015625 -30.984375 6.046875 -31.046875 C 6.515625 -31.347656 7.023438 -31.539062 7.578125 -31.625 C 8.128906 -31.707031 8.632812 -31.863281 9.09375 -32.09375 C 9.5625 -32.195312 10.03125 -32.332031 10.5 -32.5 C 10.96875 -32.664062 11.414062 -32.832031 11.84375 -33 C 12.25 -33.101562 12.535156 -33.300781 12.703125 -33.59375 C 12.867188 -33.800781 13.035156 -33.90625 13.203125 -33.90625 C 13.296875 -33.90625 13.378906 -33.882812 13.453125 -33.84375 C 13.585938 -33.8125 13.710938 -33.769531 13.828125 -33.71875 C 13.941406 -33.675781 14.066406 -33.65625 14.203125 -33.65625 C 14.367188 -33.65625 14.550781 -33.703125 14.75 -33.796875 C 15.21875 -33.796875 15.640625 -33.878906 16.015625 -34.046875 C 16.398438 -34.210938 16.8125 -34.3125 17.25 -34.34375 C 17.445312 -34.414062 17.5625 -34.4375 17.59375 -34.40625 C 17.695312 -34.332031 17.832031 -34.296875 18 -34.296875 C 18.101562 -34.296875 18.203125 -34.3125 18.296875 -34.34375 C 18.398438 -34.382812 18.484375 -34.421875 18.546875 -34.453125 C 18.847656 -34.617188 19.195312 -34.703125 19.59375 -34.703125 C 19.664062 -34.703125 19.742188 -34.703125 19.828125 -34.703125 C 19.910156 -34.703125 19.984375 -34.703125 20.046875 -34.703125 C 20.210938 -34.703125 20.363281 -34.707031 20.5 -34.71875 C 20.632812 -34.738281 20.769531 -34.78125 20.90625 -34.84375 C 21.101562 -34.882812 21.300781 -34.90625 21.5 -34.90625 C 21.695312 -34.90625 21.894531 -34.90625 22.09375 -34.90625 C 22.300781 -34.90625 22.503906 -34.90625 22.703125 -34.90625 C 22.898438 -34.90625 23.097656 -34.882812 23.296875 -34.84375 C 23.367188 -34.78125 23.4375 -34.75 23.5 -34.75 C 23.5625 -34.75 23.632812 -34.773438 23.71875 -34.828125 C 23.800781 -34.878906 23.894531 -34.90625 24 -34.90625 C 24.164062 -34.90625 24.320312 -34.90625 24.46875 -34.90625 C 24.625 -34.90625 24.769531 -34.90625 24.90625 -34.90625 C 25 -34.90625 25.085938 -34.882812 25.171875 -34.84375 C 25.253906 -34.8125 25.332031 -34.796875 25.40625 -34.796875 C 25.5 -34.796875 25.5625 -34.8125 25.59375 -34.84375 C 25.632812 -34.882812 25.703125 -34.90625 25.796875 -34.90625 C 25.898438 -34.90625 25.96875 -34.882812 26 -34.84375 C 26.0625 -34.84375 26.144531 -34.816406 26.25 -34.765625 C 26.351562 -34.722656 26.453125 -34.71875 26.546875 -34.75 C 26.617188 -34.75 26.695312 -34.773438 26.78125 -34.828125 C 26.863281 -34.878906 26.953125 -34.90625 27.046875 -34.90625 C 27.285156 -34.832031 27.421875 -34.765625 27.453125 -34.703125 Z M 7.703125 -4.90625 C 7.628906 -4.800781 7.601562 -4.695312 7.625 -4.59375 C 7.644531 -4.5 7.65625 -4.414062 7.65625 -4.34375 C 7.851562 -4.414062 7.867188 -4.601562 7.703125 -4.90625 Z M 27.203125 -34.65625 C 27.171875 -34.65625 27.15625 -34.632812 27.15625 -34.59375 C 27.15625 -34.5625 27.15625 -34.546875 27.15625 -34.546875 C 27.1875 -34.546875 27.203125 -34.535156 27.203125 -34.515625 C 27.203125 -34.503906 27.21875 -34.5 27.25 -34.5 C 27.351562 -34.5 27.421875 -34.566406 27.453125 -34.703125 C 27.378906 -34.671875 27.296875 -34.65625 27.203125 -34.65625 Z M 8.296875 -8.34375 L 8.296875 -8.453125 L 8.25 -8.453125 Z M 7.546875 -0.25 L 7.5 -0.296875 L 7.5 -0.25 Z M 10.046875 -14.09375 L 10 -14.09375 L 10.046875 -14.046875 Z M 9.40625 -14.09375 L 9.5 -14.09375 Z M 7.90625 -5.65625 L 7.90625 -5.75 Z M 7.90625 -5.65625 "/></g></g></g><g fill="#ffe047" fill-opacity="1"><g transform="translate(172.261721, 210.150632)"><g><path d="M 10.15625 -26.90625 C 12.925781 -20.039062 15.890625 -13.09375 19.046875 -6.0625 C 24.972656 -19.820312 27.9375 -27.128906 27.9375 -27.984375 C 27.9375 -28.429688 27.609375 -28.785156 26.953125 -29.046875 L 24.03125 -29.828125 L 24.03125 -30.5625 C 25.550781 -30.4375 27.257812 -30.375 29.15625 -30.375 C 31.070312 -30.375 32.75 -30.4375 34.1875 -30.5625 L 34.1875 -29.59375 C 32.84375 -29.53125 31.765625 -29.253906 30.953125 -28.765625 C 30.660156 -28.566406 30.253906 -28.078125 29.734375 -27.296875 L 29 -26.171875 C 28.125 -23.597656 26.414062 -19.257812 23.875 -13.15625 C 21.332031 -7.050781 19.5625 -2.4375 18.5625 0.6875 L 16.609375 0.734375 C 14.972656 -3.234375 12.894531 -8.09375 10.375 -13.84375 C 7.851562 -19.59375 6.285156 -23.25 5.671875 -24.8125 C 4.785156 -27.019531 3.804688 -28.382812 2.734375 -28.90625 C 1.921875 -29.300781 1.007812 -29.609375 0 -29.828125 L 0 -30.5625 C 1.53125 -30.4375 3.859375 -30.375 6.984375 -30.375 C 10.335938 -30.375 12.742188 -30.4375 14.203125 -30.5625 L 14.203125 -29.59375 C 11.992188 -29.394531 10.789062 -29.117188 10.59375 -28.765625 C 10.4375 -28.429688 10.320312 -28.039062 10.25 -27.59375 Z M 10.15625 -26.90625 "/></g></g></g><g fill="#ffe047" fill-opacity="1"><g transform="translate(206.436066, 210.150632)"><g><path d="M 25.046875 0 L 2.390625 0 L 2.390625 -0.78125 C 2.390625 -0.75 2.847656 -0.734375 3.765625 -0.734375 C 5.359375 -0.734375 6.234375 -1.125 6.390625 -1.90625 C 6.691406 -3.664062 6.84375 -9.945312 6.84375 -20.75 C 6.84375 -25.5 6.773438 -28.101562 6.640625 -28.5625 C 6.578125 -28.925781 5.957031 -29.238281 4.78125 -29.5 L 3.03125 -29.828125 L 3.03125 -30.71875 C 6.476562 -30.613281 10.328125 -30.5625 14.578125 -30.5625 C 18.828125 -30.5625 22.285156 -30.613281 24.953125 -30.71875 L 25.09375 -23.640625 L 24.171875 -23.640625 C 24.003906 -24.453125 23.757812 -25.238281 23.4375 -26 C 23.113281 -26.769531 22.5625 -27.535156 21.78125 -28.296875 C 21 -29.054688 20.101562 -29.4375 19.09375 -29.4375 L 11.421875 -29.4375 L 11.421875 -16.15625 L 18.65625 -16.15625 C 20.15625 -16.15625 20.96875 -17.441406 21.09375 -20.015625 L 22.265625 -20.015625 L 22.265625 -11.234375 L 21.296875 -11.234375 C 21.128906 -13.773438 20.195312 -15.046875 18.5 -15.046875 L 11.421875 -15.046875 L 11.421875 -3.375 C 11.421875 -1.8125 11.992188 -1.015625 13.140625 -0.984375 L 20.515625 -0.984375 C 21.359375 -1.015625 22.175781 -1.738281 22.96875 -3.15625 C 23.769531 -4.570312 24.253906 -5.992188 24.421875 -7.421875 L 25.484375 -7.421875 Z M 25.046875 0 "/></g></g></g><g fill="#ffe047" fill-opacity="1"><g transform="translate(234.898413, 210.150632)"><g><path d="M 32.5625 -29.5 C 32.113281 -29.457031 31.601562 -29.394531 31.03125 -29.3125 C 30.457031 -29.238281 29.84375 -29.085938 29.1875 -28.859375 C 28.539062 -28.628906 28.21875 -28.335938 28.21875 -27.984375 C 28.15625 -26.910156 28.109375 -23.914062 28.078125 -19 L 28.21875 0.53125 L 26.515625 0.53125 L 17.1875 -12.203125 C 11 -20.703125 7.726562 -25.128906 7.375 -25.484375 C 7.34375 -22.722656 7.328125 -20.460938 7.328125 -18.703125 C 7.328125 -16.484375 7.363281 -14.363281 7.4375 -12.34375 C 7.519531 -10.332031 7.5625 -7.828125 7.5625 -4.828125 C 7.5625 -4.242188 7.5625 -3.59375 7.5625 -2.875 C 7.5625 -1.539062 8.132812 -0.875 9.28125 -0.875 C 11.132812 -0.875 12.078125 -0.84375 12.109375 -0.78125 L 12.109375 0.09375 C 10.515625 0 8.707031 -0.046875 6.6875 -0.046875 C 4.445312 -0.046875 2.546875 0.015625 0.984375 0.140625 L 0.984375 -0.640625 C 0.984375 -0.640625 1.078125 -0.640625 1.265625 -0.640625 C 3.941406 -0.640625 5.359375 -1.015625 5.515625 -1.765625 C 5.679688 -11.460938 5.765625 -17.140625 5.765625 -18.796875 C 5.765625 -21.304688 5.734375 -24.203125 5.671875 -27.484375 C 5.597656 -27.847656 4.832031 -28.335938 3.375 -28.953125 L 1.171875 -29.828125 L 1.171875 -30.71875 L 10.203125 -30.671875 C 12.128906 -27.992188 15.285156 -23.789062 19.671875 -18.0625 L 26.375 -9.46875 L 26.421875 -27.984375 C 26.390625 -28.429688 25.984375 -28.796875 25.203125 -29.078125 C 24.421875 -29.359375 23.488281 -29.5 22.40625 -29.5 C 22.1875 -29.5 21.945312 -29.5 21.6875 -29.5 L 21.578125 -30.609375 C 22.953125 -30.453125 24.644531 -30.375 26.65625 -30.375 C 28.507812 -30.375 30.476562 -30.4375 32.5625 -30.5625 Z M 32.5625 -29.5 "/></g></g></g><g fill="#ffe047" fill-opacity="1"><g transform="translate(268.438092, 210.150632)"><g><path d="M 11.328125 -1.8125 C 12.046875 -2.71875 12.40625 -3.644531 12.40625 -4.59375 L 12.453125 -29.546875 C 9.066406 -29.578125 7.359375 -29.59375 7.328125 -29.59375 C 6.546875 -29.59375 5.84375 -29.296875 5.21875 -28.703125 C 4.601562 -28.117188 4.132812 -27.394531 3.8125 -26.53125 C 3.488281 -25.675781 3.21875 -24.832031 3 -24 C 2.789062 -23.164062 2.671875 -22.375 2.640625 -21.625 L 1.703125 -21.625 L 1.90625 -30.71875 C 5.550781 -30.613281 10.191406 -30.5625 15.828125 -30.5625 C 21.128906 -30.5625 25.210938 -30.613281 28.078125 -30.71875 L 28.21875 -21.625 L 27.25 -21.625 C 26.957031 -26.832031 25.601562 -29.457031 23.1875 -29.5 L 17.484375 -29.546875 L 17.53125 -4.59375 C 17.53125 -3.445312 17.835938 -2.519531 18.453125 -1.8125 C 18.941406 -1.21875 20.28125 -0.90625 22.46875 -0.875 L 22.46875 0.046875 L 7.46875 0.046875 L 7.46875 -0.875 C 7.53125 -0.875 7.625 -0.875 7.75 -0.875 C 7.882812 -0.875 7.988281 -0.875 8.0625 -0.875 C 9.78125 -0.90625 10.867188 -1.21875 11.328125 -1.8125 Z M 11.328125 -1.8125 "/></g></g></g><path stroke-linecap="butt" transform="matrix(0.749984, -0.00491144, 0.00491144, 0.749984, 72.964027, 222.400663)" fill="none" stroke-linejoin="miter" d="M -0.0016063 2.002274 L 305.411212 2.002294 " stroke="#ffffff" stroke-width="4" stroke-opacity="1" stroke-miterlimit="4"/></svg>