<svg xmlns="http://www.w3.org/2000/svg" width="250" zoomAndPan="magnify" viewBox="0 0 187.5 74.999997" height="100"
     preserveAspectRatio="xMidYMid meet" version="1.0"><defs><g/><clipPath id="82ca872147"><path d="M 0 56 L 187 56 L 187 74.898438 L 0 74.898438 Z M 0 56 " clip-rule="nonzero"/></clipPath></defs><g fill="#ffffff" fill-opacity="1"><g transform="translate(5.265003, 32.256002)"><g><path d="M 7.8125 -9.984375 C 7.695312 -9.742188 7.582031 -9.503906 7.46875 -9.265625 C 7.363281 -9.035156 7.242188 -8.8125 7.109375 -8.59375 C 7.023438 -8.425781 7.050781 -8.300781 7.1875 -8.21875 C 7.332031 -8.113281 7.59375 -7.867188 7.96875 -7.484375 C 8.351562 -7.097656 8.769531 -6.664062 9.21875 -6.1875 C 9.675781 -5.707031 10.082031 -5.257812 10.4375 -4.84375 C 10.789062 -4.4375 10.984375 -4.164062 11.015625 -4.03125 C 11.097656 -3.894531 11.195312 -3.785156 11.3125 -3.703125 C 11.53125 -3.617188 11.648438 -3.453125 11.671875 -3.203125 C 11.671875 -3.179688 11.710938 -3.128906 11.796875 -3.046875 C 11.929688 -3.015625 12.023438 -2.921875 12.078125 -2.765625 C 12.140625 -2.617188 12.253906 -2.519531 12.421875 -2.46875 C 12.523438 -2.269531 12.660156 -2.085938 12.828125 -1.921875 C 12.992188 -1.765625 13.144531 -1.601562 13.28125 -1.4375 C 13.382812 -1.332031 13.484375 -1.222656 13.578125 -1.109375 C 13.679688 -1.003906 13.742188 -0.851562 13.765625 -0.65625 C 13.765625 -0.601562 13.78125 -0.578125 13.8125 -0.578125 C 14.0625 -0.460938 14.253906 -0.273438 14.390625 -0.015625 C 14.523438 0.242188 14.71875 0.441406 14.96875 0.578125 C 15.125 0.765625 15.285156 0.945312 15.453125 1.125 C 15.617188 1.300781 15.757812 1.503906 15.875 1.734375 C 16.007812 1.890625 16.132812 2.035156 16.25 2.171875 C 16.375 2.316406 16.519531 2.425781 16.6875 2.5 C 16.769531 2.582031 16.851562 2.664062 16.9375 2.75 C 17.019531 2.832031 17.085938 2.914062 17.140625 3 C 17.222656 3.082031 17.304688 3.1875 17.390625 3.3125 C 17.472656 3.4375 17.539062 3.550781 17.59375 3.65625 C 17.675781 3.769531 17.78125 3.847656 17.90625 3.890625 C 18.03125 3.929688 18.101562 4.019531 18.125 4.15625 C 18.125 4.238281 18.15625 4.28125 18.21875 4.28125 C 18.507812 4.46875 18.75 4.691406 18.9375 4.953125 C 19.132812 5.210938 19.34375 5.453125 19.5625 5.671875 C 19.675781 5.804688 19.785156 5.921875 19.890625 6.015625 C 20.003906 6.117188 20.113281 6.210938 20.21875 6.296875 C 20.363281 6.398438 20.503906 6.515625 20.640625 6.640625 C 20.773438 6.765625 20.867188 6.921875 20.921875 7.109375 C 20.921875 7.191406 20.894531 7.257812 20.84375 7.3125 C 20.8125 7.394531 20.742188 7.410156 20.640625 7.359375 C 20.578125 7.304688 20.5 7.257812 20.40625 7.21875 C 20.3125 7.175781 20.238281 7.113281 20.1875 7.03125 C 20.132812 6.976562 20.070312 6.898438 20 6.796875 C 19.925781 6.703125 19.835938 6.65625 19.734375 6.65625 C 19.648438 6.65625 19.59375 6.671875 19.5625 6.703125 C 19.5625 6.703125 19.554688 6.691406 19.546875 6.671875 C 19.535156 6.660156 19.515625 6.65625 19.484375 6.65625 C 19.296875 6.414062 19.078125 6.210938 18.828125 6.046875 C 18.578125 5.878906 18.359375 5.671875 18.171875 5.421875 C 18.003906 5.234375 17.835938 5.050781 17.671875 4.875 C 17.515625 4.695312 17.320312 4.550781 17.09375 4.4375 C 16.90625 4.332031 16.726562 4.140625 16.5625 3.859375 C 16.457031 3.671875 16.34375 3.507812 16.21875 3.375 C 16.09375 3.238281 15.945312 3.097656 15.78125 2.953125 C 15.644531 2.796875 15.507812 2.617188 15.375 2.421875 C 15.238281 2.234375 15.070312 2.082031 14.875 1.96875 C 14.65625 1.582031 14.390625 1.253906 14.078125 0.984375 C 13.765625 0.710938 13.484375 0.398438 13.234375 0.046875 C 12.992188 -0.335938 12.703125 -0.6875 12.359375 -1 C 12.015625 -1.320312 11.734375 -1.6875 11.515625 -2.09375 L 11.46875 -2.140625 C 11.082031 -2.546875 10.710938 -2.972656 10.359375 -3.421875 C 10.003906 -3.878906 9.617188 -4.316406 9.203125 -4.734375 L 9.078125 -4.84375 C 8.921875 -5.070312 8.742188 -5.273438 8.546875 -5.453125 C 8.359375 -5.628906 8.164062 -5.8125 7.96875 -6 C 7.78125 -6.195312 7.597656 -6.382812 7.421875 -6.5625 C 7.242188 -6.738281 7.070312 -6.921875 6.90625 -7.109375 C 6.851562 -7.160156 6.769531 -7.21875 6.65625 -7.28125 C 6.550781 -7.082031 6.457031 -6.882812 6.375 -6.6875 C 6.289062 -6.5 6.207031 -6.3125 6.125 -6.125 C 6.039062 -5.9375 5.972656 -5.757812 5.921875 -5.59375 C 5.890625 -5.476562 5.859375 -5.363281 5.828125 -5.25 C 5.804688 -5.144531 5.769531 -5.050781 5.71875 -4.96875 C 5.550781 -4.644531 5.40625 -4.3125 5.28125 -3.96875 C 5.15625 -3.625 5.023438 -3.285156 4.890625 -2.953125 C 4.859375 -2.878906 4.835938 -2.804688 4.828125 -2.734375 C 4.816406 -2.660156 4.796875 -2.570312 4.765625 -2.46875 C 4.710938 -2.269531 4.65625 -2.046875 4.59375 -1.796875 C 4.539062 -1.554688 4.476562 -1.328125 4.40625 -1.109375 C 4.289062 -0.804688 4.1875 -0.488281 4.09375 -0.15625 C 4 0.164062 3.921875 0.492188 3.859375 0.828125 C 3.773438 1.179688 3.664062 1.535156 3.53125 1.890625 C 3.394531 2.242188 3.257812 2.613281 3.125 3 C 3.09375 3.082031 3.035156 3.125 2.953125 3.125 C 2.929688 3.125 2.894531 3.097656 2.84375 3.046875 C 2.757812 2.929688 2.695312 2.828125 2.65625 2.734375 C 2.613281 2.640625 2.523438 2.550781 2.390625 2.46875 C 2.273438 2.46875 2.242188 2.382812 2.296875 2.21875 C 2.460938 2 2.453125 1.796875 2.265625 1.609375 C 2.148438 1.460938 2.070312 1.316406 2.03125 1.171875 C 1.988281 1.023438 1.957031 0.867188 1.9375 0.703125 C 1.90625 0.503906 1.875 0.304688 1.84375 0.109375 C 1.820312 -0.078125 1.835938 -0.265625 1.890625 -0.453125 C 1.941406 -0.535156 1.960938 -0.628906 1.953125 -0.734375 C 1.941406 -0.847656 1.9375 -0.945312 1.9375 -1.03125 L 1.9375 -4.3125 C 1.9375 -4.445312 1.941406 -4.585938 1.953125 -4.734375 C 1.960938 -4.890625 2 -5.023438 2.0625 -5.140625 C 2.082031 -5.191406 2.09375 -5.257812 2.09375 -5.34375 C 2.09375 -5.425781 2.09375 -5.492188 2.09375 -5.546875 L 2.09375 -7.078125 C 2.125 -7.234375 2.140625 -7.394531 2.140625 -7.5625 C 2.140625 -7.726562 2.164062 -7.894531 2.21875 -8.0625 C 2.269531 -8.195312 2.289062 -8.335938 2.28125 -8.484375 C 2.269531 -8.640625 2.265625 -8.769531 2.265625 -8.875 C 2.265625 -9.007812 2.195312 -9.078125 2.0625 -9.078125 L 0.578125 -9.078125 C 0.378906 -9.078125 0.257812 -9.101562 0.21875 -9.15625 C 0.1875 -9.21875 0.171875 -9.34375 0.171875 -9.53125 C 0.140625 -9.695312 0.125 -9.847656 0.125 -9.984375 C 0.125 -10.117188 0.0820312 -10.269531 0 -10.4375 C -0.03125 -10.519531 -0.0078125 -10.613281 0.0625 -10.71875 C 0.132812 -10.832031 0.222656 -10.90625 0.328125 -10.9375 L 2.09375 -10.9375 C 2.226562 -10.9375 2.34375 -11.003906 2.4375 -11.140625 C 2.539062 -11.273438 2.5625 -11.425781 2.5 -11.59375 C 2.476562 -11.675781 2.453125 -11.75 2.421875 -11.8125 C 2.398438 -11.882812 2.398438 -11.945312 2.421875 -12 C 2.535156 -12.195312 2.582031 -12.375 2.5625 -12.53125 C 2.550781 -12.695312 2.546875 -12.878906 2.546875 -13.078125 C 2.578125 -13.210938 2.59375 -13.347656 2.59375 -13.484375 C 2.59375 -13.617188 2.617188 -13.753906 2.671875 -13.890625 C 2.703125 -13.953125 2.71875 -14.050781 2.71875 -14.1875 C 2.738281 -14.375 2.753906 -14.539062 2.765625 -14.6875 C 2.785156 -14.84375 2.8125 -15.015625 2.84375 -15.203125 C 2.894531 -15.347656 2.910156 -15.5 2.890625 -15.65625 C 2.878906 -15.820312 2.914062 -15.960938 3 -16.078125 C 3 -16.097656 3.003906 -16.128906 3.015625 -16.171875 C 3.035156 -16.210938 3.046875 -16.25 3.046875 -16.28125 C 3.015625 -16.582031 3.039062 -16.867188 3.125 -17.140625 C 3.207031 -17.410156 3.234375 -17.695312 3.203125 -18 C 3.335938 -18.582031 3.445312 -19.171875 3.53125 -19.765625 C 3.613281 -20.367188 3.753906 -20.945312 3.953125 -21.5 C 4.171875 -22.050781 4.414062 -22.597656 4.6875 -23.140625 C 4.957031 -23.691406 5.269531 -24.226562 5.625 -24.75 C 5.925781 -25.238281 6.34375 -25.703125 6.875 -26.140625 C 7.414062 -26.578125 7.992188 -26.960938 8.609375 -27.296875 C 9.222656 -27.628906 9.789062 -27.847656 10.3125 -27.953125 C 10.914062 -28.035156 11.457031 -28.085938 11.9375 -28.109375 C 12.414062 -28.140625 12.957031 -28.15625 13.5625 -28.15625 C 13.695312 -28.15625 13.847656 -28.148438 14.015625 -28.140625 C 14.179688 -28.128906 14.332031 -28.09375 14.46875 -28.03125 C 14.582031 -28.007812 14.734375 -28 14.921875 -28 C 14.972656 -28 15.039062 -28 15.125 -28 C 15.207031 -28 15.273438 -28 15.328125 -28 C 15.628906 -28 15.90625 -27.941406 16.15625 -27.828125 C 16.5625 -27.660156 16.988281 -27.539062 17.4375 -27.46875 C 17.59375 -27.4375 17.742188 -27.363281 17.890625 -27.25 C 18.046875 -27.144531 18.191406 -27.050781 18.328125 -26.96875 C 19.015625 -26.476562 19.53125 -26.03125 19.875 -25.625 C 20.21875 -25.226562 20.539062 -24.648438 20.84375 -23.890625 C 21.113281 -23.222656 21.164062 -22.492188 21 -21.703125 C 20.976562 -21.515625 20.9375 -21.332031 20.875 -21.15625 C 20.820312 -20.976562 20.785156 -20.773438 20.765625 -20.546875 C 20.765625 -20.191406 20.625 -19.878906 20.34375 -19.609375 C 20.101562 -19.359375 19.941406 -19.070312 19.859375 -18.75 C 19.742188 -18.332031 19.554688 -17.988281 19.296875 -17.71875 C 19.035156 -17.445312 18.726562 -17.210938 18.375 -17.015625 C 18.289062 -16.929688 18.238281 -16.890625 18.21875 -16.890625 C 18.15625 -16.867188 18.070312 -16.859375 17.96875 -16.859375 C 17.851562 -16.859375 17.769531 -16.84375 17.71875 -16.8125 C 17.6875 -16.8125 17.65625 -16.785156 17.625 -16.734375 C 17.601562 -16.679688 17.609375 -16.625 17.640625 -16.5625 C 17.773438 -16.425781 17.84375 -16.335938 17.84375 -16.296875 C 17.84375 -16.253906 17.800781 -16.179688 17.71875 -16.078125 C 17.632812 -15.992188 17.535156 -15.929688 17.421875 -15.890625 C 17.316406 -15.847656 17.238281 -15.757812 17.1875 -15.625 C 17.15625 -15.539062 17.054688 -15.5 16.890625 -15.5 C 16.734375 -15.445312 16.65625 -15.378906 16.65625 -15.296875 C 16.625 -14.960938 16.441406 -14.753906 16.109375 -14.671875 C 16.054688 -14.671875 15.863281 -14.566406 15.53125 -14.359375 C 15.207031 -14.160156 15.046875 -14.046875 15.046875 -14.015625 C 15.015625 -13.929688 14.953125 -13.867188 14.859375 -13.828125 C 14.765625 -13.785156 14.691406 -13.738281 14.640625 -13.6875 C 14.554688 -13.582031 14.460938 -13.519531 14.359375 -13.5 C 14.265625 -13.488281 14.164062 -13.457031 14.0625 -13.40625 C 13.945312 -13.320312 13.828125 -13.242188 13.703125 -13.171875 C 13.585938 -13.109375 13.457031 -13.019531 13.3125 -12.90625 C 13.15625 -12.800781 13 -12.695312 12.84375 -12.59375 C 12.695312 -12.5 12.515625 -12.382812 12.296875 -12.25 C 12.210938 -12.164062 12.113281 -12.125 12 -12.125 C 11.863281 -12.125 11.738281 -12.109375 11.625 -12.078125 C 11.519531 -12.054688 11.425781 -11.976562 11.34375 -11.84375 C 11.15625 -11.726562 10.953125 -11.625 10.734375 -11.53125 C 10.515625 -11.4375 10.296875 -11.363281 10.078125 -11.3125 C 9.859375 -11.25 9.71875 -11.175781 9.65625 -11.09375 C 9.519531 -10.90625 9.347656 -10.78125 9.140625 -10.71875 C 8.941406 -10.664062 8.734375 -10.601562 8.515625 -10.53125 C 8.484375 -10.53125 8.445312 -10.539062 8.40625 -10.5625 C 8.363281 -10.59375 8.328125 -10.609375 8.296875 -10.609375 C 8.222656 -10.523438 8.132812 -10.429688 8.03125 -10.328125 C 7.9375 -10.234375 7.863281 -10.117188 7.8125 -9.984375 Z M 13.734375 -15 C 13.703125 -15 13.660156 -14.992188 13.609375 -14.984375 C 13.554688 -14.972656 13.5 -14.96875 13.4375 -14.96875 C 13.382812 -14.90625 13.273438 -14.847656 13.109375 -14.796875 C 13.140625 -14.960938 13.25 -15.085938 13.4375 -15.171875 C 13.71875 -15.335938 14.007812 -15.476562 14.3125 -15.59375 C 14.613281 -15.71875 14.898438 -15.847656 15.171875 -15.984375 C 15.191406 -15.960938 15.203125 -15.914062 15.203125 -15.84375 C 15.203125 -15.78125 15.21875 -15.75 15.25 -15.75 C 15.25 -15.75 15.253906 -15.753906 15.265625 -15.765625 C 15.285156 -15.773438 15.304688 -15.78125 15.328125 -15.78125 C 15.828125 -15.914062 16.28125 -16.109375 16.6875 -16.359375 C 17.125 -16.554688 17.441406 -16.882812 17.640625 -17.34375 C 17.691406 -17.539062 17.75 -17.707031 17.8125 -17.84375 C 17.882812 -17.976562 18.003906 -18.070312 18.171875 -18.125 C 18.253906 -18.125 18.351562 -18.296875 18.46875 -18.640625 C 18.59375 -18.984375 18.65625 -19.222656 18.65625 -19.359375 C 18.582031 -19.335938 18.488281 -19.296875 18.375 -19.234375 C 18.34375 -19.367188 18.351562 -19.476562 18.40625 -19.5625 C 18.46875 -19.644531 18.523438 -19.726562 18.578125 -19.8125 C 18.796875 -20.113281 18.957031 -20.421875 19.0625 -20.734375 C 19.175781 -21.054688 19.273438 -21.394531 19.359375 -21.75 C 19.492188 -22.15625 19.582031 -22.578125 19.625 -23.015625 C 19.664062 -23.453125 19.617188 -23.894531 19.484375 -24.34375 C 19.398438 -24.582031 19.3125 -24.804688 19.21875 -25.015625 C 19.125 -25.222656 18.976562 -25.40625 18.78125 -25.5625 C 17.90625 -26.113281 17.128906 -26.484375 16.453125 -26.671875 C 15.785156 -26.867188 14.929688 -26.96875 13.890625 -26.96875 C 13.804688 -26.96875 13.707031 -26.972656 13.59375 -26.984375 C 13.488281 -27.003906 13.394531 -27.039062 13.3125 -27.09375 C 13.257812 -27.144531 13.179688 -27.144531 13.078125 -27.09375 C 12.878906 -26.976562 12.671875 -26.921875 12.453125 -26.921875 C 11.492188 -26.921875 10.554688 -26.722656 9.640625 -26.328125 C 8.722656 -25.929688 7.90625 -25.414062 7.1875 -24.78125 C 7.1875 -24.863281 7.175781 -24.9375 7.15625 -25 C 7.15625 -25.050781 7.140625 -25.078125 7.109375 -25.078125 C 7.085938 -25.078125 7.0625 -25.050781 7.03125 -25 C 7 -24.96875 6.976562 -24.9375 6.96875 -24.90625 C 6.957031 -24.882812 6.921875 -24.84375 6.859375 -24.78125 C 6.753906 -24.757812 6.660156 -24.664062 6.578125 -24.5 C 6.546875 -24.414062 6.507812 -24.328125 6.46875 -24.234375 C 6.425781 -24.140625 6.378906 -24.050781 6.328125 -23.96875 C 6.222656 -23.832031 6.117188 -23.6875 6.015625 -23.53125 C 5.921875 -23.382812 5.890625 -23.203125 5.921875 -22.984375 C 5.921875 -22.765625 5.8125 -22.546875 5.59375 -22.328125 C 5.34375 -22.128906 5.175781 -21.867188 5.09375 -21.546875 C 4.988281 -21.179688 4.878906 -20.832031 4.765625 -20.5 C 4.660156 -20.175781 4.539062 -19.851562 4.40625 -19.53125 C 4.320312 -19.332031 4.226562 -19.132812 4.125 -18.9375 C 4.03125 -18.75 3.984375 -18.546875 3.984375 -18.328125 C 3.984375 -18.222656 3.96875 -18.113281 3.9375 -18 C 3.914062 -17.894531 3.878906 -17.785156 3.828125 -17.671875 C 3.796875 -17.515625 3.742188 -17.359375 3.671875 -17.203125 C 3.609375 -17.054688 3.5625 -16.898438 3.53125 -16.734375 C 3.507812 -16.460938 3.460938 -16.179688 3.390625 -15.890625 C 3.316406 -15.597656 3.296875 -15.300781 3.328125 -15 C 3.359375 -14.945312 3.363281 -14.898438 3.34375 -14.859375 C 3.332031 -14.816406 3.328125 -14.785156 3.328125 -14.765625 C 3.242188 -14.648438 3.203125 -14.515625 3.203125 -14.359375 C 3.203125 -14.210938 3.203125 -14.070312 3.203125 -13.9375 C 3.203125 -13.851562 3.203125 -13.765625 3.203125 -13.671875 C 3.203125 -13.578125 3.191406 -13.488281 3.171875 -13.40625 C 3.054688 -13.070312 3.007812 -12.734375 3.03125 -12.390625 C 3.0625 -12.046875 3.066406 -11.695312 3.046875 -11.34375 C 3.046875 -11.207031 3.113281 -11.140625 3.25 -11.140625 C 3.632812 -11.140625 4.097656 -11.171875 4.640625 -11.234375 C 5.191406 -11.304688 5.710938 -11.445312 6.203125 -11.65625 C 6.703125 -11.863281 7.03125 -12.15625 7.1875 -12.53125 C 7.1875 -12.644531 7.203125 -12.71875 7.234375 -12.75 C 7.367188 -12.90625 7.460938 -13.070312 7.515625 -13.25 C 7.578125 -13.4375 7.660156 -13.625 7.765625 -13.8125 C 7.847656 -13.945312 7.929688 -14.101562 8.015625 -14.28125 C 8.097656 -14.457031 8.179688 -14.628906 8.265625 -14.796875 C 8.347656 -14.929688 8.414062 -15.070312 8.46875 -15.21875 C 8.519531 -15.375 8.585938 -15.519531 8.671875 -15.65625 C 8.890625 -15.9375 9.082031 -16.253906 9.25 -16.609375 C 9.414062 -16.960938 9.609375 -17.273438 9.828125 -17.546875 C 9.878906 -17.609375 9.90625 -17.664062 9.90625 -17.71875 C 9.90625 -17.769531 9.921875 -17.8125 9.953125 -17.84375 C 10.054688 -18.144531 10.164062 -18.390625 10.28125 -18.578125 C 10.300781 -18.628906 10.328125 -18.640625 10.359375 -18.609375 C 10.390625 -18.585938 10.414062 -18.578125 10.4375 -18.578125 C 10.5 -18.578125 10.53125 -18.601562 10.53125 -18.65625 C 10.582031 -18.800781 10.566406 -18.914062 10.484375 -19 C 10.453125 -19.050781 10.441406 -19.101562 10.453125 -19.15625 C 10.472656 -19.207031 10.5 -19.25 10.53125 -19.28125 C 10.601562 -19.5 10.679688 -19.695312 10.765625 -19.875 C 10.847656 -20.050781 10.929688 -20.238281 11.015625 -20.4375 C 11.148438 -20.84375 11.285156 -21.265625 11.421875 -21.703125 C 11.566406 -22.140625 11.71875 -22.550781 11.875 -22.9375 C 12.039062 -23.425781 12.164062 -23.929688 12.25 -24.453125 C 12.382812 -25.054688 12.660156 -25.5 13.078125 -25.78125 C 13.128906 -25.75 13.164062 -25.734375 13.1875 -25.734375 C 13.21875 -25.734375 13.25 -25.71875 13.28125 -25.6875 C 13.519531 -25.601562 13.679688 -25.414062 13.765625 -25.125 C 13.828125 -24.925781 13.863281 -24.738281 13.875 -24.5625 C 13.882812 -24.382812 13.878906 -24.1875 13.859375 -23.96875 C 13.742188 -23.007812 13.472656 -21.972656 13.046875 -20.859375 C 12.628906 -19.753906 12.160156 -18.664062 11.640625 -17.59375 C 11.117188 -16.519531 10.625 -15.5625 10.15625 -14.71875 C 10.039062 -14.519531 9.9375 -14.304688 9.84375 -14.078125 C 9.75 -13.847656 9.632812 -13.625 9.5 -13.40625 C 9.46875 -13.34375 9.453125 -13.257812 9.453125 -13.15625 C 9.703125 -13.207031 9.9375 -13.285156 10.15625 -13.390625 C 10.375 -13.503906 10.59375 -13.617188 10.8125 -13.734375 C 11.113281 -13.867188 11.398438 -14.015625 11.671875 -14.171875 C 11.953125 -14.335938 12.238281 -14.476562 12.53125 -14.59375 C 12.757812 -14.757812 12.953125 -14.84375 13.109375 -14.84375 L 13.109375 -14.671875 C 13.242188 -14.671875 13.363281 -14.6875 13.46875 -14.71875 C 13.582031 -14.75 13.671875 -14.84375 13.734375 -15 Z M 2.75 -8.0625 C 2.726562 -8 2.722656 -7.925781 2.734375 -7.84375 C 2.742188 -7.769531 2.75 -7.703125 2.75 -7.640625 L 2.75 -1.4375 C 2.832031 -1.488281 2.875 -1.515625 2.875 -1.515625 C 2.925781 -1.597656 2.984375 -1.722656 3.046875 -1.890625 C 3.367188 -2.984375 3.707031 -4.070312 4.0625 -5.15625 C 4.425781 -6.238281 4.8125 -7.316406 5.21875 -8.390625 C 4.53125 -9.015625 3.765625 -9.328125 2.921875 -9.328125 C 2.890625 -9.109375 2.875 -8.890625 2.875 -8.671875 C 2.875 -8.453125 2.832031 -8.25 2.75 -8.0625 Z M 13.109375 -13.984375 C 13.023438 -13.984375 12.972656 -13.925781 12.953125 -13.8125 C 12.921875 -13.8125 12.890625 -13.816406 12.859375 -13.828125 C 12.835938 -13.847656 12.8125 -13.859375 12.78125 -13.859375 C 12.675781 -13.859375 12.582031 -13.820312 12.5 -13.75 C 12.414062 -13.675781 12.304688 -13.613281 12.171875 -13.5625 C 11.890625 -13.394531 11.613281 -13.25 11.34375 -13.125 C 11.070312 -13.007812 10.800781 -12.867188 10.53125 -12.703125 C 10.25 -12.585938 9.976562 -12.445312 9.71875 -12.28125 C 9.457031 -12.125 9.175781 -12.003906 8.875 -11.921875 C 8.789062 -11.921875 8.722656 -11.863281 8.671875 -11.75 C 8.617188 -11.695312 8.617188 -11.617188 8.671875 -11.515625 C 8.703125 -11.515625 8.738281 -11.503906 8.78125 -11.484375 C 8.820312 -11.472656 8.851562 -11.46875 8.875 -11.46875 C 9.039062 -11.601562 9.210938 -11.710938 9.390625 -11.796875 C 9.566406 -11.878906 9.738281 -11.960938 9.90625 -12.046875 C 9.988281 -12.097656 10.078125 -12.128906 10.171875 -12.140625 C 10.265625 -12.160156 10.34375 -12.195312 10.40625 -12.25 C 11.03125 -12.71875 11.710938 -13.070312 12.453125 -13.3125 C 12.703125 -13.394531 12.867188 -13.5625 12.953125 -13.8125 C 13.054688 -13.863281 13.109375 -13.921875 13.109375 -13.984375 Z M 8.46875 -14.71875 C 8.382812 -14.550781 8.300781 -14.367188 8.21875 -14.171875 C 8.132812 -13.984375 8.050781 -13.78125 7.96875 -13.5625 C 7.945312 -13.539062 7.925781 -13.492188 7.90625 -13.421875 C 7.894531 -13.347656 7.863281 -13.285156 7.8125 -13.234375 C 7.695312 -13.128906 7.613281 -12.992188 7.5625 -12.828125 C 7.507812 -12.660156 7.441406 -12.507812 7.359375 -12.375 C 7.359375 -12.375 7.363281 -12.351562 7.375 -12.3125 C 7.394531 -12.269531 7.40625 -12.234375 7.40625 -12.203125 C 7.425781 -12.203125 7.445312 -12.207031 7.46875 -12.21875 C 7.5 -12.238281 7.53125 -12.25 7.5625 -12.25 C 7.613281 -12.332031 7.664062 -12.398438 7.71875 -12.453125 C 7.78125 -12.503906 7.8125 -12.570312 7.8125 -12.65625 C 7.8125 -12.800781 7.863281 -12.925781 7.96875 -13.03125 C 8.082031 -13.144531 8.164062 -13.253906 8.21875 -13.359375 C 8.269531 -13.472656 8.296875 -13.601562 8.296875 -13.75 C 8.296875 -13.90625 8.335938 -14.035156 8.421875 -14.140625 C 8.503906 -14.273438 8.65625 -14.410156 8.875 -14.546875 C 8.988281 -14.609375 9.046875 -14.71875 9.046875 -14.875 C 9.066406 -14.9375 9.0625 -14.992188 9.03125 -15.046875 C 9.007812 -15.097656 8.988281 -15.140625 8.96875 -15.171875 C 9.019531 -15.191406 9.070312 -15.203125 9.125 -15.203125 C 9.175781 -15.203125 9.21875 -15.234375 9.25 -15.296875 C 9.300781 -15.515625 9.394531 -15.71875 9.53125 -15.90625 C 9.5625 -15.957031 9.578125 -16.039062 9.578125 -16.15625 C 9.578125 -16.1875 9.566406 -16.210938 9.546875 -16.234375 C 9.535156 -16.265625 9.53125 -16.296875 9.53125 -16.328125 L 9.453125 -16.28125 C 9.203125 -15.976562 9.039062 -15.609375 8.96875 -15.171875 C 8.851562 -15.140625 8.753906 -15.078125 8.671875 -14.984375 C 8.585938 -14.890625 8.519531 -14.800781 8.46875 -14.71875 Z M 5.390625 -10.8125 C 5.628906 -10.8125 5.722656 -10.878906 5.671875 -11.015625 C 5.671875 -11.066406 5.644531 -11.09375 5.59375 -11.09375 C 5.5625 -11.09375 5.53125 -11.078125 5.5 -11.046875 C 5.476562 -11.023438 5.441406 -11 5.390625 -10.96875 C 5.140625 -10.945312 4.894531 -10.90625 4.65625 -10.84375 C 4.425781 -10.789062 4.191406 -10.765625 3.953125 -10.765625 C 3.734375 -10.765625 3.566406 -10.722656 3.453125 -10.640625 L 3.453125 -10.53125 C 3.503906 -10.5 3.570312 -10.484375 3.65625 -10.484375 C 3.738281 -10.484375 3.804688 -10.484375 3.859375 -10.484375 C 3.890625 -10.484375 3.910156 -10.484375 3.921875 -10.484375 C 3.941406 -10.484375 3.960938 -10.484375 3.984375 -10.484375 C 4.234375 -10.484375 4.46875 -10.523438 4.6875 -10.609375 C 4.90625 -10.691406 5.140625 -10.757812 5.390625 -10.8125 Z M 11.46875 -13.640625 C 11.082031 -13.453125 10.703125 -13.269531 10.328125 -13.09375 C 9.960938 -12.914062 9.585938 -12.742188 9.203125 -12.578125 C 9.203125 -12.578125 9.195312 -12.5625 9.1875 -12.53125 C 9.175781 -12.507812 9.171875 -12.484375 9.171875 -12.453125 C 9.191406 -12.367188 9.242188 -12.367188 9.328125 -12.453125 C 9.492188 -12.503906 9.660156 -12.570312 9.828125 -12.65625 C 9.992188 -12.738281 10.15625 -12.8125 10.3125 -12.875 C 10.507812 -12.945312 10.679688 -13.03125 10.828125 -13.125 C 10.984375 -13.226562 11.144531 -13.320312 11.3125 -13.40625 C 11.363281 -13.425781 11.414062 -13.503906 11.46875 -13.640625 Z M 16.234375 -16.984375 C 16.316406 -16.898438 16.316406 -16.816406 16.234375 -16.734375 C 16.148438 -16.617188 16.046875 -16.523438 15.921875 -16.453125 C 15.804688 -16.390625 15.71875 -16.289062 15.65625 -16.15625 C 15.601562 -16.070312 15.523438 -16.03125 15.421875 -16.03125 C 15.390625 -16.03125 15.359375 -16.03125 15.328125 -16.03125 C 15.304688 -16.03125 15.265625 -16.03125 15.203125 -16.03125 C 15.503906 -16.445312 15.847656 -16.765625 16.234375 -16.984375 Z M 5.71875 -10.609375 C 5.65625 -10.554688 5.664062 -10.515625 5.75 -10.484375 C 5.78125 -10.484375 5.800781 -10.484375 5.8125 -10.484375 C 5.832031 -10.484375 5.851562 -10.484375 5.875 -10.484375 C 5.988281 -10.484375 6.085938 -10.523438 6.171875 -10.609375 L 6.171875 -10.734375 C 6.140625 -10.753906 6.082031 -10.765625 6 -10.765625 C 5.832031 -10.765625 5.738281 -10.710938 5.71875 -10.609375 Z M 6 -11.265625 C 6 -11.210938 6.023438 -11.171875 6.078125 -11.140625 C 6.222656 -11.140625 6.347656 -11.179688 6.453125 -11.265625 L 6.453125 -11.390625 L 6.40625 -11.421875 C 6.351562 -11.398438 6.285156 -11.375 6.203125 -11.34375 C 6.117188 -11.320312 6.050781 -11.296875 6 -11.265625 Z M 17.546875 -18.421875 C 17.578125 -18.441406 17.617188 -18.453125 17.671875 -18.453125 C 17.671875 -18.429688 17.675781 -18.40625 17.6875 -18.375 C 17.707031 -18.34375 17.71875 -18.328125 17.71875 -18.328125 C 17.6875 -18.273438 17.644531 -18.210938 17.59375 -18.140625 C 17.539062 -18.078125 17.488281 -18.046875 17.4375 -18.046875 C 17.4375 -18.234375 17.472656 -18.359375 17.546875 -18.421875 Z M 6.859375 -24.78125 L 7.1875 -24.78125 C 7.113281 -24.675781 7.0625 -24.625 7.03125 -24.625 C 7 -24.625 6.941406 -24.675781 6.859375 -24.78125 Z M 11.515625 -13.6875 C 11.535156 -13.6875 11.550781 -13.6875 11.5625 -13.6875 C 11.582031 -13.6875 11.609375 -13.6875 11.640625 -13.6875 C 11.710938 -13.6875 11.765625 -13.726562 11.796875 -13.8125 C 11.765625 -13.8125 11.742188 -13.8125 11.734375 -13.8125 C 11.722656 -13.8125 11.703125 -13.8125 11.671875 -13.8125 C 11.585938 -13.8125 11.535156 -13.769531 11.515625 -13.6875 Z M 14.015625 -15.09375 C 13.992188 -15.113281 13.96875 -15.128906 13.9375 -15.140625 C 13.90625 -15.160156 13.890625 -15.171875 13.890625 -15.171875 C 13.867188 -15.140625 13.847656 -15.117188 13.828125 -15.109375 C 13.816406 -15.097656 13.796875 -15.078125 13.765625 -15.046875 L 13.9375 -15.046875 C 13.96875 -15.046875 13.984375 -15.050781 13.984375 -15.0625 C 13.984375 -15.082031 13.992188 -15.09375 14.015625 -15.09375 Z M 16.765625 -17.34375 C 16.765625 -17.289062 16.726562 -17.238281 16.65625 -17.1875 C 16.65625 -17.289062 16.691406 -17.34375 16.765625 -17.34375 Z M 17.4375 -18 C 17.40625 -17.914062 17.347656 -17.875 17.265625 -17.875 C 17.265625 -17.957031 17.320312 -18 17.4375 -18 Z M 13.9375 -14.390625 C 13.96875 -14.390625 13.984375 -14.394531 13.984375 -14.40625 C 13.984375 -14.414062 13.992188 -14.421875 14.015625 -14.421875 C 13.992188 -14.421875 13.96875 -14.425781 13.9375 -14.4375 C 13.90625 -14.457031 13.890625 -14.46875 13.890625 -14.46875 C 13.835938 -14.414062 13.785156 -14.375 13.734375 -14.34375 C 13.785156 -14.34375 13.820312 -14.347656 13.84375 -14.359375 C 13.875 -14.378906 13.90625 -14.390625 13.9375 -14.390625 Z M 5.390625 -10.4375 L 5.34375 -10.359375 L 5.390625 -10.3125 Z M 9.53125 -14.640625 L 9.5 -14.546875 L 9.53125 -14.546875 Z M 6 -7.234375 L 6 -7.1875 L 6.046875 -7.109375 Z M 12.53125 -14.1875 L 12.578125 -14.21875 L 12.53125 -14.21875 Z M 18.375 -19.234375 C 18.375 -19.210938 18.359375 -19.203125 18.328125 -19.203125 C 18.328125 -19.203125 18.332031 -19.207031 18.34375 -19.21875 C 18.363281 -19.226562 18.375 -19.234375 18.375 -19.234375 Z M 12.171875 -14.0625 L 12.203125 -14.0625 L 12.203125 -14.09375 Z M 8.71875 -13.28125 L 8.671875 -13.234375 L 8.71875 -13.234375 Z M 7.109375 -9.5 L 7.109375 -9.53125 L 7.078125 -9.53125 Z M 19.734375 -19.15625 L 19.78125 -19.109375 L 19.78125 -19.15625 Z M 19.234375 -18.5 L 19.203125 -18.453125 L 19.234375 -18.453125 Z M 4.6875 -10.1875 L 4.734375 -10.15625 L 4.734375 -10.1875 Z M 16.65625 -17.1875 L 16.609375 -17.1875 C 16.609375 -17.1875 16.625 -17.1875 16.65625 -17.1875 Z M 16.890625 -15.953125 L 16.8125 -15.953125 Z M 18.625 5.515625 L 18.625 5.421875 Z M 5.0625 -4.640625 L 4.96875 -4.640625 Z M 5.0625 -4.640625 "/></g></g></g><g fill="#ffe047" fill-opacity="1"><g transform="translate(23.398389, 64.657791)"><g><path d="M 50.65625 0 L 4.84375 0 L 4.84375 -1.578125 C 4.84375 -1.515625 5.765625 -1.484375 7.609375 -1.484375 C 10.828125 -1.484375 12.601562 -2.269531 12.9375 -3.84375 C 13.53125 -7.40625 13.828125 -20.113281 13.828125 -41.96875 C 13.828125 -51.582031 13.695312 -56.847656 13.4375 -57.765625 C 13.300781 -58.492188 12.046875 -59.117188 9.671875 -59.640625 L 6.125 -60.34375 L 6.125 -62.109375 C 13.101562 -61.921875 20.882812 -61.828125 29.46875 -61.828125 C 38.0625 -61.828125 45.0625 -61.921875 50.46875 -62.109375 L 50.765625 -47.796875 L 48.890625 -47.796875 C 48.554688 -49.441406 48.0625 -51.035156 47.40625 -52.578125 C 46.75 -54.128906 45.628906 -55.675781 44.046875 -57.21875 C 42.460938 -58.769531 40.648438 -59.546875 38.609375 -59.546875 L 23.109375 -59.546875 L 23.109375 -32.6875 L 37.71875 -32.6875 C 40.75 -32.6875 42.394531 -35.285156 42.65625 -40.484375 L 45.03125 -40.484375 L 45.03125 -22.71875 L 43.0625 -22.71875 C 42.726562 -27.851562 40.847656 -30.421875 37.421875 -30.421875 L 23.109375 -30.421875 L 23.109375 -6.8125 C 23.109375 -3.65625 24.257812 -2.039062 26.5625 -1.96875 L 41.484375 -1.96875 C 43.191406 -2.039062 44.851562 -3.507812 46.46875 -6.375 C 48.082031 -9.238281 49.050781 -12.117188 49.375 -15.015625 L 51.546875 -15.015625 Z M 50.65625 0 "/></g></g></g><g fill="#ffffff" fill-opacity="1"><g transform="translate(80.971733, 32.256002)"><g><path d="M 8.875 -13.40625 C 8.851562 -13.375 8.828125 -13.359375 8.796875 -13.359375 C 8.765625 -13.359375 8.765625 -13.332031 8.796875 -13.28125 C 8.828125 -13.300781 8.84375 -13.316406 8.84375 -13.328125 C 8.84375 -13.347656 8.851562 -13.375 8.875 -13.40625 C 9.007812 -13.457031 9.117188 -13.53125 9.203125 -13.625 C 9.285156 -13.71875 9.351562 -13.820312 9.40625 -13.9375 C 9.46875 -14.039062 9.546875 -14.109375 9.640625 -14.140625 C 9.734375 -14.171875 9.835938 -14.226562 9.953125 -14.3125 C 9.953125 -14.113281 9.914062 -13.953125 9.84375 -13.828125 C 9.78125 -13.703125 9.71875 -13.570312 9.65625 -13.4375 C 9.632812 -13.351562 9.582031 -13.269531 9.5 -13.1875 C 9.414062 -13.113281 9.375 -13.007812 9.375 -12.875 C 9.375 -12.789062 9.289062 -12.691406 9.125 -12.578125 C 8.957031 -12.523438 8.875 -12.457031 8.875 -12.375 C 8.90625 -12.15625 8.851562 -11.957031 8.71875 -11.78125 C 8.582031 -11.601562 8.5 -11.414062 8.46875 -11.21875 C 8.25 -10.914062 8.070312 -10.570312 7.9375 -10.1875 C 7.820312 -9.832031 7.675781 -9.488281 7.5 -9.15625 C 7.320312 -8.832031 7.125 -8.519531 6.90625 -8.21875 C 6.789062 -8.03125 6.675781 -7.832031 6.5625 -7.625 C 6.457031 -7.414062 6.378906 -7.191406 6.328125 -6.953125 C 6.273438 -6.753906 6.207031 -6.601562 6.125 -6.5 C 6.09375 -6.414062 6.023438 -6.375 5.921875 -6.375 C 5.890625 -6.375 5.859375 -6.378906 5.828125 -6.390625 C 5.804688 -6.398438 5.78125 -6.40625 5.75 -6.40625 C 5.75 -6.101562 5.691406 -5.816406 5.578125 -5.546875 C 5.472656 -5.273438 5.328125 -5.015625 5.140625 -4.765625 C 5.023438 -4.660156 4.941406 -4.515625 4.890625 -4.328125 C 4.835938 -4.148438 4.742188 -3.992188 4.609375 -3.859375 C 4.546875 -3.773438 4.5 -3.65625 4.46875 -3.5 C 4.445312 -3.351562 4.34375 -3.296875 4.15625 -3.328125 C 4.15625 -3.328125 4.144531 -3.3125 4.125 -3.28125 C 4.113281 -3.257812 4.125 -3.234375 4.15625 -3.203125 C 4.207031 -3.035156 4.203125 -2.894531 4.140625 -2.78125 C 4.085938 -2.675781 4.035156 -2.554688 3.984375 -2.421875 C 3.960938 -2.316406 3.921875 -2.210938 3.859375 -2.109375 C 3.804688 -2.015625 3.738281 -1.941406 3.65625 -1.890625 C 3.550781 -1.785156 3.46875 -1.65625 3.40625 -1.5 C 3.351562 -1.351562 3.300781 -1.207031 3.25 -1.0625 C 3.050781 -0.84375 2.941406 -0.597656 2.921875 -0.328125 C 2.890625 -0.140625 2.769531 0.144531 2.5625 0.53125 C 2.363281 0.914062 2.144531 1.289062 1.90625 1.65625 C 1.675781 2.03125 1.492188 2.300781 1.359375 2.46875 C 1.328125 2.488281 1.3125 2.523438 1.3125 2.578125 C 1.3125 2.640625 1.285156 2.6875 1.234375 2.71875 C 1.179688 2.738281 1.117188 2.773438 1.046875 2.828125 C 0.984375 2.890625 0.921875 2.921875 0.859375 2.921875 C 0.835938 2.921875 0.8125 2.910156 0.78125 2.890625 C 0.75 2.878906 0.722656 2.875 0.703125 2.875 C 0.585938 2.820312 0.488281 2.78125 0.40625 2.75 C 0.320312 2.726562 0.269531 2.632812 0.25 2.46875 C 0.25 2.382812 0.207031 2.34375 0.125 2.34375 C 0.09375 2.34375 0.0507812 2.351562 0 2.375 C -0.0507812 2.40625 -0.109375 2.410156 -0.171875 2.390625 C -0.273438 2.171875 -0.273438 1.910156 -0.171875 1.609375 C -0.0859375 1.273438 0 0.941406 0.09375 0.609375 C 0.195312 0.285156 0.273438 -0.0507812 0.328125 -0.40625 C 0.460938 -1.09375 0.640625 -1.742188 0.859375 -2.359375 C 1.078125 -2.972656 1.269531 -3.613281 1.4375 -4.28125 C 1.65625 -5.019531 1.894531 -5.742188 2.15625 -6.453125 C 2.414062 -7.160156 2.679688 -7.859375 2.953125 -8.546875 C 3.066406 -8.847656 3.164062 -9.15625 3.25 -9.46875 C 3.332031 -9.789062 3.425781 -10.101562 3.53125 -10.40625 C 3.726562 -10.84375 3.898438 -11.269531 4.046875 -11.6875 C 4.203125 -12.113281 4.359375 -12.546875 4.515625 -12.984375 C 4.679688 -13.421875 4.847656 -13.863281 5.015625 -14.3125 C 5.179688 -14.769531 5.359375 -15.234375 5.546875 -15.703125 C 5.660156 -16.003906 5.769531 -16.289062 5.875 -16.5625 C 5.988281 -16.84375 6.097656 -17.132812 6.203125 -17.4375 C 6.367188 -17.894531 6.523438 -18.363281 6.671875 -18.84375 C 6.828125 -19.320312 7 -19.78125 7.1875 -20.21875 C 7.351562 -20.664062 7.5 -21.109375 7.625 -21.546875 C 7.75 -21.984375 7.894531 -22.40625 8.0625 -22.8125 C 8.0625 -23.03125 8.109375 -23.234375 8.203125 -23.421875 C 8.296875 -23.617188 8.359375 -23.816406 8.390625 -24.015625 C 8.441406 -24.234375 8.492188 -24.441406 8.546875 -24.640625 C 8.609375 -24.847656 8.648438 -25.046875 8.671875 -25.234375 C 8.722656 -25.429688 8.789062 -25.554688 8.875 -25.609375 C 9.007812 -25.660156 9.117188 -25.691406 9.203125 -25.703125 C 9.285156 -25.722656 9.394531 -25.734375 9.53125 -25.734375 C 9.78125 -25.679688 9.992188 -25.570312 10.171875 -25.40625 C 10.347656 -25.238281 10.492188 -25.046875 10.609375 -24.828125 C 10.742188 -24.554688 10.742188 -24.285156 10.609375 -24.015625 C 10.472656 -23.648438 10.351562 -23.28125 10.25 -22.90625 C 10.15625 -22.539062 10.039062 -22.164062 9.90625 -21.78125 C 9.800781 -21.457031 9.691406 -21.125 9.578125 -20.78125 C 9.460938 -20.4375 9.3125 -20.085938 9.125 -19.734375 C 9.09375 -19.484375 9.015625 -19.238281 8.890625 -19 C 8.773438 -18.769531 8.660156 -18.535156 8.546875 -18.296875 C 8.441406 -18.128906 8.398438 -17.960938 8.421875 -17.796875 C 8.421875 -17.609375 8.367188 -17.457031 8.265625 -17.34375 C 8.128906 -17.175781 8.039062 -16.988281 8 -16.78125 C 7.957031 -16.582031 7.894531 -16.398438 7.8125 -16.234375 C 7.78125 -16.148438 7.757812 -16.0625 7.75 -15.96875 C 7.738281 -15.875 7.703125 -15.800781 7.640625 -15.75 C 7.503906 -15.46875 7.367188 -15.195312 7.234375 -14.9375 C 7.097656 -14.675781 7.015625 -14.382812 6.984375 -14.0625 C 6.847656 -13.84375 6.753906 -13.59375 6.703125 -13.3125 C 6.648438 -13.039062 6.539062 -12.796875 6.375 -12.578125 C 6.320312 -12.523438 6.28125 -12.445312 6.25 -12.34375 C 6.21875 -12.25 6.191406 -12.164062 6.171875 -12.09375 C 6.140625 -12.007812 6.109375 -11.910156 6.078125 -11.796875 C 6.054688 -11.691406 6.015625 -11.609375 5.953125 -11.546875 C 5.796875 -11.390625 5.71875 -11.144531 5.71875 -10.8125 C 5.738281 -10.625 5.679688 -10.429688 5.546875 -10.234375 C 5.410156 -10.046875 5.285156 -9.847656 5.171875 -9.640625 C 5.066406 -9.429688 5.015625 -9.207031 5.015625 -8.96875 C 5.046875 -8.6875 4.9375 -8.4375 4.6875 -8.21875 C 4.519531 -8.132812 4.425781 -7.984375 4.40625 -7.765625 C 4.34375 -7.222656 4.203125 -6.71875 3.984375 -6.25 C 3.929688 -6.132812 3.867188 -6.015625 3.796875 -5.890625 C 3.734375 -5.773438 3.675781 -5.648438 3.625 -5.515625 C 3.507812 -5.234375 3.46875 -4.929688 3.5 -4.609375 C 3.332031 -4.492188 3.238281 -4.410156 3.21875 -4.359375 C 3.207031 -4.304688 3.21875 -4.195312 3.25 -4.03125 C 3.300781 -4.113281 3.351562 -4.203125 3.40625 -4.296875 C 3.46875 -4.390625 3.484375 -4.492188 3.453125 -4.609375 C 3.566406 -4.628906 3.640625 -4.671875 3.671875 -4.734375 C 3.710938 -4.804688 3.75 -4.882812 3.78125 -4.96875 C 4.082031 -5.46875 4.363281 -5.988281 4.625 -6.53125 C 4.882812 -7.082031 5.148438 -7.617188 5.421875 -8.140625 C 5.617188 -8.523438 5.816406 -8.90625 6.015625 -9.28125 C 6.222656 -9.664062 6.425781 -10.039062 6.625 -10.40625 C 6.625 -10.457031 6.648438 -10.535156 6.703125 -10.640625 C 6.953125 -11.109375 7.195312 -11.597656 7.4375 -12.109375 C 7.6875 -12.617188 7.9375 -13.117188 8.1875 -13.609375 C 8.34375 -13.878906 8.503906 -14.15625 8.671875 -14.4375 C 8.835938 -14.726562 9.015625 -15.015625 9.203125 -15.296875 C 9.234375 -15.316406 9.269531 -15.34375 9.3125 -15.375 C 9.351562 -15.40625 9.382812 -15.429688 9.40625 -15.453125 L 9.375 -15.453125 C 9.394531 -15.347656 9.40625 -15.226562 9.40625 -15.09375 C 9.382812 -15.0625 9.359375 -15.035156 9.328125 -15.015625 C 9.304688 -15.003906 9.28125 -14.988281 9.25 -14.96875 C 9.25 -14.90625 9.289062 -14.875 9.375 -14.875 C 9.375 -14.9375 9.375 -14.988281 9.375 -15.03125 C 9.375 -15.070312 9.375 -15.101562 9.375 -15.125 C 9.539062 -15.175781 9.648438 -15.21875 9.703125 -15.25 C 9.703125 -14.863281 9.550781 -14.585938 9.25 -14.421875 C 9.195312 -14.503906 9.140625 -14.503906 9.078125 -14.421875 C 8.835938 -14.347656 8.71875 -14.171875 8.71875 -13.890625 C 8.632812 -13.867188 8.59375 -13.828125 8.59375 -13.765625 C 8.59375 -13.710938 8.59375 -13.660156 8.59375 -13.609375 C 8.5625 -13.578125 8.53125 -13.5625 8.5 -13.5625 C 8.476562 -13.5625 8.484375 -13.519531 8.515625 -13.4375 C 8.515625 -13.46875 8.519531 -13.492188 8.53125 -13.515625 C 8.539062 -13.546875 8.546875 -13.578125 8.546875 -13.609375 C 8.660156 -13.628906 8.71875 -13.738281 8.71875 -13.9375 C 8.738281 -13.9375 8.765625 -13.925781 8.796875 -13.90625 C 8.828125 -13.894531 8.851562 -13.890625 8.875 -13.890625 C 8.875 -13.835938 8.875 -13.769531 8.875 -13.6875 C 8.875 -13.601562 8.875 -13.507812 8.875 -13.40625 Z M 6.984375 -10.53125 C 6.898438 -10.53125 6.875 -10.488281 6.90625 -10.40625 C 6.957031 -10.507812 6.984375 -10.5625 6.984375 -10.5625 C 7.097656 -10.5625 7.113281 -10.585938 7.03125 -10.640625 C 7.03125 -10.585938 7.015625 -10.550781 6.984375 -10.53125 Z M 3.453125 -2.921875 C 3.566406 -2.921875 3.625 -2.972656 3.625 -3.078125 C 3.625 -3.140625 3.582031 -3.171875 3.5 -3.171875 C 3.5 -3.140625 3.5 -3.09375 3.5 -3.03125 C 3.5 -2.976562 3.5 -2.941406 3.5 -2.921875 C 3.46875 -2.890625 3.4375 -2.875 3.40625 -2.875 C 3.382812 -2.875 3.382812 -2.847656 3.40625 -2.796875 C 3.40625 -2.828125 3.410156 -2.847656 3.421875 -2.859375 C 3.441406 -2.867188 3.453125 -2.890625 3.453125 -2.921875 Z M 7.4375 -11.390625 C 7.550781 -11.410156 7.609375 -11.53125 7.609375 -11.75 C 7.691406 -11.832031 7.734375 -11.875 7.734375 -11.875 C 7.785156 -11.875 7.769531 -11.914062 7.6875 -12 C 7.6875 -11.976562 7.671875 -11.925781 7.640625 -11.84375 C 7.617188 -11.757812 7.609375 -11.703125 7.609375 -11.671875 C 7.523438 -11.648438 7.484375 -11.609375 7.484375 -11.546875 C 7.484375 -11.492188 7.484375 -11.441406 7.484375 -11.390625 C 7.453125 -11.359375 7.421875 -11.34375 7.390625 -11.34375 C 7.367188 -11.34375 7.375 -11.316406 7.40625 -11.265625 C 7.40625 -11.296875 7.410156 -11.316406 7.421875 -11.328125 C 7.429688 -11.335938 7.4375 -11.359375 7.4375 -11.390625 Z M 0.40625 1.234375 C 0.539062 1.066406 0.644531 0.875 0.71875 0.65625 C 0.789062 0.4375 0.851562 0.21875 0.90625 0 C 0.957031 -0.21875 0.992188 -0.441406 1.015625 -0.671875 C 1.046875 -0.910156 1.144531 -1.125 1.3125 -1.3125 C 1.34375 -1.34375 1.359375 -1.410156 1.359375 -1.515625 C 1.359375 -1.734375 1.390625 -1.914062 1.453125 -2.0625 C 1.523438 -2.21875 1.585938 -2.394531 1.640625 -2.59375 C 1.671875 -2.695312 1.734375 -2.882812 1.828125 -3.15625 C 1.921875 -3.4375 2.015625 -3.710938 2.109375 -3.984375 C 2.210938 -4.265625 2.289062 -4.441406 2.34375 -4.515625 C 2.425781 -4.710938 2.488281 -4.890625 2.53125 -5.046875 C 2.570312 -5.210938 2.601562 -5.394531 2.625 -5.59375 C 2.738281 -5.914062 2.847656 -6.234375 2.953125 -6.546875 C 3.066406 -6.867188 3.148438 -7.207031 3.203125 -7.5625 C 3.253906 -7.78125 3.320312 -7.988281 3.40625 -8.1875 C 3.550781 -8.40625 3.722656 -8.78125 3.921875 -9.3125 C 4.128906 -9.84375 4.328125 -10.390625 4.515625 -10.953125 C 4.710938 -11.515625 4.851562 -11.921875 4.9375 -12.171875 C 5.039062 -12.472656 5.160156 -12.773438 5.296875 -13.078125 C 5.441406 -13.378906 5.566406 -13.679688 5.671875 -13.984375 C 5.804688 -14.335938 5.941406 -14.691406 6.078125 -15.046875 C 6.222656 -15.398438 6.320312 -15.785156 6.375 -16.203125 C 6.425781 -16.253906 6.453125 -16.296875 6.453125 -16.328125 C 6.585938 -16.648438 6.707031 -16.972656 6.8125 -17.296875 C 6.925781 -17.628906 7.039062 -17.945312 7.15625 -18.25 C 7.289062 -18.75 7.429688 -19.226562 7.578125 -19.6875 C 7.734375 -20.15625 7.894531 -20.632812 8.0625 -21.125 C 8.113281 -21.238281 8.097656 -21.347656 8.015625 -21.453125 C 7.910156 -21.296875 7.84375 -21.160156 7.8125 -21.046875 C 7.644531 -20.359375 7.414062 -19.691406 7.125 -19.046875 C 6.84375 -18.410156 6.59375 -17.75 6.375 -17.0625 C 6.34375 -16.894531 6.285156 -16.722656 6.203125 -16.546875 C 6.117188 -16.367188 6.050781 -16.171875 6 -15.953125 C 5.726562 -15.234375 5.441406 -14.503906 5.140625 -13.765625 C 4.835938 -13.023438 4.550781 -12.285156 4.28125 -11.546875 C 4.21875 -11.359375 4.140625 -11.175781 4.046875 -11 C 3.953125 -10.820312 3.878906 -10.625 3.828125 -10.40625 C 3.710938 -9.9375 3.566406 -9.488281 3.390625 -9.0625 C 3.210938 -8.632812 3.054688 -8.191406 2.921875 -7.734375 C 2.835938 -7.398438 2.738281 -7.078125 2.625 -6.765625 C 2.519531 -6.453125 2.410156 -6.144531 2.296875 -5.84375 C 2.023438 -5.101562 1.765625 -4.347656 1.515625 -3.578125 C 1.273438 -2.804688 1.070312 -2.023438 0.90625 -1.234375 C 0.820312 -0.929688 0.742188 -0.613281 0.671875 -0.28125 C 0.609375 0.0390625 0.519531 0.367188 0.40625 0.703125 C 0.382812 0.753906 0.363281 0.804688 0.34375 0.859375 C 0.332031 0.921875 0.3125 0.976562 0.28125 1.03125 C 0.28125 1.113281 0.320312 1.179688 0.40625 1.234375 Z M 7.9375 -18.125 C 7.9375 -18.320312 7.894531 -18.445312 7.8125 -18.5 C 7.78125 -18.582031 7.738281 -18.625 7.6875 -18.625 C 7.601562 -18.59375 7.535156 -18.492188 7.484375 -18.328125 C 7.484375 -18.253906 7.507812 -18.21875 7.5625 -18.21875 C 7.613281 -18.15625 7.695312 -18.097656 7.8125 -18.046875 C 7.84375 -18.046875 7.863281 -18.054688 7.875 -18.078125 C 7.882812 -18.109375 7.90625 -18.125 7.9375 -18.125 Z M 6.296875 -14.390625 C 6.265625 -14.253906 6.226562 -14.144531 6.1875 -14.0625 C 6.144531 -13.976562 6.109375 -13.878906 6.078125 -13.765625 C 6.054688 -13.679688 6.085938 -13.640625 6.171875 -13.640625 C 6.273438 -13.617188 6.328125 -13.660156 6.328125 -13.765625 C 6.378906 -13.960938 6.367188 -14.171875 6.296875 -14.390625 Z M 6.578125 -8.421875 C 6.523438 -8.398438 6.46875 -8.375 6.40625 -8.34375 C 6.351562 -8.3125 6.300781 -8.285156 6.25 -8.265625 C 6.25 -8.179688 6.265625 -8.113281 6.296875 -8.0625 C 6.367188 -8.03125 6.453125 -8.054688 6.546875 -8.140625 C 6.648438 -8.222656 6.6875 -8.304688 6.65625 -8.390625 C 6.632812 -8.390625 6.625 -8.394531 6.625 -8.40625 C 6.625 -8.414062 6.609375 -8.421875 6.578125 -8.421875 Z M 8.1875 -19.734375 C 8.15625 -19.785156 8.125 -19.8125 8.09375 -19.8125 C 8.070312 -19.8125 8.050781 -19.8125 8.03125 -19.8125 C 8.019531 -19.8125 8.015625 -19.8125 8.015625 -19.8125 C 8.015625 -19.757812 7.988281 -19.675781 7.9375 -19.5625 C 7.9375 -19.539062 7.941406 -19.519531 7.953125 -19.5 C 7.960938 -19.488281 7.96875 -19.457031 7.96875 -19.40625 C 8 -19.425781 8.019531 -19.4375 8.03125 -19.4375 C 8.050781 -19.4375 8.070312 -19.453125 8.09375 -19.484375 C 8.125 -19.535156 8.140625 -19.582031 8.140625 -19.625 C 8.140625 -19.664062 8.15625 -19.703125 8.1875 -19.734375 Z M 7.4375 -16.5625 C 7.4375 -16.5625 7.410156 -16.617188 7.359375 -16.734375 C 7.359375 -16.734375 7.347656 -16.71875 7.328125 -16.6875 C 7.316406 -16.664062 7.3125 -16.65625 7.3125 -16.65625 C 7.289062 -16.625 7.269531 -16.578125 7.25 -16.515625 C 7.238281 -16.460938 7.21875 -16.410156 7.1875 -16.359375 C 7.1875 -16.359375 7.203125 -16.351562 7.234375 -16.34375 C 7.265625 -16.332031 7.289062 -16.328125 7.3125 -16.328125 C 7.394531 -16.347656 7.4375 -16.425781 7.4375 -16.5625 Z M 5.140625 -11.34375 C 5.140625 -11.257812 5.191406 -11.21875 5.296875 -11.21875 C 5.359375 -11.21875 5.394531 -11.222656 5.40625 -11.234375 C 5.414062 -11.253906 5.4375 -11.265625 5.46875 -11.265625 C 5.5 -11.296875 5.515625 -11.316406 5.515625 -11.328125 C 5.515625 -11.335938 5.523438 -11.359375 5.546875 -11.390625 C 5.546875 -11.410156 5.539062 -11.425781 5.53125 -11.4375 C 5.519531 -11.457031 5.515625 -11.46875 5.515625 -11.46875 C 5.453125 -11.4375 5.382812 -11.414062 5.3125 -11.40625 C 5.25 -11.394531 5.191406 -11.375 5.140625 -11.34375 Z M 3.578125 -7.109375 C 3.523438 -7.003906 3.5 -6.960938 3.5 -6.984375 C 3.5 -6.878906 3.550781 -6.835938 3.65625 -6.859375 C 3.65625 -6.859375 3.660156 -6.875 3.671875 -6.90625 C 3.691406 -6.9375 3.703125 -6.953125 3.703125 -6.953125 C 3.648438 -7.003906 3.609375 -7.054688 3.578125 -7.109375 Z M 8.21875 -12.046875 C 8.21875 -12.078125 8.210938 -12.097656 8.203125 -12.109375 C 8.191406 -12.117188 8.1875 -12.140625 8.1875 -12.171875 C 8.1875 -12.140625 8.175781 -12.125 8.15625 -12.125 C 8.144531 -12.125 8.140625 -12.113281 8.140625 -12.09375 C 8.140625 -12.0625 8.140625 -12.035156 8.140625 -12.015625 C 8.140625 -12.003906 8.140625 -11.988281 8.140625 -11.96875 C 8.191406 -12.019531 8.21875 -12.046875 8.21875 -12.046875 Z M 6.828125 -14.921875 C 6.765625 -14.972656 6.734375 -15.015625 6.734375 -15.046875 C 6.734375 -15.015625 6.726562 -15 6.71875 -15 C 6.707031 -15 6.703125 -14.988281 6.703125 -14.96875 C 6.703125 -14.90625 6.710938 -14.863281 6.734375 -14.84375 C 6.734375 -14.894531 6.765625 -14.921875 6.828125 -14.921875 Z M 1.640625 -1.640625 L 1.640625 -1.609375 L 1.6875 -1.640625 Z M 8.015625 -12.453125 L 8.015625 -12.53125 Z M 8.140625 -12.828125 L 8.1875 -12.78125 L 8.1875 -12.828125 Z M 6.453125 -9.453125 L 6.40625 -9.453125 L 6.453125 -9.40625 Z M 4.640625 -9.40625 L 4.6875 -9.453125 L 4.640625 -9.453125 Z M 6.578125 -9.78125 L 6.578125 -9.75 L 6.625 -9.78125 Z M 7.359375 -10.484375 L 7.359375 -10.40625 L 7.40625 -10.484375 Z M 8.296875 -13.15625 L 8.34375 -13.15625 L 8.296875 -13.203125 Z M 6.578125 -9.046875 L 6.578125 -9.125 Z M 6.25 -9.046875 L 6.328125 -9.078125 L 6.25 -9.125 Z M 4.640625 -5.21875 L 4.640625 -5.1875 L 4.6875 -5.21875 Z M 4.515625 -5.71875 L 4.515625 -5.75 L 4.484375 -5.71875 Z M 5.140625 -6.25 L 5.09375 -6.25 L 5.140625 -6.203125 Z M 5.34375 -6.578125 L 5.265625 -6.53125 L 5.34375 -6.53125 Z M 5.671875 -7.078125 L 5.625 -7.109375 L 5.625 -7.078125 Z M 20.21875 -1.765625 C 20.300781 -1.378906 20.15625 -1.09375 19.78125 -0.90625 C 19.582031 -0.820312 19.394531 -0.695312 19.21875 -0.53125 C 19.039062 -0.363281 18.84375 -0.210938 18.625 -0.078125 C 18.570312 -0.0546875 18.53125 -0.0195312 18.5 0.03125 C 18.46875 0.09375 18.425781 0.148438 18.375 0.203125 C 18.457031 0.285156 18.523438 0.34375 18.578125 0.375 C 18.492188 0.476562 18.40625 0.582031 18.3125 0.6875 C 18.21875 0.800781 18.101562 0.898438 17.96875 0.984375 C 17.851562 1.035156 17.738281 1.109375 17.625 1.203125 C 17.519531 1.304688 17.398438 1.410156 17.265625 1.515625 C 17.148438 1.597656 17.023438 1.664062 16.890625 1.71875 C 16.753906 1.78125 16.601562 1.8125 16.4375 1.8125 C 16.414062 1.8125 16.375 1.800781 16.3125 1.78125 C 16.257812 1.769531 16.222656 1.78125 16.203125 1.8125 C 16.054688 1.914062 15.914062 1.96875 15.78125 1.96875 C 15.539062 1.96875 15.160156 1.832031 14.640625 1.5625 C 14.117188 1.289062 13.773438 1.070312 13.609375 0.90625 C 13.472656 0.707031 13.332031 0.523438 13.1875 0.359375 C 13.050781 0.203125 12.929688 0.015625 12.828125 -0.203125 C 12.691406 -0.421875 12.582031 -0.640625 12.5 -0.859375 C 12.46875 -0.941406 12.425781 -1.035156 12.375 -1.140625 C 12.320312 -1.253906 12.304688 -1.367188 12.328125 -1.484375 C 12.171875 -1.566406 12.082031 -1.695312 12.0625 -1.875 C 12.050781 -2.050781 12.019531 -2.207031 11.96875 -2.34375 C 11.851562 -2.5625 11.785156 -2.890625 11.765625 -3.328125 C 11.753906 -3.765625 11.75 -4.109375 11.75 -4.359375 C 11.75 -4.679688 11.75 -5.007812 11.75 -5.34375 C 11.75 -5.675781 11.75 -6.019531 11.75 -6.375 C 11.75 -6.507812 11.75 -6.660156 11.75 -6.828125 C 11.75 -6.992188 11.789062 -7.128906 11.875 -7.234375 C 11.90625 -7.285156 11.921875 -7.378906 11.921875 -7.515625 C 11.921875 -7.960938 11.984375 -8.382812 12.109375 -8.78125 C 12.234375 -9.175781 12.335938 -9.59375 12.421875 -10.03125 C 12.421875 -10.082031 12.472656 -10.132812 12.578125 -10.1875 L 12.53125 -10.1875 C 12.5625 -10.050781 12.566406 -9.898438 12.546875 -9.734375 C 12.535156 -9.578125 12.503906 -9.429688 12.453125 -9.296875 C 12.398438 -9.128906 12.363281 -8.945312 12.34375 -8.75 C 12.332031 -8.5625 12.300781 -8.382812 12.25 -8.21875 C 12.164062 -7.914062 12.117188 -7.59375 12.109375 -7.25 C 12.097656 -6.90625 12.035156 -6.585938 11.921875 -6.296875 C 11.921875 -6.234375 11.921875 -6.15625 11.921875 -6.0625 C 11.921875 -5.96875 11.921875 -5.894531 11.921875 -5.84375 C 11.921875 -5.507812 11.921875 -5.171875 11.921875 -4.828125 C 11.921875 -4.484375 11.921875 -4.148438 11.921875 -3.828125 C 11.921875 -3.796875 11.925781 -3.738281 11.9375 -3.65625 C 11.957031 -3.570312 11.992188 -3.503906 12.046875 -3.453125 C 12.046875 -3.722656 12.078125 -3.972656 12.140625 -4.203125 C 12.210938 -4.441406 12.234375 -4.671875 12.203125 -4.890625 C 12.179688 -5.273438 12.203125 -5.664062 12.265625 -6.0625 C 12.335938 -6.457031 12.390625 -6.847656 12.421875 -7.234375 C 12.492188 -7.421875 12.535156 -7.617188 12.546875 -7.828125 C 12.566406 -8.035156 12.601562 -8.234375 12.65625 -8.421875 C 12.71875 -8.640625 12.78125 -8.851562 12.84375 -9.0625 C 12.914062 -9.269531 12.953125 -9.46875 12.953125 -9.65625 C 12.921875 -9.789062 12.929688 -9.925781 12.984375 -10.0625 C 13.046875 -10.207031 13.085938 -10.347656 13.109375 -10.484375 C 13.191406 -10.734375 13.28125 -10.976562 13.375 -11.21875 C 13.476562 -11.46875 13.539062 -11.726562 13.5625 -12 C 13.5625 -12.132812 13.601562 -12.21875 13.6875 -12.25 C 13.851562 -12.363281 13.988281 -12.644531 14.09375 -13.09375 C 14.207031 -13.539062 14.28125 -13.863281 14.3125 -14.0625 C 14.332031 -14.113281 14.40625 -14.28125 14.53125 -14.5625 C 14.65625 -14.851562 14.742188 -15.015625 14.796875 -15.046875 C 14.910156 -15.046875 14.9375 -15.097656 14.875 -15.203125 C 14.875 -15.265625 14.867188 -15.316406 14.859375 -15.359375 C 14.847656 -15.398438 14.851562 -15.445312 14.875 -15.5 C 14.9375 -15.582031 14.953125 -15.664062 14.921875 -15.75 C 14.890625 -15.832031 14.875 -15.910156 14.875 -15.984375 C 14.875 -16.097656 14.914062 -16.1875 15 -16.25 C 15.082031 -16.320312 15.148438 -16.398438 15.203125 -16.484375 C 15.203125 -16.484375 15.203125 -16.492188 15.203125 -16.515625 C 15.203125 -16.546875 15.203125 -16.578125 15.203125 -16.609375 C 15.234375 -16.742188 15.253906 -16.875 15.265625 -17 C 15.285156 -17.125 15.320312 -17.238281 15.375 -17.34375 C 15.34375 -17.476562 15.351562 -17.597656 15.40625 -17.703125 C 15.46875 -17.816406 15.515625 -17.929688 15.546875 -18.046875 C 15.734375 -18.453125 15.851562 -18.914062 15.90625 -19.4375 C 15.90625 -19.601562 15.929688 -19.726562 15.984375 -19.8125 C 16.128906 -19.925781 16.207031 -20.050781 16.21875 -20.1875 C 16.226562 -20.320312 16.25 -20.472656 16.28125 -20.640625 C 16.363281 -20.941406 16.453125 -21.253906 16.546875 -21.578125 C 16.640625 -21.910156 16.726562 -22.238281 16.8125 -22.5625 C 16.863281 -22.675781 16.890625 -22.785156 16.890625 -22.890625 C 16.890625 -23.003906 16.890625 -23.117188 16.890625 -23.234375 C 17.003906 -23.234375 17.019531 -23.257812 16.9375 -23.3125 C 16.9375 -23.257812 16.921875 -23.234375 16.890625 -23.234375 C 16.867188 -23.203125 16.84375 -23.175781 16.8125 -23.15625 C 16.78125 -23.144531 16.765625 -23.140625 16.765625 -23.140625 C 16.628906 -22.753906 16.503906 -22.351562 16.390625 -21.9375 C 16.285156 -21.53125 16.140625 -21.140625 15.953125 -20.765625 C 15.835938 -20.210938 15.671875 -19.675781 15.453125 -19.15625 C 15.234375 -18.632812 15.054688 -18.097656 14.921875 -17.546875 C 14.921875 -17.441406 14.851562 -17.390625 14.71875 -17.390625 C 14.6875 -17.390625 14.671875 -17.414062 14.671875 -17.46875 C 14.753906 -17.738281 14.835938 -18.007812 14.921875 -18.28125 C 15.003906 -18.5625 15.085938 -18.835938 15.171875 -19.109375 C 15.304688 -19.472656 15.425781 -19.820312 15.53125 -20.15625 C 15.644531 -20.5 15.757812 -20.835938 15.875 -21.171875 C 16.03125 -21.640625 16.171875 -22.117188 16.296875 -22.609375 C 16.421875 -23.097656 16.550781 -23.566406 16.6875 -24.015625 C 16.6875 -24.117188 16.675781 -24.1875 16.65625 -24.21875 C 16.539062 -24.21875 16.46875 -24.203125 16.4375 -24.171875 C 16.382812 -23.984375 16.289062 -23.851562 16.15625 -23.78125 C 16.019531 -23.707031 15.894531 -23.601562 15.78125 -23.46875 C 15.757812 -23.445312 15.734375 -23.4375 15.703125 -23.4375 C 15.671875 -23.4375 15.640625 -23.441406 15.609375 -23.453125 C 15.585938 -23.460938 15.550781 -23.46875 15.5 -23.46875 C 15.5 -23.46875 15.488281 -23.46875 15.46875 -23.46875 C 15.457031 -23.46875 15.441406 -23.457031 15.421875 -23.4375 C 15.304688 -23.320312 15.191406 -23.222656 15.078125 -23.140625 C 14.972656 -23.054688 14.894531 -22.9375 14.84375 -22.78125 C 14.8125 -22.695312 14.757812 -22.617188 14.6875 -22.546875 C 14.625 -22.484375 14.566406 -22.410156 14.515625 -22.328125 C 14.265625 -22.023438 14.039062 -21.734375 13.84375 -21.453125 C 13.65625 -21.179688 13.476562 -20.867188 13.3125 -20.515625 C 13.207031 -20.265625 13.070312 -20.140625 12.90625 -20.140625 C 12.851562 -20.140625 12.828125 -20.085938 12.828125 -19.984375 C 12.878906 -19.867188 12.894531 -19.785156 12.875 -19.734375 C 12.757812 -19.484375 12.632812 -19.234375 12.5 -18.984375 C 12.363281 -18.742188 12.253906 -18.488281 12.171875 -18.21875 C 12.140625 -18.15625 12.082031 -18.101562 12 -18.0625 C 11.914062 -18.019531 11.890625 -17.945312 11.921875 -17.84375 C 11.921875 -17.675781 11.851562 -17.539062 11.71875 -17.4375 C 11.6875 -17.40625 11.644531 -17.390625 11.59375 -17.390625 C 11.539062 -17.390625 11.484375 -17.394531 11.421875 -17.40625 C 11.367188 -17.425781 11.316406 -17.445312 11.265625 -17.46875 C 11.265625 -17.5 11.253906 -17.519531 11.234375 -17.53125 C 11.222656 -17.539062 11.21875 -17.5625 11.21875 -17.59375 C 11.164062 -17.539062 11.140625 -17.5 11.140625 -17.46875 C 11.109375 -17.46875 11.078125 -17.46875 11.046875 -17.46875 C 11.023438 -17.46875 11 -17.46875 10.96875 -17.46875 C 10.96875 -17.519531 10.96875 -17.570312 10.96875 -17.625 C 10.96875 -17.6875 10.96875 -17.742188 10.96875 -17.796875 C 11 -17.828125 11.035156 -17.84375 11.078125 -17.84375 C 11.117188 -17.84375 11.113281 -17.882812 11.0625 -17.96875 C 11 -17.851562 10.96875 -17.796875 10.96875 -17.796875 C 10.75 -17.710938 10.640625 -17.535156 10.640625 -17.265625 C 10.566406 -17.265625 10.554688 -17.238281 10.609375 -17.1875 C 10.609375 -17.207031 10.613281 -17.21875 10.625 -17.21875 C 10.632812 -17.21875 10.640625 -17.234375 10.640625 -17.265625 C 10.753906 -17.378906 10.863281 -17.445312 10.96875 -17.46875 C 11 -17.445312 11.015625 -17.425781 11.015625 -17.40625 C 11.015625 -17.394531 11.03125 -17.375 11.0625 -17.34375 C 11.0625 -17.375 11.085938 -17.414062 11.140625 -17.46875 C 11.171875 -17.46875 11.195312 -17.46875 11.21875 -17.46875 C 11.25 -17.46875 11.28125 -17.46875 11.3125 -17.46875 C 11.3125 -17.414062 11.300781 -17.335938 11.28125 -17.234375 C 11.269531 -17.140625 11.304688 -17.066406 11.390625 -17.015625 C 11.523438 -16.929688 11.550781 -16.835938 11.46875 -16.734375 C 11.4375 -16.617188 11.398438 -16.523438 11.359375 -16.453125 C 11.328125 -16.390625 11.253906 -16.332031 11.140625 -16.28125 C 11.085938 -16.382812 11.03125 -16.382812 10.96875 -16.28125 C 10.914062 -16.25 10.863281 -16.226562 10.8125 -16.21875 C 10.757812 -16.207031 10.703125 -16.1875 10.640625 -16.15625 L 10.640625 -16.109375 C 10.640625 -16.171875 10.640625 -16.207031 10.640625 -16.21875 C 10.640625 -16.226562 10.640625 -16.25 10.640625 -16.28125 C 10.640625 -16.3125 10.628906 -16.335938 10.609375 -16.359375 C 10.609375 -16.441406 10.566406 -16.441406 10.484375 -16.359375 C 10.429688 -16.171875 10.34375 -16.019531 10.21875 -15.90625 C 10.09375 -15.800781 10.03125 -15.648438 10.03125 -15.453125 C 9.914062 -15.453125 9.859375 -15.382812 9.859375 -15.25 C 9.835938 -15.25 9.8125 -15.25 9.78125 -15.25 C 9.757812 -15.25 9.734375 -15.25 9.703125 -15.25 C 9.703125 -15.300781 9.703125 -15.363281 9.703125 -15.4375 C 9.703125 -15.507812 9.703125 -15.570312 9.703125 -15.625 C 9.734375 -15.644531 9.765625 -15.65625 9.796875 -15.65625 C 9.835938 -15.65625 9.832031 -15.6875 9.78125 -15.75 C 9.757812 -15.71875 9.75 -15.691406 9.75 -15.671875 C 9.75 -15.660156 9.734375 -15.644531 9.703125 -15.625 C 9.648438 -15.570312 9.539062 -15.515625 9.375 -15.453125 L 9.40625 -15.453125 C 9.382812 -15.535156 9.394531 -15.609375 9.4375 -15.671875 C 9.476562 -15.742188 9.507812 -15.820312 9.53125 -15.90625 C 9.832031 -16.476562 10.242188 -17.222656 10.765625 -18.140625 C 11.285156 -19.066406 11.859375 -20.019531 12.484375 -21 C 13.117188 -21.988281 13.757812 -22.894531 14.40625 -23.71875 C 15.050781 -24.539062 15.648438 -25.144531 16.203125 -25.53125 C 16.222656 -25.53125 16.265625 -25.554688 16.328125 -25.609375 C 16.546875 -25.910156 16.785156 -26.09375 17.046875 -26.15625 C 17.304688 -26.226562 17.613281 -26.265625 17.96875 -26.265625 C 18.207031 -26.210938 18.382812 -26.101562 18.5 -25.9375 C 18.71875 -25.664062 18.828125 -25.394531 18.828125 -25.125 C 18.773438 -24.40625 18.660156 -23.695312 18.484375 -23 C 18.304688 -22.300781 18.078125 -21.609375 17.796875 -20.921875 C 17.773438 -20.835938 17.753906 -20.753906 17.734375 -20.671875 C 17.722656 -20.585938 17.703125 -20.519531 17.671875 -20.46875 C 17.648438 -20.28125 17.617188 -20.101562 17.578125 -19.9375 C 17.535156 -19.769531 17.457031 -19.632812 17.34375 -19.53125 C 17.289062 -19.46875 17.253906 -19.398438 17.234375 -19.328125 C 17.222656 -19.265625 17.207031 -19.191406 17.1875 -19.109375 C 17.1875 -19.003906 17.171875 -18.925781 17.140625 -18.875 C 17.035156 -18.65625 16.953125 -18.414062 16.890625 -18.15625 C 16.835938 -17.894531 16.785156 -17.640625 16.734375 -17.390625 C 16.648438 -17.117188 16.5625 -16.84375 16.46875 -16.5625 C 16.375 -16.289062 16.285156 -16.003906 16.203125 -15.703125 C 16.085938 -15.671875 16.03125 -15.613281 16.03125 -15.53125 C 16.03125 -15.457031 16.003906 -15.363281 15.953125 -15.25 C 15.921875 -15.164062 15.890625 -15.082031 15.859375 -15 C 15.835938 -14.914062 15.800781 -14.820312 15.75 -14.71875 C 15.71875 -14.632812 15.679688 -14.554688 15.640625 -14.484375 C 15.597656 -14.421875 15.578125 -14.347656 15.578125 -14.265625 C 15.609375 -14.148438 15.601562 -14.054688 15.5625 -13.984375 C 15.519531 -13.921875 15.484375 -13.847656 15.453125 -13.765625 C 15.398438 -13.660156 15.332031 -13.570312 15.25 -13.5 C 15.164062 -13.4375 15.097656 -13.414062 15.046875 -13.4375 C 14.929688 -13.570312 14.929688 -13.722656 15.046875 -13.890625 C 15.046875 -13.972656 15.03125 -14.015625 15 -14.015625 C 14.914062 -14.097656 14.875 -14.097656 14.875 -14.015625 C 14.769531 -13.960938 14.71875 -13.910156 14.71875 -13.859375 C 14.664062 -13.691406 14.640625 -13.539062 14.640625 -13.40625 C 14.640625 -13.269531 14.648438 -13.101562 14.671875 -12.90625 C 14.753906 -12.988281 14.820312 -13.050781 14.875 -13.09375 C 14.9375 -13.132812 14.992188 -13.171875 15.046875 -13.203125 C 15.128906 -13.117188 15.144531 -12.976562 15.09375 -12.78125 C 15.0625 -12.644531 15.023438 -12.492188 14.984375 -12.328125 C 14.941406 -12.171875 14.867188 -12.019531 14.765625 -11.875 C 14.679688 -11.851562 14.640625 -11.742188 14.640625 -11.546875 C 14.640625 -11.359375 14.628906 -11.160156 14.609375 -10.953125 C 14.597656 -10.742188 14.535156 -10.546875 14.421875 -10.359375 C 14.367188 -10.304688 14.34375 -10.195312 14.34375 -10.03125 C 14.34375 -9.78125 14.273438 -9.546875 14.140625 -9.328125 C 14.054688 -9.140625 14 -8.925781 13.96875 -8.6875 C 13.945312 -8.457031 13.867188 -8.25 13.734375 -8.0625 C 13.703125 -8.03125 13.6875 -7.976562 13.6875 -7.90625 C 13.6875 -7.84375 13.6875 -7.785156 13.6875 -7.734375 C 13.738281 -7.515625 13.726562 -7.289062 13.65625 -7.0625 C 13.59375 -6.84375 13.585938 -6.625 13.640625 -6.40625 C 13.640625 -6.382812 13.632812 -6.363281 13.625 -6.34375 C 13.613281 -6.332031 13.609375 -6.316406 13.609375 -6.296875 C 13.492188 -6.097656 13.429688 -5.890625 13.421875 -5.671875 C 13.410156 -5.453125 13.40625 -5.25 13.40625 -5.0625 C 13.40625 -4.914062 13.394531 -4.769531 13.375 -4.625 C 13.363281 -4.476562 13.332031 -4.332031 13.28125 -4.1875 C 13.144531 -3.863281 13.144531 -3.550781 13.28125 -3.25 C 13.332031 -3.113281 13.390625 -2.804688 13.453125 -2.328125 C 13.523438 -1.847656 13.5625 -1.535156 13.5625 -1.390625 C 13.539062 -1.285156 13.582031 -1.164062 13.6875 -1.03125 C 13.738281 -0.976562 13.785156 -0.914062 13.828125 -0.84375 C 13.867188 -0.769531 13.878906 -0.691406 13.859375 -0.609375 C 13.828125 -0.472656 13.84375 -0.359375 13.90625 -0.265625 C 13.976562 -0.171875 14.015625 -0.0664062 14.015625 0.046875 C 14.015625 0.148438 14.039062 0.203125 14.09375 0.203125 C 14.257812 0.316406 14.40625 0.453125 14.53125 0.609375 C 14.65625 0.773438 14.800781 0.914062 14.96875 1.03125 C 15.050781 1.050781 15.144531 1.082031 15.25 1.125 C 15.363281 1.164062 15.472656 1.1875 15.578125 1.1875 C 15.847656 1.1875 16.164062 1.097656 16.53125 0.921875 C 16.90625 0.742188 17.269531 0.535156 17.625 0.296875 C 17.988281 0.0664062 18.265625 -0.113281 18.453125 -0.25 C 18.671875 -0.46875 18.894531 -0.675781 19.125 -0.875 C 19.363281 -1.082031 19.59375 -1.296875 19.8125 -1.515625 C 19.863281 -1.578125 19.914062 -1.640625 19.96875 -1.703125 C 20.03125 -1.773438 20.113281 -1.796875 20.21875 -1.765625 Z M 11.46875 -18.65625 C 11.4375 -18.632812 11.40625 -18.625 11.375 -18.625 C 11.351562 -18.625 11.359375 -18.582031 11.390625 -18.5 C 11.390625 -18.550781 11.394531 -18.582031 11.40625 -18.59375 C 11.414062 -18.613281 11.421875 -18.632812 11.421875 -18.65625 C 11.453125 -18.6875 11.488281 -18.703125 11.53125 -18.703125 C 11.570312 -18.703125 11.566406 -18.726562 11.515625 -18.78125 C 11.515625 -18.757812 11.503906 -18.738281 11.484375 -18.71875 C 11.472656 -18.707031 11.46875 -18.6875 11.46875 -18.65625 Z M 13.234375 -21.5 C 13.210938 -21.46875 13.1875 -21.453125 13.15625 -21.453125 C 13.125 -21.453125 13.125 -21.425781 13.15625 -21.375 C 13.1875 -21.40625 13.203125 -21.425781 13.203125 -21.4375 C 13.203125 -21.445312 13.210938 -21.46875 13.234375 -21.5 C 13.234375 -21.53125 13.253906 -21.546875 13.296875 -21.546875 C 13.335938 -21.546875 13.332031 -21.570312 13.28125 -21.625 C 13.28125 -21.59375 13.269531 -21.570312 13.25 -21.5625 C 13.238281 -21.550781 13.234375 -21.53125 13.234375 -21.5 Z M 12.25 -20.015625 C 12.21875 -19.992188 12.1875 -19.984375 12.15625 -19.984375 C 12.132812 -19.984375 12.140625 -19.953125 12.171875 -19.890625 C 12.191406 -19.921875 12.203125 -19.960938 12.203125 -20.015625 C 12.316406 -20.015625 12.375 -20.070312 12.375 -20.1875 C 12.425781 -20.207031 12.476562 -20.25 12.53125 -20.3125 C 12.53125 -20.3125 12.523438 -20.332031 12.515625 -20.375 C 12.503906 -20.414062 12.484375 -20.445312 12.453125 -20.46875 C 12.453125 -20.445312 12.445312 -20.4375 12.4375 -20.4375 C 12.425781 -20.4375 12.421875 -20.40625 12.421875 -20.34375 C 12.421875 -20.320312 12.421875 -20.296875 12.421875 -20.265625 C 12.421875 -20.234375 12.421875 -20.191406 12.421875 -20.140625 C 12.304688 -20.140625 12.25 -20.097656 12.25 -20.015625 Z M 13.859375 -10.859375 C 13.710938 -10.796875 13.671875 -10.695312 13.734375 -10.5625 C 13.734375 -10.539062 13.738281 -10.507812 13.75 -10.46875 C 13.757812 -10.425781 13.765625 -10.40625 13.765625 -10.40625 C 13.878906 -10.40625 13.960938 -10.429688 14.015625 -10.484375 C 14.046875 -10.535156 14.070312 -10.582031 14.09375 -10.625 C 14.125 -10.664062 14.140625 -10.703125 14.140625 -10.734375 C 14.191406 -10.867188 14.242188 -11.015625 14.296875 -11.171875 C 14.359375 -11.335938 14.398438 -11.492188 14.421875 -11.640625 C 14.316406 -11.691406 14.25 -11.71875 14.21875 -11.71875 C 14.082031 -11.71875 13.988281 -11.597656 13.9375 -11.359375 C 13.882812 -11.128906 13.859375 -10.960938 13.859375 -10.859375 Z M 13.609375 -9.125 C 13.691406 -9.257812 13.664062 -9.367188 13.53125 -9.453125 C 13.46875 -9.484375 13.414062 -9.476562 13.375 -9.4375 C 13.332031 -9.394531 13.300781 -9.359375 13.28125 -9.328125 C 13.226562 -9.273438 13.171875 -9.191406 13.109375 -9.078125 C 13.109375 -9.054688 13.109375 -9.035156 13.109375 -9.015625 C 13.109375 -9.003906 13.109375 -8.988281 13.109375 -8.96875 C 13.191406 -8.820312 13.332031 -8.78125 13.53125 -8.84375 C 13.601562 -8.894531 13.632812 -8.941406 13.625 -8.984375 C 13.613281 -9.023438 13.609375 -9.070312 13.609375 -9.125 Z M 12.625 -6 C 12.707031 -6.269531 12.828125 -6.488281 12.984375 -6.65625 C 13.046875 -6.707031 13.035156 -6.773438 12.953125 -6.859375 C 12.921875 -6.890625 12.863281 -6.90625 12.78125 -6.90625 C 12.726562 -6.90625 12.6875 -6.878906 12.65625 -6.828125 C 12.601562 -6.765625 12.578125 -6.707031 12.578125 -6.65625 C 12.578125 -6.550781 12.566406 -6.445312 12.546875 -6.34375 C 12.535156 -6.25 12.5625 -6.132812 12.625 -6 Z M 13.109375 -8.46875 C 13.085938 -8.351562 13.078125 -8.238281 13.078125 -8.125 C 13.078125 -8.019531 13.078125 -7.898438 13.078125 -7.765625 C 13.097656 -7.765625 13.140625 -7.738281 13.203125 -7.6875 C 13.304688 -7.6875 13.359375 -7.726562 13.359375 -7.8125 C 13.390625 -7.945312 13.375 -8.0625 13.3125 -8.15625 C 13.257812 -8.25 13.191406 -8.351562 13.109375 -8.46875 Z M 12.5 -4.734375 C 12.445312 -4.671875 12.421875 -4.628906 12.421875 -4.609375 C 12.421875 -4.523438 12.472656 -4.484375 12.578125 -4.484375 C 12.578125 -4.484375 12.582031 -4.492188 12.59375 -4.515625 C 12.613281 -4.546875 12.625 -4.5625 12.625 -4.5625 C 12.59375 -4.59375 12.566406 -4.617188 12.546875 -4.640625 C 12.535156 -4.671875 12.519531 -4.703125 12.5 -4.734375 Z M 15.703125 -15.984375 C 15.703125 -15.984375 15.703125 -16 15.703125 -16.03125 C 15.703125 -16.0625 15.703125 -16.078125 15.703125 -16.078125 C 15.617188 -15.992188 15.578125 -15.953125 15.578125 -15.953125 C 15.492188 -15.867188 15.492188 -15.8125 15.578125 -15.78125 C 15.578125 -15.78125 15.585938 -15.785156 15.609375 -15.796875 C 15.640625 -15.816406 15.671875 -15.828125 15.703125 -15.828125 C 15.703125 -15.859375 15.703125 -15.882812 15.703125 -15.90625 C 15.703125 -15.9375 15.703125 -15.960938 15.703125 -15.984375 Z M 12.203125 -2.921875 C 12.203125 -3.054688 12.191406 -3.140625 12.171875 -3.171875 C 12.171875 -3.171875 12.15625 -3.160156 12.125 -3.140625 C 12.101562 -3.128906 12.09375 -3.125 12.09375 -3.125 C 12.09375 -3.09375 12.097656 -3.050781 12.109375 -3 C 12.117188 -2.945312 12.125 -2.894531 12.125 -2.84375 C 12.15625 -2.863281 12.171875 -2.875 12.171875 -2.875 C 12.171875 -2.875 12.179688 -2.890625 12.203125 -2.921875 Z M 14.421875 -12.171875 C 14.347656 -12.140625 14.296875 -12.082031 14.265625 -12 C 14.234375 -12 14.222656 -11.984375 14.234375 -11.953125 C 14.253906 -11.929688 14.28125 -11.921875 14.3125 -11.921875 C 14.3125 -11.921875 14.316406 -11.921875 14.328125 -11.921875 C 14.335938 -11.921875 14.359375 -11.921875 14.390625 -11.921875 C 14.441406 -11.972656 14.46875 -12.03125 14.46875 -12.09375 C 14.46875 -12.113281 14.457031 -12.125 14.4375 -12.125 C 14.425781 -12.125 14.421875 -12.140625 14.421875 -12.171875 Z M 12.625 -3.171875 C 12.644531 -3.171875 12.660156 -3.160156 12.671875 -3.140625 C 12.691406 -3.128906 12.71875 -3.125 12.75 -3.125 C 12.75 -3.125 12.757812 -3.128906 12.78125 -3.140625 C 12.8125 -3.160156 12.828125 -3.171875 12.828125 -3.171875 C 12.828125 -3.222656 12.785156 -3.25 12.703125 -3.25 C 12.703125 -3.25 12.675781 -3.222656 12.625 -3.171875 Z M 15.203125 -14.515625 C 15.203125 -14.535156 15.207031 -14.550781 15.21875 -14.5625 C 15.238281 -14.582031 15.25 -14.609375 15.25 -14.640625 C 15.164062 -14.640625 15.125 -14.625 15.125 -14.59375 C 15.125 -14.539062 15.148438 -14.515625 15.203125 -14.515625 Z M 15.296875 -15.046875 C 15.296875 -15.046875 15.300781 -15.035156 15.3125 -15.015625 C 15.320312 -15.003906 15.328125 -15 15.328125 -15 C 15.390625 -15 15.421875 -15.019531 15.421875 -15.0625 C 15.421875 -15.101562 15.40625 -15.140625 15.375 -15.171875 C 15.320312 -15.117188 15.296875 -15.078125 15.296875 -15.046875 Z M 11.1875 -18.25 L 11.21875 -18.21875 L 11.21875 -18.25 Z M 16.4375 -18.421875 L 16.4375 -18.328125 Z M 12.984375 -21.09375 L 13.03125 -21.125 L 12.984375 -21.125 Z M 13.4375 -21.90625 L 13.484375 -21.953125 L 13.4375 -21.953125 Z M 11.671875 -19.03125 L 11.71875 -19.03125 L 11.671875 -19.078125 Z M 12 -19.5625 L 12 -19.609375 L 11.96875 -19.5625 Z M 13.640625 -9.953125 L 13.609375 -9.984375 L 13.609375 -9.953125 Z M 12.65625 -3.703125 L 12.625 -3.734375 L 12.625 -3.703125 Z M 13.4375 -8.546875 L 13.484375 -8.546875 L 13.4375 -8.640625 Z M 12.625 -5.75 L 12.625 -5.671875 L 12.65625 -5.75 Z M 14.34375 -16.109375 L 14.3125 -16.109375 C 14.332031 -15.835938 14.289062 -15.566406 14.1875 -15.296875 C 13.988281 -14.773438 13.804688 -14.238281 13.640625 -13.6875 C 13.535156 -13.738281 13.507812 -13.863281 13.5625 -14.0625 C 13.644531 -14.300781 13.71875 -14.550781 13.78125 -14.8125 C 13.851562 -15.070312 13.945312 -15.316406 14.0625 -15.546875 C 14.113281 -15.648438 14.144531 -15.753906 14.15625 -15.859375 C 14.175781 -15.972656 14.238281 -16.054688 14.34375 -16.109375 Z M 10.640625 -16.109375 L 10.640625 -16.15625 C 10.671875 -16.039062 10.710938 -15.96875 10.765625 -15.9375 C 10.828125 -15.914062 10.867188 -15.878906 10.890625 -15.828125 C 10.867188 -15.773438 10.835938 -15.710938 10.796875 -15.640625 C 10.753906 -15.578125 10.703125 -15.515625 10.640625 -15.453125 C 10.617188 -15.347656 10.550781 -15.242188 10.4375 -15.140625 C 10.332031 -15.046875 10.222656 -15 10.109375 -15 C 10.085938 -15 10.003906 -15.082031 9.859375 -15.25 C 9.972656 -15.300781 10.03125 -15.367188 10.03125 -15.453125 C 10.332031 -15.453125 10.484375 -15.59375 10.484375 -15.875 C 10.515625 -15.925781 10.535156 -15.976562 10.546875 -16.03125 C 10.554688 -16.082031 10.585938 -16.109375 10.640625 -16.109375 Z M 12.53125 -10.1875 L 12.578125 -10.1875 C 12.492188 -10.707031 12.628906 -11.257812 12.984375 -11.84375 C 13.015625 -11.8125 13.035156 -11.785156 13.046875 -11.765625 C 13.066406 -11.753906 13.078125 -11.75 13.078125 -11.75 C 13.046875 -11.507812 12.992188 -11.265625 12.921875 -11.015625 C 12.859375 -10.765625 12.769531 -10.519531 12.65625 -10.28125 C 12.65625 -10.25 12.640625 -10.234375 12.609375 -10.234375 C 12.585938 -10.234375 12.5625 -10.21875 12.53125 -10.1875 Z M 21.546875 -3.125 L 21.5 -3.125 C 21.5 -3.09375 21.503906 -3.050781 21.515625 -3 C 21.535156 -2.945312 21.53125 -2.894531 21.5 -2.84375 C 21.382812 -2.726562 21.269531 -2.601562 21.15625 -2.46875 C 21.050781 -2.332031 20.929688 -2.207031 20.796875 -2.09375 C 20.773438 -2.070312 20.742188 -2.066406 20.703125 -2.078125 C 20.660156 -2.085938 20.609375 -2.09375 20.546875 -2.09375 C 20.691406 -2.3125 20.84375 -2.492188 21 -2.640625 C 21.164062 -2.796875 21.347656 -2.957031 21.546875 -3.125 Z M 14.3125 -16.109375 L 14.34375 -16.109375 C 14.320312 -16.253906 14.328125 -16.382812 14.359375 -16.5 C 14.398438 -16.625 14.460938 -16.753906 14.546875 -16.890625 C 14.609375 -16.867188 14.640625 -16.84375 14.640625 -16.8125 C 14.640625 -16.488281 14.53125 -16.253906 14.3125 -16.109375 Z M 13.53125 -13.28125 C 13.5 -13.195312 13.460938 -13.117188 13.421875 -13.046875 C 13.378906 -12.984375 13.316406 -12.925781 13.234375 -12.875 C 13.210938 -13.03125 13.269531 -13.175781 13.40625 -13.3125 C 13.425781 -13.3125 13.46875 -13.300781 13.53125 -13.28125 Z M 9.25 -14.421875 C 9.25 -14.367188 9.238281 -14.300781 9.21875 -14.21875 C 9.207031 -14.132812 9.160156 -14.082031 9.078125 -14.0625 C 9.078125 -14.144531 9.078125 -14.210938 9.078125 -14.265625 C 9.078125 -14.316406 9.078125 -14.367188 9.078125 -14.421875 C 9.109375 -14.421875 9.132812 -14.421875 9.15625 -14.421875 C 9.1875 -14.421875 9.21875 -14.421875 9.25 -14.421875 Z M 13.15625 -12.5 C 13.15625 -12.46875 13.160156 -12.453125 13.171875 -12.453125 C 13.191406 -12.453125 13.203125 -12.441406 13.203125 -12.421875 C 13.203125 -12.390625 13.191406 -12.359375 13.171875 -12.328125 C 13.160156 -12.304688 13.15625 -12.296875 13.15625 -12.296875 C 13.125 -12.296875 13.101562 -12.304688 13.09375 -12.328125 C 13.082031 -12.359375 13.078125 -12.375 13.078125 -12.375 C 13.097656 -12.40625 13.109375 -12.425781 13.109375 -12.4375 C 13.109375 -12.445312 13.125 -12.46875 13.15625 -12.5 Z M 11.140625 -16.28125 C 11.085938 -16.226562 11.0625 -16.1875 11.0625 -16.15625 C 11.03125 -16.1875 11.015625 -16.207031 11.015625 -16.21875 C 11.015625 -16.226562 11 -16.25 10.96875 -16.28125 C 11 -16.28125 11.023438 -16.28125 11.046875 -16.28125 C 11.078125 -16.28125 11.109375 -16.28125 11.140625 -16.28125 Z M 9.078125 -14.0625 C 9.003906 -13.976562 8.9375 -13.9375 8.875 -13.9375 L 8.875 -13.890625 C 8.875 -14.003906 8.941406 -14.0625 9.078125 -14.0625 Z M 10.109375 -14.46875 L 10.078125 -14.515625 L 10.109375 -14.515625 Z M 20.21875 -1.765625 C 20.21875 -1.878906 20.289062 -1.9375 20.4375 -1.9375 L 20.390625 -1.9375 C 20.390625 -1.820312 20.332031 -1.765625 20.21875 -1.765625 Z M 20.546875 -2.09375 C 20.546875 -1.988281 20.492188 -1.9375 20.390625 -1.9375 L 20.4375 -1.9375 C 20.4375 -2.019531 20.472656 -2.070312 20.546875 -2.09375 Z M 21.5 -3.125 L 21.546875 -3.125 C 21.597656 -3.15625 21.613281 -3.160156 21.59375 -3.140625 C 21.582031 -3.128906 21.550781 -3.125 21.5 -3.125 Z M 13.859375 -10.859375 C 13.878906 -10.859375 13.894531 -10.847656 13.90625 -10.828125 C 13.925781 -10.816406 13.953125 -10.8125 13.984375 -10.8125 C 13.921875 -10.78125 13.890625 -10.78125 13.890625 -10.8125 C 13.890625 -10.84375 13.878906 -10.859375 13.859375 -10.859375 Z M 13.859375 -10.859375 "/></g></g></g><g fill="#ffffff" fill-opacity="1"><g transform="translate(101.852402, 32.256002)"><g><path d="M 22.5625 -28.53125 C 22.625 -28.53125 22.675781 -28.515625 22.71875 -28.484375 C 22.757812 -28.460938 22.789062 -28.453125 22.8125 -28.453125 C 22.863281 -28.453125 22.90625 -28.492188 22.9375 -28.578125 C 22.9375 -28.597656 22.976562 -28.566406 23.0625 -28.484375 C 23.113281 -28.398438 23.171875 -28.359375 23.234375 -28.359375 C 23.285156 -28.359375 23.3125 -28.375 23.3125 -28.40625 C 23.414062 -28.570312 23.5 -28.65625 23.5625 -28.65625 C 23.5625 -28.65625 23.566406 -28.644531 23.578125 -28.625 C 23.585938 -28.613281 23.609375 -28.609375 23.640625 -28.609375 C 23.742188 -28.554688 23.921875 -28.53125 24.171875 -28.53125 C 24.304688 -28.53125 24.421875 -28.519531 24.515625 -28.5 C 24.617188 -28.488281 24.722656 -28.457031 24.828125 -28.40625 C 24.878906 -28.375 24.953125 -28.378906 25.046875 -28.421875 C 25.148438 -28.460938 25.242188 -28.5 25.328125 -28.53125 C 25.484375 -28.53125 25.617188 -28.488281 25.734375 -28.40625 C 25.816406 -28.375 25.890625 -28.335938 25.953125 -28.296875 C 26.023438 -28.253906 26.101562 -28.234375 26.1875 -28.234375 C 26.269531 -28.234375 26.320312 -28.25 26.34375 -28.28125 C 26.375 -28.3125 26.414062 -28.328125 26.46875 -28.328125 C 26.53125 -28.328125 26.597656 -28.3125 26.671875 -28.28125 C 26.753906 -28.25 26.828125 -28.234375 26.890625 -28.234375 C 26.972656 -28.234375 27.023438 -28.25 27.046875 -28.28125 C 27.160156 -28.332031 27.242188 -28.359375 27.296875 -28.359375 C 27.378906 -28.359375 27.472656 -28.332031 27.578125 -28.28125 C 27.640625 -28.28125 27.691406 -28.28125 27.734375 -28.28125 C 27.773438 -28.28125 27.804688 -28.28125 27.828125 -28.28125 C 27.941406 -28.28125 28.023438 -28.210938 28.078125 -28.078125 C 28.179688 -28.128906 28.265625 -28.15625 28.328125 -28.15625 C 28.410156 -28.15625 28.484375 -28.140625 28.546875 -28.109375 C 28.617188 -28.085938 28.679688 -28.0625 28.734375 -28.03125 C 28.785156 -27.976562 28.851562 -27.957031 28.9375 -27.96875 C 29.019531 -27.988281 29.101562 -27.957031 29.1875 -27.875 C 29.019531 -27.84375 28.851562 -27.820312 28.6875 -27.8125 C 28.53125 -27.800781 28.378906 -27.796875 28.234375 -27.796875 C 27.960938 -27.796875 27.707031 -27.8125 27.46875 -27.84375 C 27.238281 -27.882812 27.003906 -27.9375 26.765625 -28 L 20.96875 -28 C 20.75 -28 20.597656 -27.957031 20.515625 -27.875 C 20.398438 -27.84375 20.300781 -27.8125 20.21875 -27.78125 C 20.144531 -27.757812 20.050781 -27.75 19.9375 -27.75 C 19.832031 -27.75 19.75 -27.765625 19.6875 -27.796875 C 19.601562 -27.847656 19.523438 -27.835938 19.453125 -27.765625 C 19.390625 -27.703125 19.316406 -27.671875 19.234375 -27.671875 C 19.046875 -27.671875 18.851562 -27.65625 18.65625 -27.625 C 18.46875 -27.59375 18.28125 -27.566406 18.09375 -27.546875 C 17.945312 -27.546875 17.8125 -27.53125 17.6875 -27.5 C 17.570312 -27.476562 17.445312 -27.46875 17.3125 -27.46875 C 17.25 -27.46875 17.195312 -27.472656 17.15625 -27.484375 C 17.113281 -27.492188 17.066406 -27.5 17.015625 -27.5 C 16.992188 -27.5 16.960938 -27.5 16.921875 -27.5 C 16.878906 -27.5 16.828125 -27.5 16.765625 -27.5 C 16.660156 -27.5 16.5625 -27.492188 16.46875 -27.484375 C 16.375 -27.472656 16.269531 -27.425781 16.15625 -27.34375 C 16.125 -27.3125 16.066406 -27.296875 15.984375 -27.296875 C 15.960938 -27.296875 15.9375 -27.296875 15.90625 -27.296875 C 15.882812 -27.296875 15.84375 -27.296875 15.78125 -27.296875 C 15.59375 -27.296875 15.378906 -27.265625 15.140625 -27.203125 C 14.910156 -27.148438 14.6875 -27.125 14.46875 -27.125 C 14.332031 -27.125 14.101562 -27.085938 13.78125 -27.015625 C 13.46875 -26.953125 13.160156 -26.875 12.859375 -26.78125 C 12.566406 -26.6875 12.347656 -26.597656 12.203125 -26.515625 C 12.148438 -26.460938 12.097656 -26.40625 12.046875 -26.34375 C 11.992188 -26.289062 11.953125 -26.222656 11.921875 -26.140625 C 11.890625 -26.003906 11.859375 -25.875 11.828125 -25.75 C 11.804688 -25.625 11.796875 -25.492188 11.796875 -25.359375 C 11.828125 -25.203125 11.8125 -25.03125 11.75 -24.84375 C 11.695312 -24.664062 11.660156 -24.484375 11.640625 -24.296875 C 11.523438 -23.691406 11.410156 -23.070312 11.296875 -22.4375 C 11.191406 -21.8125 11.070312 -21.179688 10.9375 -20.546875 C 10.820312 -20.054688 10.707031 -19.554688 10.59375 -19.046875 C 10.488281 -18.546875 10.410156 -18.035156 10.359375 -17.515625 C 10.359375 -17.347656 10.335938 -17.179688 10.296875 -17.015625 C 10.253906 -16.847656 10.207031 -16.695312 10.15625 -16.5625 C 10.125 -16.375 10.070312 -16.191406 10 -16.015625 C 9.9375 -15.835938 9.890625 -15.648438 9.859375 -15.453125 C 9.859375 -15.265625 9.832031 -15.082031 9.78125 -14.90625 C 9.726562 -14.726562 9.71875 -14.53125 9.75 -14.3125 C 9.75 -14.3125 9.75 -14.300781 9.75 -14.28125 C 9.75 -14.269531 9.734375 -14.25 9.703125 -14.21875 C 9.535156 -13.8125 9.4375 -13.394531 9.40625 -12.96875 C 9.382812 -12.539062 9.304688 -12.125 9.171875 -11.71875 C 9.035156 -11.28125 8.929688 -10.84375 8.859375 -10.40625 C 8.785156 -9.96875 8.710938 -9.523438 8.640625 -9.078125 C 8.640625 -8.941406 8.609375 -8.820312 8.546875 -8.71875 C 8.460938 -8.46875 8.40625 -8.21875 8.375 -7.96875 C 8.351562 -7.726562 8.328125 -7.484375 8.296875 -7.234375 C 8.273438 -7.046875 8.242188 -6.851562 8.203125 -6.65625 C 8.160156 -6.46875 8.113281 -6.273438 8.0625 -6.078125 C 8.03125 -5.941406 7.992188 -5.804688 7.953125 -5.671875 C 7.910156 -5.535156 7.863281 -5.398438 7.8125 -5.265625 C 7.78125 -5.148438 7.75 -5.03125 7.71875 -4.90625 C 7.695312 -4.789062 7.6875 -4.660156 7.6875 -4.515625 L 7.6875 -4.28125 C 7.570312 -4.0625 7.492188 -3.832031 7.453125 -3.59375 C 7.421875 -3.363281 7.390625 -3.125 7.359375 -2.875 C 7.359375 -2.851562 7.3125 -2.65625 7.21875 -2.28125 C 7.125 -1.914062 7.035156 -1.550781 6.953125 -1.1875 C 6.867188 -0.832031 6.8125 -0.628906 6.78125 -0.578125 C 6.75 -0.410156 6.710938 -0.25 6.671875 -0.09375 C 6.640625 0.0507812 6.609375 0.21875 6.578125 0.40625 C 6.523438 0.769531 6.445312 1.117188 6.34375 1.453125 C 6.25 1.796875 6.160156 2.132812 6.078125 2.46875 C 5.992188 2.71875 5.84375 2.84375 5.625 2.84375 C 5.601562 2.84375 5.578125 2.832031 5.546875 2.8125 C 5.523438 2.800781 5.5 2.796875 5.46875 2.796875 C 5.351562 2.742188 5.226562 2.660156 5.09375 2.546875 C 4.851562 2.410156 4.71875 2.265625 4.6875 2.109375 C 4.65625 1.960938 4.65625 1.78125 4.6875 1.5625 C 4.820312 0.988281 4.960938 0.410156 5.109375 -0.171875 C 5.265625 -0.765625 5.398438 -1.363281 5.515625 -1.96875 C 5.585938 -2.46875 5.691406 -3.046875 5.828125 -3.703125 C 5.972656 -4.359375 6.125 -5.019531 6.28125 -5.6875 C 6.445312 -6.363281 6.597656 -6.9375 6.734375 -7.40625 C 6.734375 -7.707031 6.773438 -7.992188 6.859375 -8.265625 C 6.941406 -8.535156 7 -8.804688 7.03125 -9.078125 C 7.082031 -9.460938 7.140625 -9.851562 7.203125 -10.25 C 7.273438 -10.65625 7.34375 -11.035156 7.40625 -11.390625 C 7.476562 -11.929688 7.570312 -12.476562 7.6875 -13.03125 C 7.800781 -13.582031 7.910156 -14.117188 8.015625 -14.640625 C 8.128906 -14.796875 8.171875 -14.960938 8.140625 -15.140625 C 8.109375 -15.328125 8.148438 -15.5 8.265625 -15.65625 C 8.285156 -16.039062 8.34375 -16.414062 8.4375 -16.78125 C 8.539062 -17.15625 8.609375 -17.519531 8.640625 -17.875 C 8.691406 -18.238281 8.75 -18.582031 8.8125 -18.90625 C 8.882812 -19.238281 8.945312 -19.566406 9 -19.890625 L 9.25 -21.375 C 9.300781 -21.59375 9.335938 -21.796875 9.359375 -21.984375 C 9.390625 -22.179688 9.421875 -22.375 9.453125 -22.5625 C 9.503906 -22.863281 9.554688 -23.148438 9.609375 -23.421875 C 9.671875 -23.703125 9.71875 -23.976562 9.75 -24.25 C 9.769531 -24.445312 9.800781 -24.640625 9.84375 -24.828125 C 9.882812 -25.023438 9.90625 -25.21875 9.90625 -25.40625 C 9.875 -25.488281 9.859375 -25.582031 9.859375 -25.6875 C 8.796875 -25.414062 7.769531 -25.085938 6.78125 -24.703125 C 6.644531 -24.679688 6.347656 -24.585938 5.890625 -24.421875 C 5.441406 -24.253906 4.953125 -24.066406 4.421875 -23.859375 C 3.890625 -23.660156 3.421875 -23.46875 3.015625 -23.28125 C 2.617188 -23.101562 2.394531 -22.972656 2.34375 -22.890625 C 2.226562 -22.753906 2.078125 -22.679688 1.890625 -22.671875 C 1.703125 -22.660156 1.535156 -22.613281 1.390625 -22.53125 L 1.3125 -22.53125 C 1.289062 -22.5 1.25 -22.484375 1.1875 -22.484375 C 1.132812 -22.484375 1.066406 -22.515625 0.984375 -22.578125 C 0.898438 -22.648438 0.816406 -22.660156 0.734375 -22.609375 C 0.648438 -22.554688 0.5625 -22.519531 0.46875 -22.5 C 0.375 -22.488281 0.285156 -22.484375 0.203125 -22.484375 C -0.015625 -22.535156 -0.109375 -22.671875 -0.078125 -22.890625 C 0.00390625 -23.273438 0.132812 -23.535156 0.3125 -23.671875 C 0.488281 -23.816406 0.726562 -23.941406 1.03125 -24.046875 C 1.351562 -24.179688 1.671875 -24.3125 1.984375 -24.4375 C 2.304688 -24.5625 2.617188 -24.691406 2.921875 -24.828125 C 3.191406 -24.960938 3.460938 -25.0625 3.734375 -25.125 C 4.015625 -25.195312 4.289062 -25.273438 4.5625 -25.359375 C 4.613281 -25.421875 4.6875 -25.453125 4.78125 -25.453125 C 4.882812 -25.453125 4.945312 -25.476562 4.96875 -25.53125 C 5.351562 -25.78125 5.769531 -25.9375 6.21875 -26 C 6.675781 -26.070312 7.097656 -26.203125 7.484375 -26.390625 C 7.867188 -26.472656 8.25 -26.582031 8.625 -26.71875 C 9.007812 -26.851562 9.382812 -26.988281 9.75 -27.125 C 10.070312 -27.207031 10.300781 -27.375 10.4375 -27.625 C 10.570312 -27.789062 10.710938 -27.875 10.859375 -27.875 C 10.929688 -27.875 11 -27.859375 11.0625 -27.828125 C 11.164062 -27.804688 11.265625 -27.773438 11.359375 -27.734375 C 11.460938 -27.691406 11.566406 -27.671875 11.671875 -27.671875 C 11.804688 -27.671875 11.957031 -27.710938 12.125 -27.796875 C 12.507812 -27.796875 12.859375 -27.863281 13.171875 -28 C 13.484375 -28.132812 13.820312 -28.210938 14.1875 -28.234375 C 14.34375 -28.296875 14.4375 -28.3125 14.46875 -28.28125 C 14.550781 -28.226562 14.660156 -28.203125 14.796875 -28.203125 C 14.878906 -28.203125 14.960938 -28.210938 15.046875 -28.234375 C 15.128906 -28.265625 15.195312 -28.296875 15.25 -28.328125 C 15.5 -28.460938 15.785156 -28.53125 16.109375 -28.53125 C 16.171875 -28.53125 16.234375 -28.53125 16.296875 -28.53125 C 16.367188 -28.53125 16.429688 -28.53125 16.484375 -28.53125 C 16.617188 -28.53125 16.738281 -28.535156 16.84375 -28.546875 C 16.957031 -28.566406 17.070312 -28.601562 17.1875 -28.65625 C 17.351562 -28.675781 17.515625 -28.6875 17.671875 -28.6875 C 17.835938 -28.6875 18.003906 -28.6875 18.171875 -28.6875 C 18.335938 -28.6875 18.5 -28.6875 18.65625 -28.6875 C 18.820312 -28.6875 18.988281 -28.675781 19.15625 -28.65625 C 19.207031 -28.601562 19.265625 -28.578125 19.328125 -28.578125 C 19.378906 -28.578125 19.4375 -28.59375 19.5 -28.625 C 19.570312 -28.664062 19.648438 -28.6875 19.734375 -28.6875 C 19.867188 -28.6875 20 -28.6875 20.125 -28.6875 C 20.25 -28.6875 20.363281 -28.6875 20.46875 -28.6875 C 20.550781 -28.6875 20.625 -28.671875 20.6875 -28.640625 C 20.757812 -28.617188 20.828125 -28.609375 20.890625 -28.609375 C 20.960938 -28.609375 21.015625 -28.625 21.046875 -28.65625 C 21.078125 -28.675781 21.132812 -28.6875 21.21875 -28.6875 C 21.289062 -28.6875 21.34375 -28.675781 21.375 -28.65625 C 21.425781 -28.65625 21.492188 -28.632812 21.578125 -28.59375 C 21.660156 -28.550781 21.742188 -28.546875 21.828125 -28.578125 C 21.878906 -28.578125 21.9375 -28.59375 22 -28.625 C 22.070312 -28.664062 22.148438 -28.6875 22.234375 -28.6875 C 22.429688 -28.632812 22.539062 -28.582031 22.5625 -28.53125 Z M 6.328125 -4.03125 C 6.273438 -3.945312 6.253906 -3.863281 6.265625 -3.78125 C 6.285156 -3.695312 6.296875 -3.628906 6.296875 -3.578125 C 6.453125 -3.628906 6.460938 -3.78125 6.328125 -4.03125 Z M 22.359375 -28.484375 C 22.335938 -28.484375 22.328125 -28.46875 22.328125 -28.4375 C 22.328125 -28.414062 22.328125 -28.40625 22.328125 -28.40625 C 22.347656 -28.40625 22.359375 -28.394531 22.359375 -28.375 C 22.359375 -28.363281 22.375 -28.359375 22.40625 -28.359375 C 22.488281 -28.359375 22.539062 -28.414062 22.5625 -28.53125 C 22.507812 -28.5 22.441406 -28.484375 22.359375 -28.484375 Z M 6.828125 -6.859375 L 6.828125 -6.953125 L 6.78125 -6.953125 Z M 6.203125 -0.203125 L 6.171875 -0.25 L 6.171875 -0.203125 Z M 8.265625 -11.59375 L 8.21875 -11.59375 L 8.265625 -11.546875 Z M 7.734375 -11.59375 L 7.8125 -11.59375 Z M 6.5 -4.640625 L 6.5 -4.734375 Z M 6.5 -4.640625 "/></g></g></g><g fill="#ffe047" fill-opacity="1"><g transform="translate(80.971733, 62.98576)"><g><path d="M 8.34375 -22.125 C 10.625 -16.476562 13.0625 -10.765625 15.65625 -4.984375 C 20.53125 -16.296875 22.96875 -22.300781 22.96875 -23 C 22.96875 -23.375 22.695312 -23.671875 22.15625 -23.890625 L 19.75 -24.53125 L 19.75 -25.125 C 21.007812 -25.019531 22.414062 -24.96875 23.96875 -24.96875 C 25.539062 -24.96875 26.921875 -25.019531 28.109375 -25.125 L 28.109375 -24.328125 C 27.003906 -24.273438 26.117188 -24.046875 25.453125 -23.640625 C 25.210938 -23.484375 24.878906 -23.082031 24.453125 -22.4375 L 23.84375 -21.515625 C 23.125 -19.398438 21.71875 -15.832031 19.625 -10.8125 C 17.539062 -5.800781 16.082031 -2.007812 15.25 0.5625 L 13.65625 0.609375 C 12.3125 -2.660156 10.601562 -6.65625 8.53125 -11.375 C 6.457031 -16.101562 5.164062 -19.109375 4.65625 -20.390625 C 3.9375 -22.210938 3.132812 -23.335938 2.25 -23.765625 C 1.582031 -24.085938 0.832031 -24.34375 0 -24.53125 L 0 -25.125 C 1.257812 -25.019531 3.171875 -24.96875 5.734375 -24.96875 C 8.492188 -24.96875 10.476562 -25.019531 11.6875 -25.125 L 11.6875 -24.328125 C 9.863281 -24.171875 8.875 -23.941406 8.71875 -23.640625 C 8.582031 -23.378906 8.488281 -23.0625 8.4375 -22.6875 Z M 8.34375 -22.125 "/></g></g></g><g fill="#ffe047" fill-opacity="1"><g transform="translate(109.069914, 62.98576)"><g><path d="M 20.59375 0 L 1.96875 0 L 1.96875 -0.640625 C 1.96875 -0.617188 2.34375 -0.609375 3.09375 -0.609375 C 4.40625 -0.609375 5.128906 -0.925781 5.265625 -1.5625 C 5.503906 -3.007812 5.625 -8.175781 5.625 -17.0625 C 5.625 -20.96875 5.566406 -23.109375 5.453125 -23.484375 C 5.398438 -23.773438 4.894531 -24.03125 3.9375 -24.25 L 2.484375 -24.53125 L 2.484375 -25.25 C 5.328125 -25.164062 8.492188 -25.125 11.984375 -25.125 C 15.472656 -25.125 18.316406 -25.164062 20.515625 -25.25 L 20.640625 -19.4375 L 19.875 -19.4375 C 19.738281 -20.101562 19.535156 -20.75 19.265625 -21.375 C 19.003906 -22.007812 18.550781 -22.640625 17.90625 -23.265625 C 17.257812 -23.890625 16.523438 -24.203125 15.703125 -24.203125 L 9.390625 -24.203125 L 9.390625 -13.28125 L 15.328125 -13.28125 C 16.566406 -13.28125 17.238281 -14.335938 17.34375 -16.453125 L 18.3125 -16.453125 L 18.3125 -9.234375 L 17.5 -9.234375 C 17.363281 -11.316406 16.601562 -12.359375 15.21875 -12.359375 L 9.390625 -12.359375 L 9.390625 -2.765625 C 9.390625 -1.484375 9.859375 -0.828125 10.796875 -0.796875 L 16.859375 -0.796875 C 17.554688 -0.828125 18.234375 -1.421875 18.890625 -2.578125 C 19.546875 -3.742188 19.941406 -4.921875 20.078125 -6.109375 L 20.953125 -6.109375 Z M 20.59375 0 "/></g></g></g><g fill="#ffe047" fill-opacity="1"><g transform="translate(132.471685, 62.98576)"><g><path d="M 26.78125 -24.25 C 26.40625 -24.21875 25.984375 -24.164062 25.515625 -24.09375 C 25.046875 -24.03125 24.539062 -23.90625 24 -23.71875 C 23.46875 -23.53125 23.203125 -23.289062 23.203125 -23 C 23.148438 -22.113281 23.109375 -19.648438 23.078125 -15.609375 L 23.203125 0.4375 L 21.796875 0.4375 L 14.125 -10.03125 C 9.039062 -17.019531 6.351562 -20.660156 6.0625 -20.953125 C 6.03125 -18.679688 6.015625 -16.820312 6.015625 -15.375 C 6.015625 -13.550781 6.046875 -11.8125 6.109375 -10.15625 C 6.179688 -8.5 6.21875 -6.4375 6.21875 -3.96875 C 6.21875 -3.488281 6.21875 -2.957031 6.21875 -2.375 C 6.21875 -1.269531 6.6875 -0.71875 7.625 -0.71875 C 9.15625 -0.71875 9.929688 -0.691406 9.953125 -0.640625 L 9.953125 0.078125 C 8.640625 -0.00390625 7.15625 -0.046875 5.5 -0.046875 C 3.65625 -0.046875 2.085938 0.0078125 0.796875 0.125 L 0.796875 -0.515625 C 0.796875 -0.515625 0.878906 -0.515625 1.046875 -0.515625 C 3.234375 -0.515625 4.394531 -0.820312 4.53125 -1.4375 C 4.664062 -9.414062 4.734375 -14.085938 4.734375 -15.453125 C 4.734375 -17.515625 4.707031 -19.898438 4.65625 -22.609375 C 4.601562 -22.898438 3.972656 -23.300781 2.765625 -23.8125 L 0.96875 -24.53125 L 0.96875 -25.25 L 8.390625 -25.21875 C 9.972656 -23.019531 12.566406 -19.566406 16.171875 -14.859375 L 21.671875 -7.78125 L 21.71875 -23 C 21.6875 -23.375 21.347656 -23.675781 20.703125 -23.90625 C 20.066406 -24.132812 19.304688 -24.25 18.421875 -24.25 C 18.234375 -24.25 18.035156 -24.25 17.828125 -24.25 L 17.75 -25.171875 C 18.875 -25.035156 20.265625 -24.96875 21.921875 -24.96875 C 23.441406 -24.96875 25.0625 -25.019531 26.78125 -25.125 Z M 26.78125 -24.25 "/></g></g></g><g fill="#ffe047" fill-opacity="1"><g transform="translate(160.048043, 62.98576)"><g><path d="M 9.3125 -1.484375 C 9.90625 -2.234375 10.203125 -3 10.203125 -3.78125 L 10.234375 -24.28125 C 7.453125 -24.3125 6.046875 -24.328125 6.015625 -24.328125 C 5.378906 -24.328125 4.804688 -24.085938 4.296875 -23.609375 C 3.785156 -23.128906 3.394531 -22.53125 3.125 -21.8125 C 2.863281 -21.101562 2.644531 -20.40625 2.46875 -19.71875 C 2.289062 -19.039062 2.191406 -18.394531 2.171875 -17.78125 L 1.40625 -17.78125 L 1.5625 -25.25 C 4.5625 -25.164062 8.375 -25.125 13 -25.125 C 17.363281 -25.125 20.722656 -25.164062 23.078125 -25.25 L 23.203125 -17.78125 L 22.40625 -17.78125 C 22.164062 -22.0625 21.050781 -24.21875 19.0625 -24.25 L 14.375 -24.28125 L 14.40625 -3.78125 C 14.40625 -2.84375 14.660156 -2.078125 15.171875 -1.484375 C 15.578125 -1.003906 16.675781 -0.75 18.46875 -0.71875 L 18.46875 0.046875 L 6.140625 0.046875 L 6.140625 -0.71875 C 6.191406 -0.71875 6.269531 -0.71875 6.375 -0.71875 C 6.488281 -0.71875 6.570312 -0.71875 6.625 -0.71875 C 8.039062 -0.75 8.9375 -1.003906 9.3125 -1.484375 Z M 9.3125 -1.484375 "/></g></g></g><g clip-path="url(#82ca872147)"><path stroke-linecap="butt" transform="matrix(0.747989, -0.00489837, 0.00489837, 0.747989, -0.67265, 72.795041)" fill="none" stroke-linejoin="miter" d="M -0.00163345 2.002596 L 251.777562 2.00117 " stroke="#ffffff" stroke-width="4" stroke-opacity="1" stroke-miterlimit="4"/></g></svg>